<svg width="16" height="16" viewBox="0 0 16 16" fill="none" xmlns="http://www.w3.org/2000/svg">
<path d="M15.8184 9.68333V15.1995C15.8184 15.3349 15.7023 15.4511 15.5668 15.4511H12.7216C12.5861 15.4511 12.47 15.3349 12.47 15.1995V10.0704C12.47 8.71559 11.9861 7.78656 10.7668 7.78656C9.83774 7.78656 9.2958 8.40591 9.04419 9.00591C8.94742 9.21881 8.92806 9.52849 8.92806 9.81881V15.1995C8.92806 15.3349 8.81193 15.4511 8.67645 15.4511H5.85064C5.71516 15.4511 5.59903 15.3349 5.59903 15.1995C5.59903 13.8253 5.63774 7.18655 5.59903 5.63817C5.59903 5.50268 5.71516 5.38656 5.85064 5.38656H8.6958C8.83129 5.38656 8.94742 5.50268 8.94742 5.63817V6.81881C8.94742 6.83817 8.92806 6.83817 8.92806 6.85752H8.94742V6.81881C9.39258 6.14139 10.1861 5.1543 11.9668 5.1543C14.1732 5.1543 15.8184 6.60591 15.8184 9.68333ZM0.644191 15.4704H3.48935C3.62484 15.4704 3.74097 15.3543 3.74097 15.2188V5.63817C3.74097 5.50268 3.62484 5.38656 3.48935 5.38656H0.644191C0.508707 5.38656 0.392578 5.50268 0.392578 5.63817V15.2188C0.411933 15.3543 0.508707 15.4704 0.644191 15.4704Z" fill="white"/>
<path d="M1.97969 4.1293C2.9738 4.1293 3.77969 3.32341 3.77969 2.3293C3.77969 1.33518 2.9738 0.529297 1.97969 0.529297C0.985575 0.529297 0.179688 1.33518 0.179688 2.3293C0.179688 3.32341 0.985575 4.1293 1.97969 4.1293Z" fill="white"/>
</svg>
