<svg width="179" height="48" viewBox="0 0 179 48" fill="none" xmlns="http://www.w3.org/2000/svg">
<path d="M52.5762 7.15078H72.6722V12.7558H59.8626V20.0901H69.6732V25.4751H59.8626V32.9611H72.6722V38.5661H52.5762V7.15078ZM97.6886 16.2068L89.076 38.5661H83.0404L74.4278 16.2068H79.951C80.4232 16.2068 80.8201 16.318 81.1416 16.5405C81.4631 16.763 81.6816 17.0411 81.7971 17.3748L84.879 27.394C85.1201 28.2131 85.3512 29.012 85.5722 29.7907C85.7982 30.5643 85.9891 31.3405 86.1448 32.1192C86.3006 31.3405 86.494 30.5643 86.725 29.7907C86.9511 29.012 87.1922 28.2131 87.4484 27.394L90.6659 17.3748C90.7764 17.0411 90.9899 16.763 91.3064 16.5405C91.6178 16.318 91.9895 16.2068 92.4216 16.2068H97.6886ZM109.511 15.8654C111.199 15.8654 112.736 16.1309 114.123 16.6618C115.504 17.1927 116.692 17.9537 117.687 18.9448C118.676 19.9358 119.447 21.1393 120 22.555C120.547 23.9708 120.821 25.5636 120.821 27.3333C120.821 29.1132 120.547 30.7186 120 32.1495C119.447 33.5805 118.676 34.7965 117.687 35.7977C116.692 36.7938 115.504 37.5624 114.123 38.1034C112.736 38.6394 111.199 38.9074 109.511 38.9074C107.813 38.9074 106.268 38.6394 104.877 38.1034C103.486 37.5624 102.285 36.7938 101.275 35.7977C100.271 34.7965 99.4919 33.5805 98.9394 32.1495C98.3918 30.7186 98.1181 29.1132 98.1181 27.3333C98.1181 25.5636 98.3918 23.9708 98.9394 22.555C99.4919 21.1393 100.271 19.9358 101.275 18.9448C102.285 17.9537 103.486 17.1927 104.877 16.6618C106.268 16.1309 107.813 15.8654 109.511 15.8654ZM109.511 33.9546C111.043 33.9546 112.168 33.4111 112.887 32.324C113.61 31.2368 113.972 29.5885 113.972 27.3788C113.972 25.1641 113.61 23.5183 112.887 22.4413C112.168 21.3592 111.043 20.8182 109.511 20.8182C107.944 20.8182 106.796 21.3592 106.068 22.4413C105.339 23.5183 104.975 25.1641 104.975 27.3788C104.975 29.5885 105.339 31.2368 106.068 32.324C106.796 33.4111 107.944 33.9546 109.511 33.9546ZM124.679 6.28613H131.318V38.5661H124.679V6.28613ZM157.585 16.2068L148.972 38.5661H142.929L134.316 16.2068H139.847C140.319 16.2068 140.716 16.318 141.038 16.5405C141.354 16.763 141.57 17.0411 141.686 17.3748L144.775 27.394C145.016 28.2131 145.247 29.012 145.468 29.7907C145.689 30.5643 145.878 31.3405 146.033 32.1192C146.194 31.3405 146.388 30.5643 146.614 29.7907C146.845 29.012 147.088 28.2131 147.345 27.394L150.555 17.3748C150.67 17.0411 150.884 16.763 151.195 16.5405C151.511 16.318 151.883 16.2068 152.31 16.2068H157.585ZM169.023 15.8654C170.49 15.8654 171.836 16.093 173.062 16.5481C174.282 17.0082 175.33 17.6782 176.204 18.558C177.083 19.4327 177.769 20.5072 178.261 21.7814C178.753 23.0506 178.999 24.4916 178.999 26.1046C178.999 26.6052 178.979 27.0148 178.939 27.3333C178.894 27.6468 178.816 27.8971 178.705 28.0842C178.59 28.2713 178.434 28.4027 178.238 28.4786C178.047 28.5494 177.801 28.5848 177.5 28.5848H164.69C164.906 30.4506 165.471 31.8057 166.386 32.6501C167.3 33.4895 168.478 33.9091 169.92 33.9091C170.693 33.9091 171.356 33.8156 171.909 33.6285C172.466 33.4414 172.964 33.2341 173.401 33.0066C173.838 32.774 174.237 32.5641 174.599 32.3771C174.966 32.19 175.347 32.0964 175.744 32.0964C176.272 32.0964 176.671 32.2911 176.942 32.6804L178.871 35.0696C178.188 35.8634 177.45 36.5081 176.656 37.0036C175.862 37.4992 175.048 37.886 174.215 38.1641C173.381 38.4472 172.544 38.6419 171.705 38.7481C170.872 38.8543 170.075 38.9074 169.317 38.9074C167.765 38.9074 166.305 38.6546 164.939 38.1489C163.578 37.6382 162.385 36.8798 161.36 35.8735C160.34 34.8673 159.534 33.6159 158.941 32.1192C158.348 30.6225 158.052 28.8831 158.052 26.901C158.052 25.4043 158.306 23.9885 158.813 22.6536C159.32 21.3188 160.049 20.1482 160.998 19.142C161.948 18.1358 163.098 17.3369 164.449 16.7453C165.795 16.1587 167.32 15.8654 169.023 15.8654ZM169.151 20.4769C167.88 20.4769 166.888 20.8384 166.175 21.5615C165.456 22.2896 164.984 23.3362 164.758 24.7015H173.047C173.047 24.1706 172.979 23.6523 172.843 23.1466C172.708 22.6461 172.487 22.1986 172.18 21.8042C171.874 21.4098 171.469 21.0887 170.967 20.8409C170.47 20.5982 169.864 20.4769 169.151 20.4769Z" fill="#232323"/>
<path fill-rule="evenodd" clip-rule="evenodd" d="M0 9.90454H14.5653L7.37055 22.6005L0 9.90454Z" fill="#F6B90D"/>
<path fill-rule="evenodd" clip-rule="evenodd" d="M7.35742 22.6081H21.9227L14.5521 9.91211L7.35742 22.6081Z" fill="#EE9F0D"/>
<path fill-rule="evenodd" clip-rule="evenodd" d="M7.35742 22.6079H21.9227L14.728 35.3039L7.35742 22.6079Z" fill="#E9011A"/>
<path fill-rule="evenodd" clip-rule="evenodd" d="M14.7266 35.3039H29.2918L21.9213 22.6079L14.7266 35.3039Z" fill="#CA0171"/>
<path fill-rule="evenodd" clip-rule="evenodd" d="M14.7266 35.3042H29.2918L22.0971 48.0002L14.7266 35.3042Z" fill="#FA088D"/>
<path fill-rule="evenodd" clip-rule="evenodd" d="M45.5474 3.16797H30.9822L38.1769 15.864L45.5474 3.16797Z" fill="#07C3D4"/>
<path fill-rule="evenodd" clip-rule="evenodd" d="M36.6629 22.6081H21.9218L29.4652 9.91211L36.6629 22.6081Z" fill="#3851A3"/>
<path fill-rule="evenodd" clip-rule="evenodd" d="M36.6629 22.6079H21.9218L29.2923 35.3039L36.6629 22.6079Z" fill="#930886"/>
<path fill-rule="evenodd" clip-rule="evenodd" d="M29.7394 6.054H22.795L26.3089 0L29.7394 6.054Z" fill="#05EAFF"/>
</svg>
