<svg width="276" height="238" viewBox="0 0 276 238" fill="none" xmlns="http://www.w3.org/2000/svg">
<path d="M116.582 38.9995H112.602L108.682 34.4995H108.182V38.9995H104.982V24.9994H111.602C112.495 24.9994 113.288 25.2061 113.982 25.6195C114.675 26.0194 115.215 26.5861 115.602 27.3194C115.988 28.0394 116.182 28.8795 116.182 29.8395C116.182 30.6661 116.008 31.4261 115.662 32.1195C115.328 32.7995 114.875 33.3461 114.302 33.7595C113.728 34.1595 113.102 34.3795 112.422 34.4195L116.582 38.9995ZM108.182 31.5995H111.422C111.862 31.5995 112.228 31.4328 112.522 31.0995C112.828 30.7528 112.982 30.3195 112.982 29.7995C112.982 29.2795 112.828 28.8528 112.522 28.5194C112.228 28.1728 111.862 27.9995 111.422 27.9995H108.182V31.5995ZM122.445 39.1995C121.432 39.1995 120.518 38.9728 119.705 38.5195C118.892 38.0528 118.252 37.4195 117.785 36.6195C117.318 35.8061 117.085 34.8995 117.085 33.8995C117.085 32.8995 117.318 31.9995 117.785 31.1995C118.252 30.3861 118.892 29.7528 119.705 29.2995C120.518 28.8328 121.432 28.5994 122.445 28.5994C123.405 28.5994 124.278 28.8261 125.065 29.2795C125.865 29.7328 126.492 30.3595 126.945 31.1595C127.398 31.9461 127.625 32.8195 127.625 33.7795C127.625 34.1395 127.592 34.4728 127.525 34.7795H120.085C120.165 35.3395 120.425 35.8128 120.865 36.1995C121.305 36.5728 121.832 36.7595 122.445 36.7595C122.898 36.7595 123.285 36.6728 123.605 36.4995C123.925 36.3261 124.165 36.1461 124.325 35.9595H127.365C127.232 36.4128 126.965 36.8861 126.565 37.3795C126.165 37.8728 125.612 38.2995 124.905 38.6595C124.212 39.0195 123.392 39.1995 122.445 39.1995ZM124.645 32.9595C124.565 32.3995 124.325 31.9328 123.925 31.5595C123.525 31.1861 123.032 30.9995 122.445 30.9995C121.818 30.9995 121.298 31.1861 120.885 31.5595C120.472 31.9328 120.205 32.3995 120.085 32.9595H124.645ZM129.883 38.9995V31.6595H128.223V28.7994H129.883V27.3395C129.883 26.4595 130.136 25.7661 130.643 25.2594C131.163 24.7528 131.883 24.4995 132.803 24.4995H135.143V27.0995H133.603C133.39 27.0995 133.216 27.1661 133.083 27.2994C132.963 27.4194 132.903 27.5861 132.903 27.7995V28.7994H135.143V31.6595H132.903V38.9995H129.883ZM140.922 39.1995C139.909 39.1995 138.996 38.9728 138.182 38.5195C137.369 38.0528 136.729 37.4195 136.262 36.6195C135.796 35.8061 135.562 34.8995 135.562 33.8995C135.562 32.8995 135.796 31.9995 136.262 31.1995C136.729 30.3861 137.369 29.7528 138.182 29.2995C138.996 28.8328 139.909 28.5994 140.922 28.5994C141.882 28.5994 142.756 28.8261 143.542 29.2795C144.342 29.7328 144.969 30.3595 145.422 31.1595C145.876 31.9461 146.102 32.8195 146.102 33.7795C146.102 34.1395 146.069 34.4728 146.002 34.7795H138.562C138.642 35.3395 138.902 35.8128 139.342 36.1995C139.782 36.5728 140.309 36.7595 140.922 36.7595C141.376 36.7595 141.762 36.6728 142.082 36.4995C142.402 36.3261 142.642 36.1461 142.802 35.9595H145.842C145.709 36.4128 145.442 36.8861 145.042 37.3795C144.642 37.8728 144.089 38.2995 143.382 38.6595C142.689 39.0195 141.869 39.1995 140.922 39.1995ZM143.122 32.9595C143.042 32.3995 142.802 31.9328 142.402 31.5595C142.002 31.1861 141.509 30.9995 140.922 30.9995C140.296 30.9995 139.776 31.1861 139.362 31.5595C138.949 31.9328 138.682 32.3995 138.562 32.9595H143.122ZM150.616 38.9995H147.596V28.7994H150.616V38.9995ZM150.696 27.3194H147.536V24.6995H150.696V27.3194ZM157.486 36.4195C158.059 36.4195 158.506 36.2795 158.826 35.9995C159.146 35.7195 159.366 35.3795 159.486 34.9795H162.546C162.372 35.9795 161.926 36.8861 161.206 37.6995C160.486 38.4995 159.519 38.9795 158.306 39.1395L157.946 39.9595C158.332 40.1195 158.672 40.3328 158.966 40.5995C159.259 40.8661 159.406 41.2461 159.406 41.7395C159.406 42.3261 159.186 42.7995 158.746 43.1595C158.306 43.5328 157.699 43.7195 156.926 43.7195H155.606V41.9995H156.506C156.772 41.9995 156.972 41.9461 157.106 41.8395C157.239 41.7328 157.306 41.5861 157.306 41.3995C157.306 41.2128 157.239 41.0661 157.106 40.9595C156.972 40.8528 156.772 40.7995 156.506 40.7995H155.906V39.9595L156.266 39.0795C155.452 38.9061 154.732 38.5795 154.106 38.0995C153.479 37.6061 152.992 36.9995 152.646 36.2795C152.299 35.5461 152.126 34.7528 152.126 33.8995C152.126 32.8995 152.359 31.9995 152.826 31.1995C153.292 30.3861 153.932 29.7528 154.746 29.2995C155.559 28.8328 156.472 28.5994 157.486 28.5994C158.472 28.5994 159.326 28.8061 160.046 29.2195C160.766 29.6328 161.332 30.1595 161.746 30.7995C162.159 31.4261 162.426 32.0861 162.546 32.7795H159.486C159.366 32.4061 159.146 32.0861 158.826 31.8195C158.506 31.5395 158.059 31.3995 157.486 31.3995C156.832 31.3995 156.279 31.6328 155.826 32.0995C155.386 32.5661 155.166 33.1661 155.166 33.8995C155.166 34.6328 155.386 35.2395 155.826 35.7195C156.279 36.1861 156.832 36.4195 157.486 36.4195ZM168.784 39.1995C167.771 39.1995 166.858 38.9728 166.044 38.5195C165.231 38.0528 164.591 37.4195 164.124 36.6195C163.671 35.8061 163.444 34.8995 163.444 33.8995C163.444 32.8995 163.671 31.9995 164.124 31.1995C164.591 30.3861 165.231 29.7528 166.044 29.2995C166.858 28.8328 167.771 28.5994 168.784 28.5994C169.798 28.5994 170.711 28.8328 171.524 29.2995C172.338 29.7528 172.971 30.3861 173.424 31.1995C173.891 31.9995 174.124 32.8995 174.124 33.8995C174.124 34.8995 173.891 35.8061 173.424 36.6195C172.971 37.4195 172.338 38.0528 171.524 38.5195C170.711 38.9728 169.798 39.1995 168.784 39.1995ZM168.784 36.3995C169.438 36.3995 169.984 36.1661 170.424 35.6995C170.878 35.2328 171.104 34.6328 171.104 33.8995C171.104 33.1661 170.878 32.5661 170.424 32.0995C169.984 31.6328 169.438 31.3995 168.784 31.3995C168.131 31.3995 167.578 31.6328 167.124 32.0995C166.684 32.5661 166.464 33.1661 166.464 33.8995C166.464 34.6328 166.684 35.2328 167.124 35.6995C167.578 36.1661 168.131 36.3995 168.784 36.3995ZM165.324 27.3194C165.324 26.4394 165.531 25.7728 165.944 25.3195C166.371 24.8661 166.911 24.6394 167.564 24.6394C167.818 24.6394 168.031 24.6794 168.204 24.7595C168.391 24.8261 168.604 24.9261 168.844 25.0595C169.018 25.1661 169.158 25.2461 169.264 25.2994C169.371 25.3394 169.491 25.3594 169.624 25.3594C169.811 25.3594 169.964 25.2994 170.084 25.1794C170.218 25.0461 170.284 24.8661 170.284 24.6394H172.204C172.204 25.5195 171.998 26.1861 171.584 26.6395C171.171 27.0928 170.638 27.3194 169.984 27.3194C169.731 27.3194 169.511 27.2861 169.324 27.2194C169.151 27.1394 168.944 27.0328 168.704 26.8995C168.544 26.7928 168.404 26.7194 168.284 26.6794C168.164 26.6261 168.038 26.5995 167.904 26.5995C167.718 26.5995 167.558 26.6661 167.424 26.7995C167.304 26.9195 167.244 27.0928 167.244 27.3194H165.324ZM180.475 39.1995C179.461 39.1995 178.548 38.9728 177.735 38.5195C176.921 38.0528 176.281 37.4195 175.815 36.6195C175.348 35.8061 175.115 34.8995 175.115 33.8995C175.115 32.8995 175.348 31.9995 175.815 31.1995C176.281 30.3861 176.921 29.7528 177.735 29.2995C178.548 28.8328 179.461 28.5994 180.475 28.5994C181.435 28.5994 182.308 28.8261 183.095 29.2795C183.895 29.7328 184.521 30.3595 184.975 31.1595C185.428 31.9461 185.655 32.8195 185.655 33.7795C185.655 34.1395 185.621 34.4728 185.555 34.7795H178.115C178.195 35.3395 178.455 35.8128 178.895 36.1995C179.335 36.5728 179.861 36.7595 180.475 36.7595C180.928 36.7595 181.315 36.6728 181.635 36.4995C181.955 36.3261 182.195 36.1461 182.355 35.9595H185.395C185.261 36.4128 184.995 36.8861 184.595 37.3795C184.195 37.8728 183.641 38.2995 182.935 38.6595C182.241 39.0195 181.421 39.1995 180.475 39.1995ZM182.675 32.9595C182.595 32.3995 182.355 31.9328 181.955 31.5595C181.555 31.1861 181.061 30.9995 180.475 30.9995C179.848 30.9995 179.328 31.1861 178.915 31.5595C178.501 31.9328 178.235 32.3995 178.115 32.9595H182.675ZM191.088 39.1995C189.981 39.1995 189.081 39.0128 188.388 38.6395C187.695 38.2528 187.195 37.7995 186.888 37.2795C186.595 36.7595 186.448 36.2728 186.448 35.8195H189.388C189.388 36.0995 189.528 36.3528 189.808 36.5795C190.101 36.7928 190.528 36.8995 191.088 36.8995C191.635 36.8995 192.035 36.8195 192.288 36.6595C192.555 36.4861 192.688 36.2795 192.688 36.0395C192.688 35.7861 192.601 35.5861 192.428 35.4395C192.255 35.2928 191.948 35.1861 191.508 35.1195L189.988 34.8795C187.655 34.5195 186.488 33.5061 186.488 31.8395C186.488 31.2528 186.661 30.7128 187.008 30.2195C187.355 29.7261 187.868 29.3328 188.548 29.0395C189.228 28.7461 190.041 28.5994 190.988 28.5994C191.948 28.5994 192.768 28.7728 193.448 29.1195C194.128 29.4528 194.641 29.8795 194.988 30.3995C195.335 30.9061 195.508 31.4061 195.508 31.8995H192.588C192.588 31.6328 192.441 31.3995 192.148 31.1995C191.868 30.9995 191.481 30.8995 190.988 30.8995C190.508 30.8995 190.135 30.9928 189.868 31.1795C189.615 31.3528 189.488 31.5595 189.488 31.7995C189.488 32.1861 189.875 32.4395 190.648 32.5595L192.248 32.7995C194.528 33.1328 195.668 34.1995 195.668 35.9995C195.668 36.5861 195.495 37.1261 195.148 37.6195C194.815 38.0995 194.301 38.4861 193.608 38.7795C192.928 39.0595 192.088 39.1995 191.088 39.1995Z" fill="white"/>
<ellipse cx="137.5" cy="117.499" rx="35.5" ry="34.5" fill="white" fill-opacity="0.04"/>
<path opacity="0.5" d="M126.196 129.803C128.395 131.999 131.929 131.999 139 131.999C146.071 131.999 149.607 131.999 151.802 129.803C154 127.604 154 124.07 154 116.999C154 109.928 154 106.393 151.802 104.195C149.608 101.999 146.071 101.999 139 101.999C131.929 101.999 128.393 101.999 126.196 104.195C124 106.394 124 109.928 124 116.999C124 124.07 124 127.606 126.196 129.803Z" fill="white" fill-opacity="0.44"/>
<path d="M132.648 113.846C132.626 113.302 132.619 112.757 132.625 112.211V102.101C134.359 101.999 136.45 101.999 139 101.999C141.55 101.999 143.641 101.999 145.375 102.103V112.211C145.375 112.955 145.375 113.465 145.353 113.846C145.33 114.239 145.288 114.361 145.278 114.383C145.171 114.624 144.983 114.82 144.747 114.937C144.51 115.053 144.241 115.083 143.985 115.021C143.961 115.015 143.839 114.973 143.512 114.751C143.068 114.436 142.631 114.109 142.204 113.771L142.104 113.693C141.549 113.266 141.115 112.933 140.644 112.727C140.125 112.502 139.566 112.386 139 112.386C138.434 112.386 137.875 112.502 137.356 112.727C136.885 112.933 136.452 113.266 135.897 113.693L135.796 113.771C135.207 114.226 134.802 114.536 134.487 114.751C134.161 114.973 134.04 115.015 134.016 115.021C133.759 115.083 133.49 115.053 133.253 114.937C133.017 114.82 132.829 114.624 132.723 114.383C132.712 114.361 132.67 114.239 132.648 113.846Z" fill="white" fill-opacity="0.44"/>
<path fill-rule="evenodd" clip-rule="evenodd" d="M6.10352e-05 0L138 0L276 0L138 238L69.4418 119.283L6.10352e-05 0Z" fill="white" fill-opacity="0.04"/>
<path d="M0.869696 0.5L138 0.5L275.132 0.5L138.001 237.002L69.8747 119.033L69.8739 119.032L0.869696 0.5Z" stroke="#DFEFF7" stroke-opacity="0.2"/>
</svg>
