<svg width="276" height="238" viewBox="0 0 276 238" fill="none" xmlns="http://www.w3.org/2000/svg">
<path d="M74.3966 44.9995H71.1966V34.0995H67.2966V30.9995H78.2966V34.0995H74.3966V44.9995ZM82.7519 45.1995C81.7386 45.1995 80.8253 44.9728 80.0119 44.5195C79.1986 44.0528 78.5586 43.4195 78.0919 42.6195C77.6253 41.8062 77.3919 40.8995 77.3919 39.8995C77.3919 38.8995 77.6253 37.9995 78.0919 37.1995C78.5586 36.3862 79.1986 35.7528 80.0119 35.2995C80.8253 34.8328 81.7386 34.5995 82.7519 34.5995C83.7119 34.5995 84.5853 34.8262 85.3719 35.2795C86.1719 35.7328 86.7986 36.3595 87.2519 37.1595C87.7053 37.9462 87.9319 38.8195 87.9319 39.7795C87.9319 40.1395 87.8986 40.4728 87.8319 40.7795H80.3919C80.4719 41.3395 80.7319 41.8128 81.1719 42.1995C81.6119 42.5728 82.1386 42.7595 82.7519 42.7595C83.2053 42.7595 83.5919 42.6728 83.9119 42.4995C84.2319 42.3262 84.4719 42.1462 84.6319 41.9595H87.6719C87.5386 42.4128 87.2719 42.8862 86.8719 43.3795C86.4719 43.8728 85.9186 44.2995 85.2119 44.6595C84.5186 45.0195 83.6986 45.1995 82.7519 45.1995ZM84.9519 38.9595C84.8719 38.3995 84.6319 37.9328 84.2319 37.5595C83.8319 37.1862 83.3386 36.9995 82.7519 36.9995C82.1253 36.9995 81.6053 37.1862 81.1919 37.5595C80.7786 37.9328 80.5119 38.3995 80.3919 38.9595H84.9519ZM89.4255 44.9995V34.7995H92.0255L92.2255 35.5995H92.3255C92.4722 35.3862 92.7055 35.1995 93.0255 35.0395C93.3455 34.8795 93.7122 34.7995 94.1255 34.7995H96.0655V37.6595H94.2655C93.0522 37.6595 92.4455 38.2795 92.4455 39.5195V44.9995H89.4255ZM100.195 45.1995C99.4352 45.1995 98.7686 45.0595 98.1952 44.7795C97.6352 44.4995 97.2019 44.1262 96.8952 43.6595C96.6019 43.1795 96.4552 42.6462 96.4552 42.0595C96.4552 41.0462 96.8152 40.2328 97.5352 39.6195C98.2552 39.0062 99.2952 38.6995 100.655 38.6995H102.895V38.5195C102.895 38.0795 102.749 37.7195 102.455 37.4395C102.175 37.1462 101.809 36.9995 101.355 36.9995C100.942 36.9995 100.615 37.0928 100.375 37.2795C100.135 37.4528 99.9619 37.6595 99.8552 37.8995H96.8952C96.9619 37.3395 97.1752 36.8062 97.5352 36.2995C97.9086 35.7928 98.4152 35.3862 99.0552 35.0795C99.7086 34.7595 100.475 34.5995 101.355 34.5995C102.275 34.5995 103.075 34.7728 103.755 35.1195C104.449 35.4662 104.982 35.9395 105.355 36.5395C105.729 37.1262 105.915 37.7862 105.915 38.5195V44.9995H103.295L103.095 44.1195H102.995C102.769 44.3995 102.402 44.6528 101.895 44.8795C101.402 45.0928 100.835 45.1995 100.195 45.1995ZM100.855 42.8595C101.495 42.8595 101.995 42.6862 102.355 42.3395C102.715 41.9928 102.895 41.5262 102.895 40.9395V40.6995H101.055C100.535 40.6995 100.142 40.7995 99.8752 40.9995C99.6219 41.1862 99.4952 41.4462 99.4952 41.7795C99.4952 42.1128 99.6086 42.3795 99.8352 42.5795C100.075 42.7662 100.415 42.8595 100.855 42.8595ZM107.825 48.9995V34.7995H110.425L110.625 35.7995H110.725C110.978 35.4528 111.358 35.1662 111.865 34.9395C112.385 34.7128 112.978 34.5995 113.645 34.5995C114.511 34.5995 115.305 34.8262 116.025 35.2795C116.745 35.7195 117.318 36.3462 117.745 37.1595C118.171 37.9595 118.385 38.8728 118.385 39.8995C118.385 40.9262 118.171 41.8462 117.745 42.6595C117.318 43.4595 116.745 44.0862 116.025 44.5395C115.305 44.9795 114.511 45.1995 113.645 45.1995C113.018 45.1995 112.458 45.0928 111.965 44.8795C111.485 44.6662 111.145 44.4328 110.945 44.1795H110.845V48.9995H107.825ZM113.105 42.4195C113.758 42.4195 114.298 42.1928 114.725 41.7395C115.151 41.2728 115.365 40.6595 115.365 39.8995C115.365 39.1395 115.151 38.5328 114.725 38.0795C114.298 37.6262 113.758 37.3995 113.105 37.3995C112.451 37.3995 111.911 37.6262 111.485 38.0795C111.058 38.5328 110.845 39.1395 110.845 39.8995C110.845 40.6595 111.058 41.2728 111.485 41.7395C111.911 42.1928 112.451 42.4195 113.105 42.4195ZM122.906 44.9995H119.886V34.7995H122.906V44.9995ZM122.986 33.3195H119.826V30.6995H122.986V33.3195ZM128.155 45.1995C127.395 45.1995 126.729 45.0595 126.155 44.7795C125.595 44.4995 125.162 44.1262 124.855 43.6595C124.562 43.1795 124.415 42.6462 124.415 42.0595C124.415 41.0462 124.775 40.2328 125.495 39.6195C126.215 39.0062 127.255 38.6995 128.615 38.6995H130.855V38.5195C130.855 38.0795 130.709 37.7195 130.415 37.4395C130.135 37.1462 129.769 36.9995 129.315 36.9995C128.902 36.9995 128.575 37.0928 128.335 37.2795C128.095 37.4528 127.922 37.6595 127.815 37.8995H124.855C124.922 37.3395 125.135 36.8062 125.495 36.2995C125.869 35.7928 126.375 35.3862 127.015 35.0795C127.669 34.7595 128.435 34.5995 129.315 34.5995C130.235 34.5995 131.035 34.7728 131.715 35.1195C132.409 35.4662 132.942 35.9395 133.315 36.5395C133.689 37.1262 133.875 37.7862 133.875 38.5195V44.9995H131.255L131.055 44.1195H130.955C130.729 44.3995 130.362 44.6528 129.855 44.8795C129.362 45.0928 128.795 45.1995 128.155 45.1995ZM128.815 42.8595C129.455 42.8595 129.955 42.6862 130.315 42.3395C130.675 41.9928 130.855 41.5262 130.855 40.9395V40.6995H129.015C128.495 40.6995 128.102 40.7995 127.835 40.9995C127.582 41.1862 127.455 41.4462 127.455 41.7795C127.455 42.1128 127.569 42.3795 127.795 42.5795C128.035 42.7662 128.375 42.8595 128.815 42.8595ZM145.016 45.1995C144.149 45.1995 143.356 44.9795 142.636 44.5395C141.916 44.0862 141.342 43.4595 140.916 42.6595C140.489 41.8462 140.276 40.9262 140.276 39.8995C140.276 38.8728 140.489 37.9595 140.916 37.1595C141.342 36.3462 141.916 35.7195 142.636 35.2795C143.356 34.8262 144.149 34.5995 145.016 34.5995C145.642 34.5995 146.196 34.7128 146.676 34.9395C147.169 35.1662 147.522 35.4128 147.736 35.6795H147.836V30.9995H150.856V44.9995H148.256L148.056 43.9995H147.956C147.689 44.3462 147.302 44.6328 146.796 44.8595C146.302 45.0862 145.709 45.1995 145.016 45.1995ZM145.576 42.4195C146.229 42.4195 146.769 42.1928 147.196 41.7395C147.622 41.2728 147.836 40.6595 147.836 39.8995C147.836 39.1395 147.622 38.5328 147.196 38.0795C146.769 37.6262 146.229 37.3995 145.576 37.3995C144.922 37.3995 144.382 37.6262 143.956 38.0795C143.529 38.5328 143.316 39.1395 143.316 39.8995C143.316 40.6595 143.529 41.2728 143.956 41.7395C144.382 42.1928 144.922 42.4195 145.576 42.4195ZM156.194 45.1995C155.434 45.1995 154.767 45.0595 154.194 44.7795C153.634 44.4995 153.2 44.1262 152.894 43.6595C152.6 43.1795 152.454 42.6462 152.454 42.0595C152.454 41.0462 152.814 40.2328 153.534 39.6195C154.254 39.0062 155.294 38.6995 156.654 38.6995H158.894V38.5195C158.894 38.0795 158.747 37.7195 158.454 37.4395C158.174 37.1462 157.807 36.9995 157.354 36.9995C156.94 36.9995 156.614 37.0928 156.374 37.2795C156.134 37.4528 155.96 37.6595 155.854 37.8995H152.894C152.96 37.3395 153.174 36.8062 153.534 36.2995C153.907 35.7928 154.414 35.3862 155.054 35.0795C155.707 34.7595 156.474 34.5995 157.354 34.5995C158.274 34.5995 159.074 34.7728 159.754 35.1195C160.447 35.4662 160.98 35.9395 161.354 36.5395C161.727 37.1262 161.914 37.7862 161.914 38.5195V44.9995H159.294L159.094 44.1195H158.994C158.767 44.3995 158.4 44.6528 157.894 44.8795C157.4 45.0928 156.834 45.1995 156.194 45.1995ZM156.854 42.8595C157.494 42.8595 157.994 42.6862 158.354 42.3395C158.714 41.9928 158.894 41.5262 158.894 40.9395V40.6995H157.054C156.534 40.6995 156.14 40.7995 155.874 40.9995C155.62 41.1862 155.494 41.4462 155.494 41.7795C155.494 42.1128 155.607 42.3795 155.834 42.5795C156.074 42.7662 156.414 42.8595 156.854 42.8595ZM169.383 44.9995V37.6595H167.723V34.7995H169.383V33.3395C169.383 32.4595 169.637 31.7662 170.143 31.2595C170.663 30.7528 171.383 30.4995 172.303 30.4995H174.643V33.0995H173.103C172.89 33.0995 172.717 33.1662 172.583 33.2995C172.463 33.4195 172.403 33.5862 172.403 33.7995V34.7995H174.643V37.6595H172.403V44.9995H169.383ZM178.802 45.1995C178.042 45.1995 177.376 45.0595 176.802 44.7795C176.242 44.4995 175.809 44.1262 175.502 43.6595C175.209 43.1795 175.062 42.6462 175.062 42.0595C175.062 41.0462 175.422 40.2328 176.142 39.6195C176.862 39.0062 177.902 38.6995 179.262 38.6995H181.502V38.5195C181.502 38.0795 181.356 37.7195 181.062 37.4395C180.782 37.1462 180.416 36.9995 179.962 36.9995C179.549 36.9995 179.222 37.0928 178.982 37.2795C178.742 37.4528 178.569 37.6595 178.462 37.8995H175.502C175.569 37.3395 175.782 36.8062 176.142 36.2995C176.516 35.7928 177.022 35.3862 177.662 35.0795C178.316 34.7595 179.082 34.5995 179.962 34.5995C180.882 34.5995 181.682 34.7728 182.362 35.1195C183.056 35.4662 183.589 35.9395 183.962 36.5395C184.336 37.1262 184.522 37.7862 184.522 38.5195V44.9995H181.902L181.702 44.1195H181.602C181.376 44.3995 181.009 44.6528 180.502 44.8795C180.009 45.0928 179.442 45.1995 178.802 45.1995ZM179.462 42.8595C180.102 42.8595 180.602 42.6862 180.962 42.3395C181.322 41.9928 181.502 41.5262 181.502 40.9395V40.6995H179.662C179.142 40.6995 178.749 40.7995 178.482 40.9995C178.229 41.1862 178.102 41.4462 178.102 41.7795C178.102 42.1128 178.216 42.3795 178.442 42.5795C178.682 42.7662 179.022 42.8595 179.462 42.8595ZM189.552 44.9995H186.532V30.9995H189.552V44.9995ZM194.897 45.1995C194.137 45.1995 193.47 45.0595 192.897 44.7795C192.337 44.4995 191.903 44.1262 191.597 43.6595C191.303 43.1795 191.157 42.6462 191.157 42.0595C191.157 41.0462 191.517 40.2328 192.237 39.6195C192.957 39.0062 193.997 38.6995 195.357 38.6995H197.597V38.5195C197.597 38.0795 197.45 37.7195 197.157 37.4395C196.877 37.1462 196.51 36.9995 196.057 36.9995C195.643 36.9995 195.317 37.0928 195.077 37.2795C194.837 37.4528 194.663 37.6595 194.557 37.8995H191.597C191.663 37.3395 191.877 36.8062 192.237 36.2995C192.61 35.7928 193.117 35.3862 193.757 35.0795C194.41 34.7595 195.177 34.5995 196.057 34.5995C196.977 34.5995 197.777 34.7728 198.457 35.1195C199.15 35.4662 199.683 35.9395 200.057 36.5395C200.43 37.1262 200.617 37.7862 200.617 38.5195V44.9995H197.997L197.797 44.1195H197.697C197.47 44.3995 197.103 44.6528 196.597 44.8795C196.103 45.0928 195.537 45.1995 194.897 45.1995ZM195.557 42.8595C196.197 42.8595 196.697 42.6862 197.057 42.3395C197.417 41.9928 197.597 41.5262 197.597 40.9395V40.6995H195.757C195.237 40.6995 194.843 40.7995 194.577 40.9995C194.323 41.1862 194.197 41.4462 194.197 41.7795C194.197 42.1128 194.31 42.3795 194.537 42.5795C194.777 42.7662 195.117 42.8595 195.557 42.8595Z" fill="white"/>
<ellipse cx="133.5" cy="115.5" rx="35.5" ry="34.5" fill="white" fill-opacity="0.04"/>
<path opacity="0.5" d="M126.867 101H141.132C142.871 101 143.739 101 144.441 101.244C145.103 101.479 145.702 101.863 146.191 102.366C146.681 102.87 147.047 103.48 147.263 104.148C147.5 104.871 147.5 105.765 147.5 107.555V128.561C147.5 129.848 146.022 130.532 145.088 129.677C144.825 129.434 144.482 129.3 144.125 129.3C143.768 129.3 143.424 129.434 143.162 129.677L142.437 130.34C141.978 130.764 141.375 131 140.75 131C140.124 131 139.521 130.764 139.062 130.34C138.603 129.915 138 129.679 137.375 129.679C136.749 129.679 136.146 129.915 135.687 130.34C135.228 130.764 134.625 131 134 131C133.374 131 132.771 130.764 132.312 130.34C131.853 129.915 131.25 129.679 130.625 129.679C129.999 129.679 129.396 129.915 128.937 130.34C128.478 130.764 127.875 131 127.25 131C126.624 131 126.021 130.764 125.562 130.34L124.838 129.677C124.575 129.434 124.232 129.3 123.875 129.3C123.518 129.3 123.174 129.434 122.912 129.677C121.977 130.532 120.5 129.848 120.5 128.561V107.555C120.5 105.765 120.5 104.87 120.737 104.15C121.187 102.78 122.229 101.706 123.558 101.244C124.26 101 125.129 101 126.867 101Z" fill="white" fill-opacity="0.44"/>
<path d="M126.5 108.125C126.201 108.125 125.915 108.243 125.704 108.454C125.493 108.665 125.375 108.951 125.375 109.25C125.375 109.548 125.493 109.834 125.704 110.045C125.915 110.256 126.201 110.375 126.5 110.375H127.25C127.548 110.375 127.834 110.256 128.045 110.045C128.256 109.834 128.375 109.548 128.375 109.25C128.375 108.951 128.256 108.665 128.045 108.454C127.834 108.243 127.548 108.125 127.25 108.125H126.5ZM131.75 108.125C131.451 108.125 131.165 108.243 130.954 108.454C130.743 108.665 130.625 108.951 130.625 109.25C130.625 109.548 130.743 109.834 130.954 110.045C131.165 110.256 131.451 110.375 131.75 110.375H141.5C141.798 110.375 142.084 110.256 142.295 110.045C142.506 109.834 142.625 109.548 142.625 109.25C142.625 108.951 142.506 108.665 142.295 108.454C142.084 108.243 141.798 108.125 141.5 108.125H131.75ZM126.5 113.375C126.201 113.375 125.915 113.493 125.704 113.704C125.493 113.915 125.375 114.201 125.375 114.5C125.375 114.798 125.493 115.084 125.704 115.295C125.915 115.506 126.201 115.625 126.5 115.625H127.25C127.548 115.625 127.834 115.506 128.045 115.295C128.256 115.084 128.375 114.798 128.375 114.5C128.375 114.201 128.256 113.915 128.045 113.704C127.834 113.493 127.548 113.375 127.25 113.375H126.5ZM131.75 113.375C131.451 113.375 131.165 113.493 130.954 113.704C130.743 113.915 130.625 114.201 130.625 114.5C130.625 114.798 130.743 115.084 130.954 115.295C131.165 115.506 131.451 115.625 131.75 115.625H141.5C141.798 115.625 142.084 115.506 142.295 115.295C142.506 115.084 142.625 114.798 142.625 114.5C142.625 114.201 142.506 113.915 142.295 113.704C142.084 113.493 141.798 113.375 141.5 113.375H131.75ZM126.5 118.625C126.201 118.625 125.915 118.743 125.704 118.954C125.493 119.165 125.375 119.451 125.375 119.75C125.375 120.048 125.493 120.334 125.704 120.545C125.915 120.756 126.201 120.875 126.5 120.875H127.25C127.548 120.875 127.834 120.756 128.045 120.545C128.256 120.334 128.375 120.048 128.375 119.75C128.375 119.451 128.256 119.165 128.045 118.954C127.834 118.743 127.548 118.625 127.25 118.625H126.5ZM131.75 118.625C131.451 118.625 131.165 118.743 130.954 118.954C130.743 119.165 130.625 119.451 130.625 119.75C130.625 120.048 130.743 120.334 130.954 120.545C131.165 120.756 131.451 120.875 131.75 120.875H141.5C141.798 120.875 142.084 120.756 142.295 120.545C142.506 120.334 142.625 120.048 142.625 119.75C142.625 119.451 142.506 119.165 142.295 118.954C142.084 118.743 141.798 118.625 141.5 118.625H131.75Z" fill="white" fill-opacity="0.44"/>
<path fill-rule="evenodd" clip-rule="evenodd" d="M6.10352e-05 0L138 0L276 0L138 238L69.4418 119.283L6.10352e-05 0Z" fill="white" fill-opacity="0.04"/>
<path d="M0.869696 0.5L138 0.5L275.132 0.5L138.001 237.002L69.8747 119.033L69.8739 119.032L0.869696 0.5Z" stroke="#DFEFF7" stroke-opacity="0.2"/>
</svg>
