<svg width="276" height="238" viewBox="0 0 276 238" fill="none" xmlns="http://www.w3.org/2000/svg">
<ellipse cx="137.5" cy="115.5" rx="35.5" ry="34.5" fill="white" fill-opacity="0.04"/>
<path d="M55.9242 29.9995V15.9995H62.4042C63.3109 15.9995 64.1109 16.1995 64.8042 16.5995C65.5109 16.9995 66.0575 17.5728 66.4442 18.3195C66.8309 19.0528 67.0242 19.9062 67.0242 20.8795C67.0242 21.8662 66.8309 22.7328 66.4442 23.4795C66.0575 24.2262 65.5109 24.7995 64.8042 25.1995C64.1109 25.5995 63.3109 25.7995 62.4042 25.7995H59.1242V29.9995H55.9242ZM62.2242 22.6995C62.6909 22.6995 63.0709 22.5395 63.3642 22.2195C63.6709 21.8862 63.8242 21.4462 63.8242 20.8995C63.8242 20.3528 63.6709 19.9195 63.3642 19.5995C63.0709 19.2662 62.6909 19.0995 62.2242 19.0995H59.1242V22.6995H62.2242ZM68.5273 29.9995V19.7995H71.1273L71.3273 20.5995H71.4273C71.574 20.3862 71.8073 20.1995 72.1273 20.0395C72.4473 19.8795 72.814 19.7995 73.2273 19.7995H75.1673V22.6595H73.3673C72.154 22.6595 71.5473 23.2795 71.5473 24.5195V29.9995H68.5273ZM80.917 30.1995C79.9037 30.1995 78.9904 29.9728 78.177 29.5195C77.3637 29.0528 76.7237 28.4195 76.257 27.6195C75.7904 26.8062 75.557 25.8995 75.557 24.8995C75.557 23.8995 75.7904 22.9995 76.257 22.1995C76.7237 21.3862 77.3637 20.7528 78.177 20.2995C78.9904 19.8328 79.9037 19.5995 80.917 19.5995C81.877 19.5995 82.7504 19.8262 83.537 20.2795C84.337 20.7328 84.9637 21.3595 85.417 22.1595C85.8704 22.9462 86.097 23.8195 86.097 24.7795C86.097 25.1395 86.0637 25.4728 85.997 25.7795H78.557C78.637 26.3395 78.897 26.8128 79.337 27.1995C79.777 27.5728 80.3037 27.7595 80.917 27.7595C81.3704 27.7595 81.757 27.6728 82.077 27.4995C82.397 27.3262 82.637 27.1462 82.797 26.9595H85.837C85.7037 27.4128 85.437 27.8862 85.037 28.3795C84.637 28.8728 84.0837 29.2995 83.377 29.6595C82.6837 30.0195 81.8637 30.1995 80.917 30.1995ZM83.117 23.9595C83.037 23.3995 82.797 22.9328 82.397 22.5595C81.997 22.1862 81.5037 21.9995 80.917 21.9995C80.2904 21.9995 79.7704 22.1862 79.357 22.5595C78.9437 22.9328 78.677 23.3995 78.557 23.9595H83.117ZM87.5906 33.9995V19.7995H90.1906L90.3906 20.7995H90.4906C90.744 20.4528 91.124 20.1662 91.6306 19.9395C92.1506 19.7128 92.744 19.5995 93.4106 19.5995C94.2773 19.5995 95.0706 19.8262 95.7906 20.2795C96.5106 20.7195 97.084 21.3462 97.5106 22.1595C97.9373 22.9595 98.1506 23.8728 98.1506 24.8995C98.1506 25.9262 97.9373 26.8462 97.5106 27.6595C97.084 28.4595 96.5106 29.0862 95.7906 29.5395C95.0706 29.9795 94.2773 30.1995 93.4106 30.1995C92.784 30.1995 92.224 30.0928 91.7306 29.8795C91.2506 29.6662 90.9106 29.4328 90.7106 29.1795H90.6106V33.9995H87.5906ZM92.8706 27.4195C93.524 27.4195 94.064 27.1928 94.4906 26.7395C94.9173 26.2728 95.1306 25.6595 95.1306 24.8995C95.1306 24.1395 94.9173 23.5328 94.4906 23.0795C94.064 22.6262 93.524 22.3995 92.8706 22.3995C92.2173 22.3995 91.6773 22.6262 91.2506 23.0795C90.824 23.5328 90.6106 24.1395 90.6106 24.8995C90.6106 25.6595 90.824 26.2728 91.2506 26.7395C91.6773 27.1928 92.2173 27.4195 92.8706 27.4195ZM102.892 30.1995C102.132 30.1995 101.465 30.0595 100.892 29.7795C100.332 29.4995 99.8982 29.1262 99.5916 28.6595C99.2982 28.1795 99.1516 27.6462 99.1516 27.0595C99.1516 26.0462 99.5116 25.2328 100.232 24.6195C100.952 24.0062 101.992 23.6995 103.352 23.6995H105.592V23.5195C105.592 23.0795 105.445 22.7195 105.152 22.4395C104.872 22.1462 104.505 21.9995 104.052 21.9995C103.638 21.9995 103.312 22.0928 103.072 22.2795C102.832 22.4528 102.658 22.6595 102.552 22.8995H99.5916C99.6582 22.3395 99.8716 21.8062 100.232 21.2995C100.605 20.7928 101.112 20.3862 101.752 20.0795C102.405 19.7595 103.172 19.5995 104.052 19.5995C104.972 19.5995 105.772 19.7728 106.452 20.1195C107.145 20.4662 107.678 20.9395 108.052 21.5395C108.425 22.1262 108.612 22.7862 108.612 23.5195V29.9995H105.992L105.792 29.1195H105.692C105.465 29.3995 105.098 29.6528 104.592 29.8795C104.098 30.0928 103.532 30.1995 102.892 30.1995ZM103.552 27.8595C104.192 27.8595 104.692 27.6862 105.052 27.3395C105.412 26.9928 105.592 26.5262 105.592 25.9395V25.6995H103.752C103.232 25.6995 102.838 25.7995 102.572 25.9995C102.318 26.1862 102.192 26.4462 102.192 26.7795C102.192 27.1128 102.305 27.3795 102.532 27.5795C102.772 27.7662 103.112 27.8595 103.552 27.8595ZM110.521 29.9995V19.7995H113.121L113.321 20.5995H113.421C113.568 20.3862 113.801 20.1995 114.121 20.0395C114.441 19.8795 114.808 19.7995 115.221 19.7995H117.161V22.6595H115.361C114.148 22.6595 113.541 23.2795 113.541 24.5195V29.9995H110.521ZM121.291 30.1995C120.531 30.1995 119.864 30.0595 119.291 29.7795C118.731 29.4995 118.297 29.1262 117.991 28.6595C117.697 28.1795 117.551 27.6462 117.551 27.0595C117.551 26.0462 117.911 25.2328 118.631 24.6195C119.351 24.0062 120.391 23.6995 121.751 23.6995H123.991V23.5195C123.991 23.0795 123.844 22.7195 123.551 22.4395C123.271 22.1462 122.904 21.9995 122.451 21.9995C122.037 21.9995 121.711 22.0928 121.471 22.2795C121.231 22.4528 121.057 22.6595 120.951 22.8995H117.991C118.057 22.3395 118.271 21.8062 118.631 21.2995C119.004 20.7928 119.511 20.3862 120.151 20.0795C120.804 19.7595 121.571 19.5995 122.451 19.5995C123.371 19.5995 124.171 19.7728 124.851 20.1195C125.544 20.4662 126.077 20.9395 126.451 21.5395C126.824 22.1262 127.011 22.7862 127.011 23.5195V29.9995H124.391L124.191 29.1195H124.091C123.864 29.3995 123.497 29.6528 122.991 29.8795C122.497 30.0928 121.931 30.1995 121.291 30.1995ZM121.951 27.8595C122.591 27.8595 123.091 27.6862 123.451 27.3395C123.811 26.9928 123.991 26.5262 123.991 25.9395V25.6995H122.151C121.631 25.6995 121.237 25.7995 120.971 25.9995C120.717 26.1862 120.591 26.4462 120.591 26.7795C120.591 27.1128 120.704 27.3795 120.931 27.5795C121.171 27.7662 121.511 27.8595 121.951 27.8595ZM133.78 27.4195C134.354 27.4195 134.8 27.2795 135.12 26.9995C135.44 26.7195 135.66 26.3795 135.78 25.9795H138.84C138.667 26.9795 138.22 27.8862 137.5 28.6995C136.78 29.4995 135.814 29.9795 134.6 30.1395L134.24 30.9595C134.627 31.1195 134.967 31.3328 135.26 31.5995C135.554 31.8662 135.7 32.2462 135.7 32.7395C135.7 33.3262 135.48 33.7995 135.04 34.1595C134.6 34.5328 133.994 34.7195 133.22 34.7195H131.9V32.9995H132.8C133.067 32.9995 133.267 32.9462 133.4 32.8395C133.534 32.7328 133.6 32.5862 133.6 32.3995C133.6 32.2128 133.534 32.0662 133.4 31.9595C133.267 31.8528 133.067 31.7995 132.8 31.7995H132.2V30.9595L132.56 30.0795C131.747 29.9062 131.027 29.5795 130.4 29.0995C129.774 28.6062 129.287 27.9995 128.94 27.2795C128.594 26.5462 128.42 25.7528 128.42 24.8995C128.42 23.8995 128.654 22.9995 129.12 22.1995C129.587 21.3862 130.227 20.7528 131.04 20.2995C131.854 19.8328 132.767 19.5995 133.78 19.5995C134.767 19.5995 135.62 19.8062 136.34 20.2195C137.06 20.6328 137.627 21.1595 138.04 21.7995C138.454 22.4262 138.72 23.0862 138.84 23.7795H135.78C135.66 23.4062 135.44 23.0862 135.12 22.8195C134.8 22.5395 134.354 22.3995 133.78 22.3995C133.127 22.3995 132.574 22.6328 132.12 23.0995C131.68 23.5662 131.46 24.1662 131.46 24.8995C131.46 25.6328 131.68 26.2395 132.12 26.7195C132.574 27.1862 133.127 27.4195 133.78 27.4195ZM145.079 30.1995C144.066 30.1995 143.152 29.9728 142.339 29.5195C141.526 29.0528 140.886 28.4195 140.419 27.6195C139.966 26.8062 139.739 25.8995 139.739 24.8995C139.739 23.8995 139.966 22.9995 140.419 22.1995C140.886 21.3862 141.526 20.7528 142.339 20.2995C143.152 19.8328 144.066 19.5995 145.079 19.5995C146.092 19.5995 147.006 19.8328 147.819 20.2995C148.632 20.7528 149.266 21.3862 149.719 22.1995C150.186 22.9995 150.419 23.8995 150.419 24.8995C150.419 25.8995 150.186 26.8062 149.719 27.6195C149.266 28.4195 148.632 29.0528 147.819 29.5195C147.006 29.9728 146.092 30.1995 145.079 30.1995ZM145.079 27.3995C145.732 27.3995 146.279 27.1662 146.719 26.6995C147.172 26.2328 147.399 25.6328 147.399 24.8995C147.399 24.1662 147.172 23.5662 146.719 23.0995C146.279 22.6328 145.732 22.3995 145.079 22.3995C144.426 22.3995 143.872 22.6328 143.419 23.0995C142.979 23.5662 142.759 24.1662 142.759 24.8995C142.759 25.6328 142.979 26.2328 143.419 26.6995C143.872 27.1662 144.426 27.3995 145.079 27.3995ZM141.619 18.3195C141.619 17.4395 141.826 16.7728 142.239 16.3195C142.666 15.8662 143.206 15.6395 143.859 15.6395C144.112 15.6395 144.326 15.6795 144.499 15.7595C144.686 15.8262 144.899 15.9262 145.139 16.0595C145.312 16.1662 145.452 16.2462 145.559 16.2995C145.666 16.3395 145.786 16.3595 145.919 16.3595C146.106 16.3595 146.259 16.2995 146.379 16.1795C146.512 16.0462 146.579 15.8662 146.579 15.6395H148.499C148.499 16.5195 148.292 17.1862 147.879 17.6395C147.466 18.0928 146.932 18.3195 146.279 18.3195C146.026 18.3195 145.806 18.2862 145.619 18.2195C145.446 18.1395 145.239 18.0328 144.999 17.8995C144.839 17.7928 144.699 17.7195 144.579 17.6795C144.459 17.6262 144.332 17.5995 144.199 17.5995C144.012 17.5995 143.852 17.6662 143.719 17.7995C143.599 17.9195 143.539 18.0928 143.539 18.3195H141.619ZM156.769 30.1995C155.756 30.1995 154.843 29.9728 154.029 29.5195C153.216 29.0528 152.576 28.4195 152.109 27.6195C151.643 26.8062 151.409 25.8995 151.409 24.8995C151.409 23.8995 151.643 22.9995 152.109 22.1995C152.576 21.3862 153.216 20.7528 154.029 20.2995C154.843 19.8328 155.756 19.5995 156.769 19.5995C157.729 19.5995 158.603 19.8262 159.389 20.2795C160.189 20.7328 160.816 21.3595 161.269 22.1595C161.723 22.9462 161.949 23.8195 161.949 24.7795C161.949 25.1395 161.916 25.4728 161.849 25.7795H154.409C154.489 26.3395 154.749 26.8128 155.189 27.1995C155.629 27.5728 156.156 27.7595 156.769 27.7595C157.223 27.7595 157.609 27.6728 157.929 27.4995C158.249 27.3262 158.489 27.1462 158.649 26.9595H161.689C161.556 27.4128 161.289 27.8862 160.889 28.3795C160.489 28.8728 159.936 29.2995 159.229 29.6595C158.536 30.0195 157.716 30.1995 156.769 30.1995ZM158.969 23.9595C158.889 23.3995 158.649 22.9328 158.249 22.5595C157.849 22.1862 157.356 21.9995 156.769 21.9995C156.143 21.9995 155.623 22.1862 155.209 22.5595C154.796 22.9328 154.529 23.3995 154.409 23.9595H158.969ZM167.383 30.1995C166.276 30.1995 165.376 30.0128 164.683 29.6395C163.99 29.2528 163.49 28.7995 163.183 28.2795C162.89 27.7595 162.743 27.2728 162.743 26.8195H165.683C165.683 27.0995 165.823 27.3528 166.103 27.5795C166.396 27.7928 166.823 27.8995 167.383 27.8995C167.93 27.8995 168.33 27.8195 168.583 27.6595C168.85 27.4862 168.983 27.2795 168.983 27.0395C168.983 26.7862 168.896 26.5862 168.723 26.4395C168.55 26.2928 168.243 26.1862 167.803 26.1195L166.283 25.8795C163.95 25.5195 162.783 24.5062 162.783 22.8395C162.783 22.2528 162.956 21.7128 163.303 21.2195C163.65 20.7262 164.163 20.3328 164.843 20.0395C165.523 19.7462 166.336 19.5995 167.283 19.5995C168.243 19.5995 169.063 19.7728 169.743 20.1195C170.423 20.4528 170.936 20.8795 171.283 21.3995C171.63 21.9062 171.803 22.4062 171.803 22.8995H168.883C168.883 22.6328 168.736 22.3995 168.443 22.1995C168.163 21.9995 167.776 21.8995 167.283 21.8995C166.803 21.8995 166.43 21.9928 166.163 22.1795C165.91 22.3528 165.783 22.5595 165.783 22.7995C165.783 23.1862 166.17 23.4395 166.943 23.5595L168.543 23.7995C170.823 24.1328 171.963 25.1995 171.963 26.9995C171.963 27.5862 171.79 28.1262 171.443 28.6195C171.11 29.0995 170.596 29.4862 169.903 29.7795C169.223 30.0595 168.383 30.1995 167.383 30.1995ZM178.346 33.9995V19.7995H180.946L181.146 20.7995H181.246C181.499 20.4528 181.879 20.1662 182.386 19.9395C182.906 19.7128 183.499 19.5995 184.166 19.5995C185.033 19.5995 185.826 19.8262 186.546 20.2795C187.266 20.7195 187.839 21.3462 188.266 22.1595C188.693 22.9595 188.906 23.8728 188.906 24.8995C188.906 25.9262 188.693 26.8462 188.266 27.6595C187.839 28.4595 187.266 29.0862 186.546 29.5395C185.826 29.9795 185.033 30.1995 184.166 30.1995C183.539 30.1995 182.979 30.0928 182.486 29.8795C182.006 29.6662 181.666 29.4328 181.466 29.1795H181.366V33.9995H178.346ZM183.626 27.4195C184.279 27.4195 184.819 27.1928 185.246 26.7395C185.673 26.2728 185.886 25.6595 185.886 24.8995C185.886 24.1395 185.673 23.5328 185.246 23.0795C184.819 22.6262 184.279 22.3995 183.626 22.3995C182.973 22.3995 182.433 22.6262 182.006 23.0795C181.579 23.5328 181.366 24.1395 181.366 24.8995C181.366 25.6595 181.579 26.2728 182.006 26.7395C182.433 27.1928 182.973 27.4195 183.626 27.4195ZM193.647 30.1995C192.887 30.1995 192.22 30.0595 191.647 29.7795C191.087 29.4995 190.654 29.1262 190.347 28.6595C190.054 28.1795 189.907 27.6462 189.907 27.0595C189.907 26.0462 190.267 25.2328 190.987 24.6195C191.707 24.0062 192.747 23.6995 194.107 23.6995H196.347V23.5195C196.347 23.0795 196.2 22.7195 195.907 22.4395C195.627 22.1462 195.26 21.9995 194.807 21.9995C194.394 21.9995 194.067 22.0928 193.827 22.2795C193.587 22.4528 193.414 22.6595 193.307 22.8995H190.347C190.414 22.3395 190.627 21.8062 190.987 21.2995C191.36 20.7928 191.867 20.3862 192.507 20.0795C193.16 19.7595 193.927 19.5995 194.807 19.5995C195.727 19.5995 196.527 19.7728 197.207 20.1195C197.9 20.4662 198.434 20.9395 198.807 21.5395C199.18 22.1262 199.367 22.7862 199.367 23.5195V29.9995H196.747L196.547 29.1195H196.447C196.22 29.3995 195.854 29.6528 195.347 29.8795C194.854 30.0928 194.287 30.1995 193.647 30.1995ZM194.307 27.8595C194.947 27.8595 195.447 27.6862 195.807 27.3395C196.167 26.9928 196.347 26.5262 196.347 25.9395V25.6995H194.507C193.987 25.6995 193.594 25.7995 193.327 25.9995C193.074 26.1862 192.947 26.4462 192.947 26.7795C192.947 27.1128 193.06 27.3795 193.287 27.5795C193.527 27.7662 193.867 27.8595 194.307 27.8595ZM201.277 29.9995V19.7995H203.877L204.077 20.5995H204.177C204.323 20.3862 204.557 20.1995 204.877 20.0395C205.197 19.8795 205.563 19.7995 205.977 19.7995H207.917V22.6595H206.117C204.903 22.6595 204.297 23.2795 204.297 24.5195V29.9995H201.277ZM212.046 30.1995C211.286 30.1995 210.62 30.0595 210.046 29.7795C209.486 29.4995 209.053 29.1262 208.746 28.6595C208.453 28.1795 208.306 27.6462 208.306 27.0595C208.306 26.0462 208.666 25.2328 209.386 24.6195C210.106 24.0062 211.146 23.6995 212.506 23.6995H214.746V23.5195C214.746 23.0795 214.6 22.7195 214.306 22.4395C214.026 22.1462 213.66 21.9995 213.206 21.9995C212.793 21.9995 212.466 22.0928 212.226 22.2795C211.986 22.4528 211.813 22.6595 211.706 22.8995H208.746C208.813 22.3395 209.026 21.8062 209.386 21.2995C209.76 20.7928 210.266 20.3862 210.906 20.0795C211.56 19.7595 212.326 19.5995 213.206 19.5995C214.126 19.5995 214.926 19.7728 215.606 20.1195C216.3 20.4662 216.833 20.9395 217.206 21.5395C217.58 22.1262 217.766 22.7862 217.766 23.5195V29.9995H215.146L214.946 29.1195H214.846C214.62 29.3995 214.253 29.6528 213.746 29.8795C213.253 30.0928 212.686 30.1995 212.046 30.1995ZM212.706 27.8595C213.346 27.8595 213.846 27.6862 214.206 27.3395C214.566 26.9928 214.746 26.5262 214.746 25.9395V25.6995H212.906C212.386 25.6995 211.993 25.7995 211.726 25.9995C211.473 26.1862 211.346 26.4462 211.346 26.7795C211.346 27.1128 211.46 27.3795 211.686 27.5795C211.926 27.7662 212.266 27.8595 212.706 27.8595ZM67.6354 54.1995C66.6221 54.1995 65.7087 53.9728 64.8954 53.5195C64.0821 53.0528 63.4421 52.4195 62.9754 51.6195C62.5087 50.8062 62.2754 49.8995 62.2754 48.8995C62.2754 47.8995 62.5087 46.9995 62.9754 46.1995C63.4421 45.3862 64.0821 44.7528 64.8954 44.2995C65.7087 43.8328 66.6221 43.5995 67.6354 43.5995C68.5954 43.5995 69.4687 43.8262 70.2554 44.2795C71.0554 44.7328 71.6821 45.3595 72.1354 46.1595C72.5887 46.9462 72.8154 47.8195 72.8154 48.7795C72.8154 49.1395 72.7821 49.4728 72.7154 49.7795H65.2754C65.3554 50.3395 65.6154 50.8128 66.0554 51.1995C66.4954 51.5728 67.0221 51.7595 67.6354 51.7595C68.0887 51.7595 68.4754 51.6728 68.7954 51.4995C69.1154 51.3262 69.3554 51.1462 69.5154 50.9595H72.5554C72.4221 51.4128 72.1554 51.8862 71.7554 52.3795C71.3554 52.8728 70.8021 53.2995 70.0954 53.6595C69.4021 54.0195 68.5821 54.1995 67.6354 54.1995ZM69.8354 47.9595C69.7554 47.3995 69.5154 46.9328 69.1154 46.5595C68.7154 46.1862 68.2221 45.9995 67.6354 45.9995C67.0087 45.9995 66.4887 46.1862 66.0754 46.5595C65.6621 46.9328 65.3954 47.3995 65.2754 47.9595H69.8354ZM75.9584 53.9995H72.6184L76.0184 48.7995L72.7984 43.7995H76.1184L77.8784 46.6595H78.2784L80.0384 43.7995H83.3784L80.1584 48.7995L83.5584 53.9995H80.2184L78.2784 50.9395H77.8784L75.9584 53.9995ZM87.3052 54.1995C86.5452 54.1995 85.8786 54.0595 85.3052 53.7795C84.7452 53.4995 84.3119 53.1262 84.0052 52.6595C83.7119 52.1795 83.5652 51.6462 83.5652 51.0595C83.5652 50.0462 83.9252 49.2328 84.6452 48.6195C85.3652 48.0062 86.4052 47.6995 87.7652 47.6995H90.0052V47.5195C90.0052 47.0795 89.8586 46.7195 89.5652 46.4395C89.2852 46.1462 88.9186 45.9995 88.4652 45.9995C88.0519 45.9995 87.7252 46.0928 87.4852 46.2795C87.2452 46.4528 87.0719 46.6595 86.9652 46.8995H84.0052C84.0719 46.3395 84.2852 45.8062 84.6452 45.2995C85.0186 44.7928 85.5252 44.3862 86.1652 44.0795C86.8186 43.7595 87.5852 43.5995 88.4652 43.5995C89.3852 43.5995 90.1852 43.7728 90.8652 44.1195C91.5586 44.4662 92.0919 44.9395 92.4652 45.5395C92.8386 46.1262 93.0252 46.7862 93.0252 47.5195V53.9995H90.4052L90.2052 53.1195H90.1052C89.8786 53.3995 89.5119 53.6528 89.0052 53.8795C88.5119 54.0928 87.9452 54.1995 87.3052 54.1995ZM87.9652 51.8595C88.6052 51.8595 89.1052 51.6862 89.4652 51.3395C89.8252 50.9928 90.0052 50.5262 90.0052 49.9395V49.6995H88.1652C87.6452 49.6995 87.2519 49.7995 86.9852 49.9995C86.7319 50.1862 86.6052 50.4462 86.6052 50.7795C86.6052 51.1128 86.7186 51.3795 86.9452 51.5795C87.1852 51.7662 87.5252 51.8595 87.9652 51.8595ZM94.9348 53.9995V43.7995H97.5348L97.7348 44.6995H97.8348C98.0348 44.4195 98.3548 44.1662 98.7948 43.9395C99.2348 43.7128 99.7214 43.5995 100.255 43.5995C100.921 43.5995 101.495 43.7462 101.975 44.0395C102.468 44.3328 102.821 44.6528 103.035 44.9995H103.135C103.388 44.6262 103.781 44.2995 104.315 44.0195C104.861 43.7395 105.488 43.5995 106.195 43.5995C106.901 43.5995 107.541 43.7795 108.115 44.1395C108.701 44.4995 109.161 44.9928 109.495 45.6195C109.828 46.2462 109.995 46.9528 109.995 47.7395V53.9995H106.975V48.1795C106.975 47.6328 106.841 47.2128 106.575 46.9195C106.321 46.6262 105.975 46.4795 105.535 46.4795C105.081 46.4795 104.708 46.6395 104.415 46.9595C104.121 47.2795 103.975 47.6862 103.975 48.1795V53.9995H100.955V48.1795C100.955 47.6328 100.821 47.2128 100.555 46.9195C100.301 46.6262 99.9548 46.4795 99.5148 46.4795C99.0614 46.4795 98.6881 46.6395 98.3948 46.9595C98.1014 47.2662 97.9548 47.6728 97.9548 48.1795V53.9995H94.9348ZM116.758 54.1995C115.745 54.1995 114.831 53.9728 114.018 53.5195C113.205 53.0528 112.565 52.4195 112.098 51.6195C111.631 50.8062 111.398 49.8995 111.398 48.8995C111.398 47.8995 111.631 46.9995 112.098 46.1995C112.565 45.3862 113.205 44.7528 114.018 44.2995C114.831 43.8328 115.745 43.5995 116.758 43.5995C117.718 43.5995 118.591 43.8262 119.378 44.2795C120.178 44.7328 120.805 45.3595 121.258 46.1595C121.711 46.9462 121.938 47.8195 121.938 48.7795C121.938 49.1395 121.905 49.4728 121.838 49.7795H114.398C114.478 50.3395 114.738 50.8128 115.178 51.1995C115.618 51.5728 116.145 51.7595 116.758 51.7595C117.211 51.7595 117.598 51.6728 117.918 51.4995C118.238 51.3262 118.478 51.1462 118.638 50.9595H121.678C121.545 51.4128 121.278 51.8862 120.878 52.3795C120.478 52.8728 119.925 53.2995 119.218 53.6595C118.525 54.0195 117.705 54.1995 116.758 54.1995ZM118.958 47.9595C118.878 47.3995 118.638 46.9328 118.238 46.5595C117.838 46.1862 117.345 45.9995 116.758 45.9995C116.131 45.9995 115.611 46.1862 115.198 46.5595C114.785 46.9328 114.518 47.3995 114.398 47.9595H118.958ZM127.372 54.1995C126.265 54.1995 125.365 54.0128 124.672 53.6395C123.978 53.2528 123.478 52.7995 123.172 52.2795C122.878 51.7595 122.732 51.2728 122.732 50.8195H125.672C125.672 51.0995 125.812 51.3528 126.092 51.5795C126.385 51.7928 126.812 51.8995 127.372 51.8995C127.918 51.8995 128.318 51.8195 128.572 51.6595C128.838 51.4862 128.972 51.2795 128.972 51.0395C128.972 50.7862 128.885 50.5862 128.712 50.4395C128.538 50.2928 128.232 50.1862 127.792 50.1195L126.272 49.8795C123.938 49.5195 122.772 48.5062 122.772 46.8395C122.772 46.2528 122.945 45.7128 123.292 45.2195C123.638 44.7262 124.152 44.3328 124.832 44.0395C125.512 43.7462 126.325 43.5995 127.272 43.5995C128.232 43.5995 129.052 43.7728 129.732 44.1195C130.412 44.4528 130.925 44.8795 131.272 45.3995C131.618 45.9062 131.792 46.4062 131.792 46.8995H128.872C128.872 46.6328 128.725 46.3995 128.432 46.1995C128.152 45.9995 127.765 45.8995 127.272 45.8995C126.792 45.8995 126.418 45.9928 126.152 46.1795C125.898 46.3528 125.772 46.5595 125.772 46.7995C125.772 47.1862 126.158 47.4395 126.932 47.5595L128.532 47.7995C130.812 48.1328 131.952 49.1995 131.952 50.9995C131.952 51.5862 131.778 52.1262 131.432 52.6195C131.098 53.0995 130.585 53.4862 129.892 53.7795C129.212 54.0595 128.372 54.1995 127.372 54.1995ZM143.195 54.1995C142.181 54.1995 141.268 53.9728 140.455 53.5195C139.641 53.0528 139.001 52.4195 138.535 51.6195C138.068 50.8062 137.835 49.8995 137.835 48.8995C137.835 47.8995 138.068 46.9995 138.535 46.1995C139.001 45.3862 139.641 44.7528 140.455 44.2995C141.268 43.8328 142.181 43.5995 143.195 43.5995C144.155 43.5995 145.028 43.8262 145.815 44.2795C146.615 44.7328 147.241 45.3595 147.695 46.1595C148.148 46.9462 148.375 47.8195 148.375 48.7795C148.375 49.1395 148.341 49.4728 148.275 49.7795H140.835C140.915 50.3395 141.175 50.8128 141.615 51.1995C142.055 51.5728 142.581 51.7595 143.195 51.7595C143.648 51.7595 144.035 51.6728 144.355 51.4995C144.675 51.3262 144.915 51.1462 145.075 50.9595H148.115C147.981 51.4128 147.715 51.8862 147.315 52.3795C146.915 52.8728 146.361 53.2995 145.655 53.6595C144.961 54.0195 144.141 54.1995 143.195 54.1995ZM145.395 47.9595C145.315 47.3995 145.075 46.9328 144.675 46.5595C144.275 46.1862 143.781 45.9995 143.195 45.9995C142.568 45.9995 142.048 46.1862 141.635 46.5595C141.221 46.9328 140.955 47.3995 140.835 47.9595H145.395ZM158.348 53.9995C157.375 53.9995 156.635 53.7595 156.128 53.2795C155.622 52.7995 155.368 52.1128 155.368 51.2195V46.6595H153.768V43.7995H155.368V40.6395H158.388V43.7995H160.688V46.6595H158.388V50.5795C158.388 50.8328 158.442 51.0128 158.548 51.1195C158.655 51.2262 158.835 51.2795 159.088 51.2795H160.688V53.9995H158.348ZM166.858 54.1995C165.845 54.1995 164.931 53.9728 164.118 53.5195C163.305 53.0528 162.665 52.4195 162.198 51.6195C161.731 50.8062 161.498 49.8995 161.498 48.8995C161.498 47.8995 161.731 46.9995 162.198 46.1995C162.665 45.3862 163.305 44.7528 164.118 44.2995C164.931 43.8328 165.845 43.5995 166.858 43.5995C167.818 43.5995 168.691 43.8262 169.478 44.2795C170.278 44.7328 170.905 45.3595 171.358 46.1595C171.811 46.9462 172.038 47.8195 172.038 48.7795C172.038 49.1395 172.005 49.4728 171.938 49.7795H164.498C164.578 50.3395 164.838 50.8128 165.278 51.1995C165.718 51.5728 166.245 51.7595 166.858 51.7595C167.311 51.7595 167.698 51.6728 168.018 51.4995C168.338 51.3262 168.578 51.1462 168.738 50.9595H171.778C171.645 51.4128 171.378 51.8862 170.978 52.3795C170.578 52.8728 170.025 53.2995 169.318 53.6595C168.625 54.0195 167.805 54.1995 166.858 54.1995ZM169.058 47.9595C168.978 47.3995 168.738 46.9328 168.338 46.5595C167.938 46.1862 167.445 45.9995 166.858 45.9995C166.231 45.9995 165.711 46.1862 165.298 46.5595C164.885 46.9328 164.618 47.3995 164.498 47.9595H169.058ZM177.472 54.1995C176.365 54.1995 175.465 54.0128 174.772 53.6395C174.078 53.2528 173.578 52.7995 173.272 52.2795C172.978 51.7595 172.832 51.2728 172.832 50.8195H175.772C175.772 51.0995 175.912 51.3528 176.192 51.5795C176.485 51.7928 176.912 51.8995 177.472 51.8995C178.018 51.8995 178.418 51.8195 178.672 51.6595C178.938 51.4862 179.072 51.2795 179.072 51.0395C179.072 50.7862 178.985 50.5862 178.812 50.4395C178.638 50.2928 178.332 50.1862 177.892 50.1195L176.372 49.8795C174.038 49.5195 172.872 48.5062 172.872 46.8395C172.872 46.2528 173.045 45.7128 173.392 45.2195C173.738 44.7262 174.252 44.3328 174.932 44.0395C175.612 43.7462 176.425 43.5995 177.372 43.5995C178.332 43.5995 179.152 43.7728 179.832 44.1195C180.512 44.4528 181.025 44.8795 181.372 45.3995C181.718 45.9062 181.892 46.4062 181.892 46.8995H178.972C178.972 46.6328 178.825 46.3995 178.532 46.1995C178.252 45.9995 177.865 45.8995 177.372 45.8995C176.892 45.8995 176.518 45.9928 176.252 46.1795C175.998 46.3528 175.872 46.5595 175.872 46.7995C175.872 47.1862 176.258 47.4395 177.032 47.5595L178.632 47.7995C180.912 48.1328 182.052 49.1995 182.052 50.9995C182.052 51.5862 181.878 52.1262 181.532 52.6195C181.198 53.0995 180.685 53.4862 179.992 53.7795C179.312 54.0595 178.472 54.1995 177.472 54.1995ZM187.129 53.9995C186.155 53.9995 185.415 53.7595 184.909 53.2795C184.402 52.7995 184.149 52.1128 184.149 51.2195V46.6595H182.549V43.7995H184.149V40.6395H187.169V43.7995H189.469V46.6595H187.169V50.5795C187.169 50.8328 187.222 51.0128 187.329 51.1195C187.435 51.2262 187.615 51.2795 187.869 51.2795H189.469V53.9995H187.129ZM195.639 54.1995C194.625 54.1995 193.712 53.9728 192.899 53.5195C192.085 53.0528 191.445 52.4195 190.979 51.6195C190.512 50.8062 190.279 49.8995 190.279 48.8995C190.279 47.8995 190.512 46.9995 190.979 46.1995C191.445 45.3862 192.085 44.7528 192.899 44.2995C193.712 43.8328 194.625 43.5995 195.639 43.5995C196.599 43.5995 197.472 43.8262 198.259 44.2795C199.059 44.7328 199.685 45.3595 200.139 46.1595C200.592 46.9462 200.819 47.8195 200.819 48.7795C200.819 49.1395 200.785 49.4728 200.719 49.7795H193.279C193.359 50.3395 193.619 50.8128 194.059 51.1995C194.499 51.5728 195.025 51.7595 195.639 51.7595C196.092 51.7595 196.479 51.6728 196.799 51.4995C197.119 51.3262 197.359 51.1462 197.519 50.9595H200.559C200.425 51.4128 200.159 51.8862 199.759 52.3795C199.359 52.8728 198.805 53.2995 198.099 53.6595C197.405 54.0195 196.585 54.1995 195.639 54.1995ZM197.839 47.9595C197.759 47.3995 197.519 46.9328 197.119 46.5595C196.719 46.1862 196.225 45.9995 195.639 45.9995C195.012 45.9995 194.492 46.1862 194.079 46.5595C193.665 46.9328 193.399 47.3995 193.279 47.9595H197.839ZM206.252 54.1995C205.145 54.1995 204.245 54.0128 203.552 53.6395C202.859 53.2528 202.359 52.7995 202.052 52.2795C201.759 51.7595 201.612 51.2728 201.612 50.8195H204.552C204.552 51.0995 204.692 51.3528 204.972 51.5795C205.265 51.7928 205.692 51.8995 206.252 51.8995C206.799 51.8995 207.199 51.8195 207.452 51.6595C207.719 51.4862 207.852 51.2795 207.852 51.0395C207.852 50.7862 207.765 50.5862 207.592 50.4395C207.419 50.2928 207.112 50.1862 206.672 50.1195L205.152 49.8795C202.819 49.5195 201.652 48.5062 201.652 46.8395C201.652 46.2528 201.825 45.7128 202.172 45.2195C202.519 44.7262 203.032 44.3328 203.712 44.0395C204.392 43.7462 205.205 43.5995 206.152 43.5995C207.112 43.5995 207.932 43.7728 208.612 44.1195C209.292 44.4528 209.805 44.8795 210.152 45.3995C210.499 45.9062 210.672 46.4062 210.672 46.8995H207.752C207.752 46.6328 207.605 46.3995 207.312 46.1995C207.032 45.9995 206.645 45.8995 206.152 45.8995C205.672 45.8995 205.299 45.9928 205.032 46.1795C204.779 46.3528 204.652 46.5595 204.652 46.7995C204.652 47.1862 205.039 47.4395 205.812 47.5595L207.412 47.7995C209.692 48.1328 210.832 49.1995 210.832 50.9995C210.832 51.5862 210.659 52.1262 210.312 52.6195C209.979 53.0995 209.465 53.4862 208.772 53.7795C208.092 54.0595 207.252 54.1995 206.252 54.1995Z" fill="white"/>
<path fill-rule="evenodd" clip-rule="evenodd" d="M132.178 105.179C130.344 105.714 128.73 106.823 127.571 108.343C126.413 109.862 125.771 111.713 125.74 113.624L125.739 113.894V117.378C125.896 117.378 126.052 117.41 126.196 117.474C130.305 119.287 134.747 120.223 139.239 120.223C143.73 120.223 148.172 119.287 152.281 117.474C152.426 117.411 152.582 117.378 152.74 117.38V113.625C152.709 111.715 152.068 109.864 150.91 108.345C149.752 106.825 148.138 105.716 146.304 105.18C145.887 105.044 144.624 104.799 144.045 104.694C140.865 104.154 137.616 104.154 134.436 104.694C133.828 104.808 132.528 105.066 132.177 105.18M136.24 115.889C136.093 115.888 135.947 115.916 135.811 115.972C135.674 116.028 135.551 116.11 135.446 116.214C135.342 116.318 135.259 116.441 135.202 116.577C135.145 116.713 135.116 116.859 135.115 117.006C135.115 117.623 135.619 118.124 136.24 118.124H142.24C142.861 118.124 143.365 117.623 143.365 117.006C143.365 116.859 143.335 116.713 143.279 116.577C143.222 116.441 143.139 116.318 143.034 116.214C142.93 116.11 142.806 116.028 142.67 115.972C142.533 115.916 142.388 115.888 142.24 115.889H136.24Z" fill="white" fill-opacity="0.44"/>
<path opacity="0.5" d="M134.55 103.988C134.782 103.328 135.214 102.756 135.786 102.353C136.358 101.949 137.04 101.733 137.74 101.735H140.74C142.215 101.735 143.47 102.674 143.929 103.988C143.997 104.183 144.031 104.408 144.045 104.693C144.624 104.798 145.885 105.042 146.302 105.179V105.087C146.302 104.579 146.286 103.914 146.055 103.254C145.667 102.155 144.948 101.203 143.995 100.53C143.043 99.8577 141.906 99.4975 140.74 99.4995H137.74C136.574 99.4972 135.436 99.8573 134.484 100.53C133.532 101.202 132.812 102.154 132.424 103.254C132.195 103.914 132.177 104.579 132.177 105.087V105.177C132.526 105.065 133.827 104.807 134.434 104.693C134.449 104.408 134.482 104.183 134.55 103.988ZM152.74 119.715C151.39 120.288 150.012 120.771 148.615 121.164V122.964C148.615 123.111 148.585 123.257 148.529 123.393C148.472 123.529 148.389 123.653 148.284 123.757C148.18 123.86 148.056 123.943 147.92 123.999C147.784 124.055 147.638 124.083 147.49 124.083C147.193 124.084 146.907 123.967 146.697 123.757C146.486 123.548 146.366 123.263 146.365 122.966V121.718C139.447 123.174 132.249 122.475 125.74 119.715V122.034C125.744 123.57 126.272 125.059 127.238 126.254C128.203 127.449 129.548 128.279 131.049 128.606C136.444 129.797 142.036 129.797 147.433 128.606C148.934 128.278 150.278 127.449 151.243 126.254C152.208 125.059 152.736 123.57 152.74 122.034V119.715Z" fill="white" fill-opacity="0.44"/>
<path fill-rule="evenodd" clip-rule="evenodd" d="M6.10352e-05 -0.000488281L138 -0.000488281L276 -0.000488281L138 238L69.4418 119.283L6.10352e-05 -0.000488281Z" fill="white" fill-opacity="0.04"/>
<path d="M0.869696 0.499512L138 0.499512L275.132 0.499512L138.001 237.001L69.8747 119.033L69.8739 119.031L0.869696 0.499512Z" stroke="#DFEFF7" stroke-opacity="0.2"/>
</svg>
