<svg width="276" height="238" viewBox="0 0 276 238" fill="none" xmlns="http://www.w3.org/2000/svg">
<ellipse cx="137.5" cy="123.499" rx="35.5" ry="34.5" fill="white" fill-opacity="0.04"/>
<path d="M41.8692 38.9995H38.3692L37.4692 36.1995H32.0692L31.1692 38.9995H27.6692L32.4692 24.9994H37.0692L41.8692 38.9995ZM34.5692 28.3995L32.9692 33.3995H36.5692L34.9692 28.3995H34.5692ZM46.5731 39.1995C45.7998 39.1995 45.1064 39.0261 44.4931 38.6795C43.8931 38.3328 43.4198 37.8395 43.0731 37.1995C42.7398 36.5461 42.5731 35.7928 42.5731 34.9395V28.7994H45.5931V34.4395C45.5931 34.9995 45.7598 35.4595 46.0931 35.8195C46.4398 36.1661 46.8931 36.3395 47.4531 36.3395C48.0131 36.3395 48.4598 36.1661 48.7931 35.8195C49.1398 35.4595 49.3131 34.9995 49.3131 34.4395V28.7994H52.3331V38.9995H49.7331L49.5331 38.0995H49.4331C49.1664 38.4061 48.7798 38.6661 48.2731 38.8795C47.7664 39.0928 47.1998 39.1995 46.5731 39.1995ZM57.4611 38.9995H54.4411V24.9994H57.4611V38.9995ZM62.8061 39.1995C62.0461 39.1995 61.3794 39.0595 60.8061 38.7795C60.2461 38.4995 59.8127 38.1261 59.5061 37.6595C59.2127 37.1795 59.0661 36.6461 59.0661 36.0595C59.0661 35.0461 59.4261 34.2328 60.1461 33.6195C60.8661 33.0061 61.9061 32.6995 63.2661 32.6995H65.5061V32.5195C65.5061 32.0795 65.3594 31.7195 65.0661 31.4395C64.7861 31.1461 64.4194 30.9995 63.9661 30.9995C63.5527 30.9995 63.2261 31.0928 62.9861 31.2795C62.7461 31.4528 62.5727 31.6595 62.4661 31.8995H59.5061C59.5727 31.3395 59.7861 30.8061 60.1461 30.2995C60.5194 29.7928 61.0261 29.3861 61.6661 29.0795C62.3194 28.7594 63.0861 28.5994 63.9661 28.5994C64.8861 28.5994 65.6861 28.7728 66.3661 29.1195C67.0594 29.4661 67.5927 29.9395 67.9661 30.5395C68.3394 31.1261 68.5261 31.7861 68.5261 32.5195V38.9995H65.9061L65.7061 38.1195H65.6061C65.3794 38.3995 65.0127 38.6528 64.5061 38.8795C64.0127 39.0928 63.4461 39.1995 62.8061 39.1995ZM63.4661 36.8595C64.1061 36.8595 64.6061 36.6861 64.9661 36.3395C65.3261 35.9928 65.5061 35.5261 65.5061 34.9395V34.6995H63.6661C63.1461 34.6995 62.7527 34.7995 62.4861 34.9995C62.2327 35.1861 62.1061 35.4461 62.1061 35.7795C62.1061 36.1128 62.2194 36.3795 62.4461 36.5795C62.6861 36.7661 63.0261 36.8595 63.4661 36.8595ZM74.3756 39.1995C73.2689 39.1995 72.3689 39.0128 71.6756 38.6395C70.9823 38.2528 70.4823 37.7995 70.1756 37.2795C69.8823 36.7595 69.7356 36.2728 69.7356 35.8195H72.6756C72.6756 36.0995 72.8156 36.3528 73.0956 36.5795C73.3889 36.7928 73.8156 36.8995 74.3756 36.8995C74.9223 36.8995 75.3223 36.8195 75.5756 36.6595C75.8423 36.4861 75.9756 36.2795 75.9756 36.0395C75.9756 35.7861 75.8889 35.5861 75.7156 35.4395C75.5423 35.2928 75.2356 35.1861 74.7956 35.1195L73.2756 34.8795C70.9423 34.5195 69.7756 33.5061 69.7756 31.8395C69.7756 31.2528 69.9489 30.7128 70.2956 30.2195C70.6423 29.7261 71.1556 29.3328 71.8356 29.0395C72.5156 28.7461 73.3289 28.5994 74.2756 28.5994C75.2356 28.5994 76.0556 28.7728 76.7356 29.1195C77.4156 29.4528 77.9289 29.8795 78.2756 30.3995C78.6223 30.9061 78.7956 31.4061 78.7956 31.8995H75.8756C75.8756 31.6328 75.7289 31.3995 75.4356 31.1995C75.1556 30.9995 74.7689 30.8995 74.2756 30.8995C73.7956 30.8995 73.4223 30.9928 73.1556 31.1795C72.9023 31.3528 72.7756 31.5595 72.7756 31.7995C72.7756 32.1861 73.1623 32.4395 73.9356 32.5595L75.5356 32.7995C77.8156 33.1328 78.9556 34.1995 78.9556 35.9995C78.9556 36.5861 78.7823 37.1261 78.4356 37.6195C78.1023 38.0995 77.5889 38.4861 76.8956 38.7795C76.2156 39.0595 75.3756 39.1995 74.3756 39.1995ZM85.3387 42.9995V28.7994H87.9387L88.1387 29.7995H88.2387C88.4921 29.4528 88.8721 29.1661 89.3787 28.9395C89.8987 28.7128 90.4921 28.5994 91.1587 28.5994C92.0254 28.5994 92.8187 28.8261 93.5387 29.2795C94.2587 29.7195 94.8321 30.3461 95.2587 31.1595C95.6854 31.9595 95.8987 32.8728 95.8987 33.8995C95.8987 34.9261 95.6854 35.8461 95.2587 36.6595C94.8321 37.4595 94.2587 38.0861 93.5387 38.5395C92.8187 38.9795 92.0254 39.1995 91.1587 39.1995C90.5321 39.1995 89.9721 39.0928 89.4787 38.8795C88.9987 38.6661 88.6587 38.4328 88.4587 38.1795H88.3587V42.9995H85.3387ZM90.6187 36.4195C91.2721 36.4195 91.8121 36.1928 92.2387 35.7395C92.6654 35.2728 92.8787 34.6595 92.8787 33.8995C92.8787 33.1395 92.6654 32.5328 92.2387 32.0795C91.8121 31.6261 91.2721 31.3995 90.6187 31.3995C89.9654 31.3995 89.4254 31.6261 88.9987 32.0795C88.5721 32.5328 88.3587 33.1395 88.3587 33.8995C88.3587 34.6595 88.5721 35.2728 88.9987 35.7395C89.4254 36.1928 89.9654 36.4195 90.6187 36.4195ZM100.64 39.1995C99.8797 39.1995 99.213 39.0595 98.6397 38.7795C98.0797 38.4995 97.6463 38.1261 97.3397 37.6595C97.0463 37.1795 96.8997 36.6461 96.8997 36.0595C96.8997 35.0461 97.2597 34.2328 97.9797 33.6195C98.6997 33.0061 99.7397 32.6995 101.1 32.6995H103.34V32.5195C103.34 32.0795 103.193 31.7195 102.9 31.4395C102.62 31.1461 102.253 30.9995 101.8 30.9995C101.386 30.9995 101.06 31.0928 100.82 31.2795C100.58 31.4528 100.406 31.6595 100.3 31.8995H97.3397C97.4063 31.3395 97.6197 30.8061 97.9797 30.2995C98.353 29.7928 98.8597 29.3861 99.4997 29.0795C100.153 28.7594 100.92 28.5994 101.8 28.5994C102.72 28.5994 103.52 28.7728 104.2 29.1195C104.893 29.4661 105.426 29.9395 105.8 30.5395C106.173 31.1261 106.36 31.7861 106.36 32.5195V38.9995H103.74L103.54 38.1195H103.44C103.213 38.3995 102.846 38.6528 102.34 38.8795C101.846 39.0928 101.28 39.1995 100.64 39.1995ZM101.3 36.8595C101.94 36.8595 102.44 36.6861 102.8 36.3395C103.16 35.9928 103.34 35.5261 103.34 34.9395V34.6995H101.5C100.98 34.6995 100.586 34.7995 100.32 34.9995C100.066 35.1861 99.9397 35.4461 99.9397 35.7795C99.9397 36.1128 100.053 36.3795 100.28 36.5795C100.52 36.7661 100.86 36.8595 101.3 36.8595ZM108.269 38.9995V28.7994H110.869L111.069 29.5995H111.169C111.316 29.3861 111.549 29.1995 111.869 29.0395C112.189 28.8794 112.556 28.7994 112.969 28.7994H114.909V31.6595H113.109C111.896 31.6595 111.289 32.2795 111.289 33.5195V38.9995H108.269ZM119.874 38.9995C118.901 38.9995 118.161 38.7595 117.654 38.2795C117.148 37.7995 116.894 37.1128 116.894 36.2195V31.6595H115.294V28.7994H116.894V25.6394H119.914V28.7994H122.214V31.6595H119.914V35.5795C119.914 35.8328 119.968 36.0128 120.074 36.1195C120.181 36.2261 120.361 36.2795 120.614 36.2795H122.214V38.9995H119.874ZM126.935 38.9995H123.915V28.7994H126.935V38.9995ZM127.015 27.3194H123.855V24.6995H127.015V27.3194ZM133.804 39.1995C132.791 39.1995 131.878 38.9728 131.064 38.5195C130.251 38.0528 129.611 37.4195 129.144 36.6195C128.678 35.8061 128.444 34.8995 128.444 33.8995C128.444 32.8995 128.678 31.9995 129.144 31.1995C129.611 30.3861 130.251 29.7528 131.064 29.2995C131.878 28.8328 132.791 28.5994 133.804 28.5994C134.791 28.5994 135.644 28.8061 136.364 29.2195C137.084 29.6328 137.651 30.1595 138.064 30.7995C138.478 31.4261 138.744 32.0861 138.864 32.7795H135.804C135.684 32.4061 135.464 32.0861 135.144 31.8195C134.824 31.5395 134.378 31.3995 133.804 31.3995C133.151 31.3995 132.598 31.6328 132.144 32.0995C131.704 32.5661 131.484 33.1661 131.484 33.8995C131.484 34.6328 131.704 35.2395 132.144 35.7195C132.598 36.1861 133.151 36.4195 133.804 36.4195C134.378 36.4195 134.824 36.2795 135.144 35.9995C135.464 35.7195 135.684 35.3795 135.804 34.9795H138.864C138.744 35.6861 138.478 36.3595 138.064 36.9995C137.651 37.6395 137.084 38.1661 136.364 38.5795C135.658 38.9928 134.804 39.1995 133.804 39.1995ZM144.263 39.1995C143.49 39.1995 142.796 39.0261 142.183 38.6795C141.583 38.3328 141.11 37.8395 140.763 37.1995C140.43 36.5461 140.263 35.7928 140.263 34.9395V28.7994H143.283V34.4395C143.283 34.9995 143.45 35.4595 143.783 35.8195C144.13 36.1661 144.583 36.3395 145.143 36.3395C145.703 36.3395 146.15 36.1661 146.483 35.8195C146.83 35.4595 147.003 34.9995 147.003 34.4395V28.7994H150.023V38.9995H147.423L147.223 38.0995H147.123C146.856 38.4061 146.47 38.6661 145.963 38.8795C145.456 39.0928 144.89 39.1995 144.263 39.1995ZM155.151 38.9995H152.131V24.9994H155.151V38.9995ZM160.496 39.1995C159.736 39.1995 159.069 39.0595 158.496 38.7795C157.936 38.4995 157.503 38.1261 157.196 37.6595C156.903 37.1795 156.756 36.6461 156.756 36.0595C156.756 35.0461 157.116 34.2328 157.836 33.6195C158.556 33.0061 159.596 32.6995 160.956 32.6995H163.196V32.5195C163.196 32.0795 163.049 31.7195 162.756 31.4395C162.476 31.1461 162.109 30.9995 161.656 30.9995C161.243 30.9995 160.916 31.0928 160.676 31.2795C160.436 31.4528 160.263 31.6595 160.156 31.8995H157.196C157.263 31.3395 157.476 30.8061 157.836 30.2995C158.209 29.7928 158.716 29.3861 159.356 29.0795C160.009 28.7594 160.776 28.5994 161.656 28.5994C162.576 28.5994 163.376 28.7728 164.056 29.1195C164.749 29.4661 165.283 29.9395 165.656 30.5395C166.029 31.1261 166.216 31.7861 166.216 32.5195V38.9995H163.596L163.396 38.1195H163.296C163.069 38.3995 162.703 38.6528 162.196 38.8795C161.703 39.0928 161.136 39.1995 160.496 39.1995ZM161.156 36.8595C161.796 36.8595 162.296 36.6861 162.656 36.3395C163.016 35.9928 163.196 35.5261 163.196 34.9395V34.6995H161.356C160.836 34.6995 160.443 34.7995 160.176 34.9995C159.923 35.1861 159.796 35.4461 159.796 35.7795C159.796 36.1128 159.909 36.3795 160.136 36.5795C160.376 36.7661 160.716 36.8595 161.156 36.8595ZM168.125 38.9995V28.7994H170.725L170.925 29.5995H171.025C171.172 29.3861 171.405 29.1995 171.725 29.0395C172.045 28.8794 172.412 28.7994 172.825 28.7994H174.765V31.6595H172.965C171.752 31.6595 171.145 32.2795 171.145 33.5195V38.9995H168.125ZM180.515 39.1995C179.502 39.1995 178.588 38.9728 177.775 38.5195C176.962 38.0528 176.322 37.4195 175.855 36.6195C175.388 35.8061 175.155 34.8995 175.155 33.8995C175.155 32.8995 175.388 31.9995 175.855 31.1995C176.322 30.3861 176.962 29.7528 177.775 29.2995C178.588 28.8328 179.502 28.5994 180.515 28.5994C181.475 28.5994 182.348 28.8261 183.135 29.2795C183.935 29.7328 184.562 30.3595 185.015 31.1595C185.468 31.9461 185.695 32.8195 185.695 33.7795C185.695 34.1395 185.662 34.4728 185.595 34.7795H178.155C178.235 35.3395 178.495 35.8128 178.935 36.1995C179.375 36.5728 179.902 36.7595 180.515 36.7595C180.968 36.7595 181.355 36.6728 181.675 36.4995C181.995 36.3261 182.235 36.1461 182.395 35.9595H185.435C185.302 36.4128 185.035 36.8861 184.635 37.3795C184.235 37.8728 183.682 38.2995 182.975 38.6595C182.282 39.0195 181.462 39.1995 180.515 39.1995ZM182.715 32.9595C182.635 32.3995 182.395 31.9328 181.995 31.5595C181.595 31.1861 181.102 30.9995 180.515 30.9995C179.888 30.9995 179.368 31.1861 178.955 31.5595C178.542 31.9328 178.275 32.3995 178.155 32.9595H182.715ZM191.129 39.1995C190.022 39.1995 189.122 39.0128 188.429 38.6395C187.735 38.2528 187.235 37.7995 186.929 37.2795C186.635 36.7595 186.489 36.2728 186.489 35.8195H189.429C189.429 36.0995 189.569 36.3528 189.849 36.5795C190.142 36.7928 190.569 36.8995 191.129 36.8995C191.675 36.8995 192.075 36.8195 192.329 36.6595C192.595 36.4861 192.729 36.2795 192.729 36.0395C192.729 35.7861 192.642 35.5861 192.469 35.4395C192.295 35.2928 191.989 35.1861 191.549 35.1195L190.029 34.8795C187.695 34.5195 186.529 33.5061 186.529 31.8395C186.529 31.2528 186.702 30.7128 187.049 30.2195C187.395 29.7261 187.909 29.3328 188.589 29.0395C189.269 28.7461 190.082 28.5994 191.029 28.5994C191.989 28.5994 192.809 28.7728 193.489 29.1195C194.169 29.4528 194.682 29.8795 195.029 30.3995C195.375 30.9061 195.549 31.4061 195.549 31.8995H192.629C192.629 31.6328 192.482 31.3995 192.189 31.1995C191.909 30.9995 191.522 30.8995 191.029 30.8995C190.549 30.8995 190.175 30.9928 189.909 31.1795C189.655 31.3528 189.529 31.5595 189.529 31.7995C189.529 32.1861 189.915 32.4395 190.689 32.5595L192.289 32.7995C194.569 33.1328 195.709 34.1995 195.709 35.9995C195.709 36.5861 195.535 37.1261 195.189 37.6195C194.855 38.0995 194.342 38.4861 193.649 38.7795C192.969 39.0595 192.129 39.1995 191.129 39.1995ZM206.932 39.1995C205.919 39.1995 205.005 38.9728 204.192 38.5195C203.379 38.0528 202.739 37.4195 202.272 36.6195C201.819 35.8061 201.592 34.8995 201.592 33.8995C201.592 32.8995 201.819 31.9995 202.272 31.1995C202.739 30.3861 203.379 29.7528 204.192 29.2995C205.005 28.8328 205.919 28.5994 206.932 28.5994C207.945 28.5994 208.859 28.8328 209.672 29.2995C210.485 29.7528 211.119 30.3861 211.572 31.1995C212.039 31.9995 212.272 32.8995 212.272 33.8995C212.272 34.8995 212.039 35.8061 211.572 36.6195C211.119 37.4195 210.485 38.0528 209.672 38.5195C208.859 38.9728 207.945 39.1995 206.932 39.1995ZM206.932 36.3995C207.585 36.3995 208.132 36.1661 208.572 35.6995C209.025 35.2328 209.252 34.6328 209.252 33.8995C209.252 33.1661 209.025 32.5661 208.572 32.0995C208.132 31.6328 207.585 31.3995 206.932 31.3995C206.279 31.3995 205.725 31.6328 205.272 32.0995C204.832 32.5661 204.612 33.1661 204.612 33.8995C204.612 34.6328 204.832 35.2328 205.272 35.6995C205.725 36.1661 206.279 36.3995 206.932 36.3995ZM217.762 39.1995C216.989 39.1995 216.295 39.0261 215.682 38.6795C215.082 38.3328 214.609 37.8395 214.262 37.1995C213.929 36.5461 213.762 35.7928 213.762 34.9395V28.7994H216.782V34.4395C216.782 34.9995 216.949 35.4595 217.282 35.8195C217.629 36.1661 218.082 36.3395 218.642 36.3395C219.202 36.3395 219.649 36.1661 219.982 35.8195C220.329 35.4595 220.502 34.9995 220.502 34.4395V28.7994H223.522V38.9995H220.922L220.722 38.0995H220.622C220.355 38.4061 219.969 38.6661 219.462 38.8795C218.955 39.0928 218.389 39.1995 217.762 39.1995ZM87.6503 63.1995C86.637 63.1995 85.7236 62.9728 84.9103 62.5195C84.097 62.0528 83.457 61.4195 82.9903 60.6195C82.5236 59.8061 82.2903 58.8995 82.2903 57.8995C82.2903 56.8995 82.5236 55.9995 82.9903 55.1995C83.457 54.3861 84.097 53.7528 84.9103 53.2995C85.7236 52.8328 86.637 52.5994 87.6503 52.5994C88.6103 52.5994 89.4836 52.8261 90.2703 53.2795C91.0703 53.7328 91.697 54.3595 92.1503 55.1595C92.6036 55.9461 92.8303 56.8195 92.8303 57.7795C92.8303 58.1395 92.797 58.4728 92.7303 58.7795H85.2903C85.3703 59.3395 85.6303 59.8128 86.0703 60.1995C86.5103 60.5728 87.037 60.7595 87.6503 60.7595C88.1036 60.7595 88.4903 60.6728 88.8103 60.4995C89.1303 60.3261 89.3703 60.1461 89.5303 59.9595H92.5703C92.437 60.4128 92.1703 60.8861 91.7703 61.3795C91.3703 61.8728 90.817 62.2995 90.1103 62.6595C89.417 63.0195 88.597 63.1995 87.6503 63.1995ZM89.8503 56.9595C89.7703 56.3995 89.5303 55.9328 89.1303 55.5595C88.7303 55.1861 88.237 54.9995 87.6503 54.9995C87.0236 54.9995 86.5036 55.1861 86.0903 55.5595C85.677 55.9328 85.4103 56.3995 85.2903 56.9595H89.8503ZM94.3239 62.9995V52.7994H96.9239L97.1239 53.6995H97.2239C97.4239 53.4195 97.7439 53.1661 98.1839 52.9395C98.6239 52.7128 99.1105 52.5994 99.6439 52.5994C100.311 52.5994 100.884 52.7461 101.364 53.0395C101.857 53.3328 102.211 53.6528 102.424 53.9995H102.524C102.777 53.6261 103.171 53.2995 103.704 53.0195C104.251 52.7395 104.877 52.5994 105.584 52.5994C106.291 52.5994 106.931 52.7794 107.504 53.1395C108.091 53.4995 108.551 53.9928 108.884 54.6195C109.217 55.2461 109.384 55.9528 109.384 56.7395V62.9995H106.364V57.1795C106.364 56.6328 106.231 56.2128 105.964 55.9195C105.711 55.6261 105.364 55.4795 104.924 55.4795C104.471 55.4795 104.097 55.6395 103.804 55.9595C103.511 56.2795 103.364 56.6861 103.364 57.1795V62.9995H100.344V57.1795C100.344 56.6328 100.211 56.2128 99.9439 55.9195C99.6905 55.6261 99.3439 55.4795 98.9039 55.4795C98.4505 55.4795 98.0772 55.6395 97.7839 55.9595C97.4905 56.2661 97.3439 56.6728 97.3439 57.1795V62.9995H94.3239ZM120.998 67.1995C119.838 67.1995 118.884 66.9795 118.138 66.5395C117.404 66.1128 116.871 65.5995 116.538 64.9995C116.204 64.3995 116.031 63.8395 116.018 63.3195H119.098C119.164 63.6395 119.351 63.9328 119.658 64.1995C119.964 64.4661 120.411 64.5995 120.998 64.5995C121.624 64.5995 122.124 64.4128 122.498 64.0395C122.871 63.6795 123.058 63.1928 123.058 62.5795V61.3795H122.958C122.744 61.6195 122.404 61.8395 121.938 62.0395C121.471 62.2261 120.951 62.3195 120.378 62.3195C119.511 62.3195 118.724 62.1128 118.018 61.6995C117.324 61.2861 116.778 60.7128 116.378 59.9795C115.978 59.2328 115.778 58.3928 115.778 57.4595C115.778 56.5261 115.978 55.6928 116.378 54.9595C116.778 54.2128 117.324 53.6328 118.018 53.2195C118.724 52.8061 119.511 52.5994 120.378 52.5994C121.578 52.5994 122.511 52.9995 123.178 53.7995H123.278L123.478 52.7994H126.078V62.5995C126.078 63.9995 125.624 65.1128 124.718 65.9395C123.824 66.7795 122.584 67.1995 120.998 67.1995ZM120.938 59.6795C121.538 59.6795 122.038 59.4728 122.438 59.0595C122.851 58.6328 123.058 58.0995 123.058 57.4595C123.058 56.8195 122.851 56.2928 122.438 55.8795C122.038 55.4661 121.538 55.2595 120.938 55.2595C120.338 55.2595 119.831 55.4661 119.418 55.8795C119.018 56.2928 118.818 56.8195 118.818 57.4595C118.818 58.0995 119.018 58.6328 119.418 59.0595C119.831 59.4728 120.338 59.6795 120.938 59.6795ZM128.085 62.9995V52.7994H130.685L130.885 53.5995H130.985C131.131 53.3861 131.365 53.1995 131.685 53.0395C132.005 52.8794 132.371 52.7994 132.785 52.7994H134.725V55.6595H132.925C131.711 55.6595 131.105 56.2795 131.105 57.5195V62.9995H128.085ZM139.81 63.1995C139.036 63.1995 138.343 63.0261 137.73 62.6795C137.13 62.3328 136.656 61.8395 136.31 61.1995C135.976 60.5461 135.81 59.7928 135.81 58.9395V52.7994H138.83V58.4395C138.83 58.9995 138.996 59.4595 139.33 59.8195C139.676 60.1661 140.13 60.3395 140.69 60.3395C141.25 60.3395 141.696 60.1661 142.03 59.8195C142.376 59.4595 142.55 58.9995 142.55 58.4395V52.7994H145.57V62.9995H142.97L142.77 62.0995H142.67C142.403 62.4061 142.016 62.6661 141.51 62.8795C141.003 63.0928 140.436 63.1995 139.81 63.1995ZM147.578 66.9995V52.7994H150.178L150.378 53.7995H150.478C150.731 53.4528 151.111 53.1661 151.618 52.9395C152.138 52.7128 152.731 52.5994 153.398 52.5994C154.264 52.5994 155.058 52.8261 155.778 53.2795C156.498 53.7195 157.071 54.3461 157.498 55.1595C157.924 55.9595 158.138 56.8728 158.138 57.8995C158.138 58.9261 157.924 59.8461 157.498 60.6595C157.071 61.4595 156.498 62.0861 155.778 62.5395C155.058 62.9795 154.264 63.1995 153.398 63.1995C152.771 63.1995 152.211 63.0928 151.718 62.8795C151.238 62.6661 150.898 62.4328 150.698 62.1795H150.598V66.9995H147.578ZM152.858 60.4195C153.511 60.4195 154.051 60.1928 154.478 59.7395C154.904 59.2728 155.118 58.6595 155.118 57.8995C155.118 57.1395 154.904 56.5328 154.478 56.0795C154.051 55.6261 153.511 55.3995 152.858 55.3995C152.204 55.3995 151.664 55.6261 151.238 56.0795C150.811 56.5328 150.598 57.1395 150.598 57.8995C150.598 58.6595 150.811 59.2728 151.238 59.7395C151.664 60.1928 152.204 60.4195 152.858 60.4195ZM164.479 63.1995C163.465 63.1995 162.552 62.9728 161.739 62.5195C160.925 62.0528 160.285 61.4195 159.819 60.6195C159.365 59.8061 159.139 58.8995 159.139 57.8995C159.139 56.8995 159.365 55.9995 159.819 55.1995C160.285 54.3861 160.925 53.7528 161.739 53.2995C162.552 52.8328 163.465 52.5994 164.479 52.5994C165.492 52.5994 166.405 52.8328 167.219 53.2995C168.032 53.7528 168.665 54.3861 169.119 55.1995C169.585 55.9995 169.819 56.8995 169.819 57.8995C169.819 58.8995 169.585 59.8061 169.119 60.6195C168.665 61.4195 168.032 62.0528 167.219 62.5195C166.405 62.9728 165.492 63.1995 164.479 63.1995ZM164.479 60.3995C165.132 60.3995 165.679 60.1661 166.119 59.6995C166.572 59.2328 166.799 58.6328 166.799 57.8995C166.799 57.1661 166.572 56.5661 166.119 56.0995C165.679 55.6328 165.132 55.3995 164.479 55.3995C163.825 55.3995 163.272 55.6328 162.819 56.0995C162.379 56.5661 162.159 57.1661 162.159 57.8995C162.159 58.6328 162.379 59.2328 162.819 59.6995C163.272 60.1661 163.825 60.3995 164.479 60.3995Z" fill="#EFF7FB"/>
<path opacity="0.5" d="M153 126.624V123.321C153 119.373 153 117.398 151.845 116.115C151.739 115.997 151.627 115.884 151.509 115.778C150.227 114.624 148.251 114.624 144.303 114.624H143.742C142.013 114.624 141.147 114.624 140.34 114.395C139.897 114.268 139.47 114.091 139.068 113.867C138.336 113.46 137.724 112.847 136.5 111.624L135.675 110.799C135.264 110.388 135.06 110.184 134.844 110.004C133.915 109.234 132.775 108.762 131.574 108.65C131.295 108.624 131.004 108.624 130.425 108.624C129.1 108.624 128.439 108.624 127.887 108.729C126.702 108.953 125.611 109.529 124.758 110.382C123.905 111.235 123.329 112.325 123.105 113.51C123 114.063 123 114.726 123 116.049V126.624C123 132.281 123 135.11 124.758 136.866C126.514 138.624 129.344 138.624 135 138.624H141C146.656 138.624 149.485 138.624 151.242 136.866C153 135.11 153 132.281 153 126.624Z" fill="white" fill-opacity="0.44"/>
<path d="M138 122.499C138.298 122.499 138.585 122.618 138.795 122.829C139.006 123.04 139.125 123.326 139.125 123.624V125.499H141C141.298 125.499 141.585 125.618 141.795 125.829C142.006 126.04 142.125 126.326 142.125 126.624C142.125 126.923 142.006 127.209 141.795 127.42C141.585 127.631 141.298 127.749 141 127.749H139.125V129.624C139.125 129.923 139.006 130.209 138.795 130.42C138.585 130.631 138.298 130.749 138 130.749C137.702 130.749 137.415 130.631 137.205 130.42C136.994 130.209 136.875 129.923 136.875 129.624V127.749H135C134.702 127.749 134.415 127.631 134.205 127.42C133.994 127.209 133.875 126.923 133.875 126.624C133.875 126.326 133.994 126.04 134.205 125.829C134.415 125.618 134.702 125.499 135 125.499H136.875V123.624C136.875 123.326 136.994 123.04 137.205 122.829C137.415 122.618 137.702 122.499 138 122.499Z" fill="white" fill-opacity="0.44"/>
<path fill-rule="evenodd" clip-rule="evenodd" d="M6.10352e-05 -0.000488281L138 -0.000488281L276 -0.000488281L138 238L69.4418 119.283L6.10352e-05 -0.000488281Z" fill="white" fill-opacity="0.04"/>
<path d="M0.869696 0.499512L138 0.499512L275.132 0.499512L138.001 237.001L69.8747 119.033L69.8739 119.031L0.869696 0.499512Z" stroke="#DFEFF7" stroke-opacity="0.2"/>
</svg>
