<svg width="276" height="238" viewBox="0 0 276 238" fill="none" xmlns="http://www.w3.org/2000/svg">
<path d="M95.4589 41.9995H92.2589V31.0995H88.3589V27.9994H99.3589V31.0995H95.4589V41.9995ZM103.814 42.1995C102.801 42.1995 101.888 41.9728 101.074 41.5195C100.261 41.0528 99.6208 40.4195 99.1542 39.6195C98.6875 38.8061 98.4542 37.8995 98.4542 36.8995C98.4542 35.8995 98.6875 34.9995 99.1542 34.1995C99.6208 33.3861 100.261 32.7528 101.074 32.2995C101.888 31.8328 102.801 31.5994 103.814 31.5994C104.774 31.5994 105.648 31.8261 106.434 32.2795C107.234 32.7328 107.861 33.3595 108.314 34.1595C108.768 34.9461 108.994 35.8195 108.994 36.7795C108.994 37.1395 108.961 37.4728 108.894 37.7795H101.454C101.534 38.3395 101.794 38.8128 102.234 39.1995C102.674 39.5728 103.201 39.7595 103.814 39.7595C104.268 39.7595 104.654 39.6728 104.974 39.4995C105.294 39.3261 105.534 39.1461 105.694 38.9595H108.734C108.601 39.4128 108.334 39.8861 107.934 40.3795C107.534 40.8728 106.981 41.2995 106.274 41.6595C105.581 42.0195 104.761 42.1995 103.814 42.1995ZM106.014 35.9595C105.934 35.3995 105.694 34.9328 105.294 34.5595C104.894 34.1861 104.401 33.9995 103.814 33.9995C103.188 33.9995 102.668 34.1861 102.254 34.5595C101.841 34.9328 101.574 35.3995 101.454 35.9595H106.014ZM115.348 42.1995C114.334 42.1995 113.421 41.9728 112.608 41.5195C111.794 41.0528 111.154 40.4195 110.688 39.6195C110.221 38.8061 109.988 37.8995 109.988 36.8995C109.988 35.8995 110.221 34.9995 110.688 34.1995C111.154 33.3861 111.794 32.7528 112.608 32.2995C113.421 31.8328 114.334 31.5994 115.348 31.5994C116.334 31.5994 117.188 31.8061 117.908 32.2195C118.628 32.6328 119.194 33.1595 119.608 33.7995C120.021 34.4261 120.288 35.0861 120.408 35.7795H117.348C117.228 35.4061 117.008 35.0861 116.688 34.8195C116.368 34.5395 115.921 34.3995 115.348 34.3995C114.694 34.3995 114.141 34.6328 113.688 35.0995C113.248 35.5661 113.028 36.1661 113.028 36.8995C113.028 37.6328 113.248 38.2395 113.688 38.7195C114.141 39.1861 114.694 39.4195 115.348 39.4195C115.921 39.4195 116.368 39.2795 116.688 38.9995C117.008 38.7195 117.228 38.3795 117.348 37.9795H120.408C120.288 38.6861 120.021 39.3595 119.608 39.9995C119.194 40.6395 118.628 41.1661 117.908 41.5795C117.201 41.9928 116.348 42.1995 115.348 42.1995ZM121.807 41.9995V31.7994H124.407L124.607 32.6995H124.707C124.947 32.4195 125.307 32.1661 125.787 31.9395C126.28 31.7128 126.873 31.5994 127.567 31.5994C128.34 31.5994 129.027 31.7794 129.627 32.1395C130.24 32.4861 130.713 32.9861 131.047 33.6395C131.393 34.2795 131.567 35.0261 131.567 35.8795V41.9995H128.547V36.3795C128.547 35.8195 128.373 35.3661 128.027 35.0195C127.693 34.6595 127.247 34.4795 126.687 34.4795C126.127 34.4795 125.673 34.6595 125.327 35.0195C124.993 35.3661 124.827 35.8195 124.827 36.3795V41.9995H121.807ZM138.297 42.1995C137.284 42.1995 136.371 41.9728 135.557 41.5195C134.744 41.0528 134.104 40.4195 133.637 39.6195C133.184 38.8061 132.957 37.8995 132.957 36.8995C132.957 35.8995 133.184 34.9995 133.637 34.1995C134.104 33.3861 134.744 32.7528 135.557 32.2995C136.371 31.8328 137.284 31.5994 138.297 31.5994C139.311 31.5994 140.224 31.8328 141.037 32.2995C141.851 32.7528 142.484 33.3861 142.937 34.1995C143.404 34.9995 143.637 35.8995 143.637 36.8995C143.637 37.8995 143.404 38.8061 142.937 39.6195C142.484 40.4195 141.851 41.0528 141.037 41.5195C140.224 41.9728 139.311 42.1995 138.297 42.1995ZM138.297 39.3995C138.951 39.3995 139.497 39.1661 139.937 38.6995C140.391 38.2328 140.617 37.6328 140.617 36.8995C140.617 36.1661 140.391 35.5661 139.937 35.0995C139.497 34.6328 138.951 34.3995 138.297 34.3995C137.644 34.3995 137.091 34.6328 136.637 35.0995C136.197 35.5661 135.977 36.1661 135.977 36.8995C135.977 37.6328 136.197 38.2328 136.637 38.6995C137.091 39.1661 137.644 39.3995 138.297 39.3995ZM148.248 41.9995H145.228V27.9994H148.248V41.9995ZM155.193 42.1995C154.179 42.1995 153.266 41.9728 152.453 41.5195C151.639 41.0528 150.999 40.4195 150.533 39.6195C150.079 38.8061 149.853 37.8995 149.853 36.8995C149.853 35.8995 150.079 34.9995 150.533 34.1995C150.999 33.3861 151.639 32.7528 152.453 32.2995C153.266 31.8328 154.179 31.5994 155.193 31.5994C156.206 31.5994 157.119 31.8328 157.933 32.2995C158.746 32.7528 159.379 33.3861 159.833 34.1995C160.299 34.9995 160.533 35.8995 160.533 36.8995C160.533 37.8995 160.299 38.8061 159.833 39.6195C159.379 40.4195 158.746 41.0528 157.933 41.5195C157.119 41.9728 156.206 42.1995 155.193 42.1995ZM155.193 39.3995C155.846 39.3995 156.393 39.1661 156.833 38.6995C157.286 38.2328 157.513 37.6328 157.513 36.8995C157.513 36.1661 157.286 35.5661 156.833 35.0995C156.393 34.6328 155.846 34.3995 155.193 34.3995C154.539 34.3995 153.986 34.6328 153.533 35.0995C153.093 35.5661 152.873 36.1661 152.873 36.8995C152.873 37.6328 153.093 38.2328 153.533 38.6995C153.986 39.1661 154.539 39.3995 155.193 39.3995ZM166.743 46.1995C165.583 46.1995 164.63 45.9795 163.883 45.5395C163.15 45.1128 162.616 44.5995 162.283 43.9995C161.95 43.3995 161.776 42.8395 161.763 42.3195H164.843C164.91 42.6395 165.096 42.9328 165.403 43.1995C165.71 43.4661 166.156 43.5995 166.743 43.5995C167.37 43.5995 167.87 43.4128 168.243 43.0395C168.616 42.6795 168.803 42.1928 168.803 41.5795V40.3795H168.703C168.49 40.6195 168.15 40.8395 167.683 41.0395C167.216 41.2261 166.696 41.3195 166.123 41.3195C165.256 41.3195 164.47 41.1128 163.763 40.6995C163.07 40.2861 162.523 39.7128 162.123 38.9795C161.723 38.2328 161.523 37.3928 161.523 36.4595C161.523 35.5261 161.723 34.6928 162.123 33.9595C162.523 33.2128 163.07 32.6328 163.763 32.2195C164.47 31.8061 165.256 31.5994 166.123 31.5994C167.323 31.5994 168.256 31.9995 168.923 32.7995H169.023L169.223 31.7994H171.823V41.5995C171.823 42.9995 171.37 44.1128 170.463 44.9395C169.57 45.7795 168.33 46.1995 166.743 46.1995ZM166.683 38.6795C167.283 38.6795 167.783 38.4728 168.183 38.0595C168.596 37.6328 168.803 37.0995 168.803 36.4595C168.803 35.8195 168.596 35.2928 168.183 34.8795C167.783 34.4661 167.283 34.2595 166.683 34.2595C166.083 34.2595 165.576 34.4661 165.163 34.8795C164.763 35.2928 164.563 35.8195 164.563 36.4595C164.563 37.0995 164.763 37.6328 165.163 38.0595C165.576 38.4728 166.083 38.6795 166.683 38.6795ZM176.85 41.9995H173.83V31.7994H176.85V41.9995ZM176.93 30.3194H173.77V27.6995H176.93V30.3194ZM182.1 42.1995C181.34 42.1995 180.673 42.0595 180.1 41.7795C179.54 41.4995 179.106 41.1261 178.8 40.6595C178.506 40.1795 178.36 39.6461 178.36 39.0595C178.36 38.0461 178.72 37.2328 179.44 36.6195C180.16 36.0061 181.2 35.6995 182.56 35.6995H184.8V35.5195C184.8 35.0795 184.653 34.7195 184.36 34.4395C184.08 34.1461 183.713 33.9995 183.26 33.9995C182.846 33.9995 182.52 34.0928 182.28 34.2795C182.04 34.4528 181.866 34.6595 181.76 34.8995H178.8C178.866 34.3395 179.08 33.8061 179.44 33.2995C179.813 32.7928 180.32 32.3861 180.96 32.0795C181.613 31.7594 182.38 31.5994 183.26 31.5994C184.18 31.5994 184.98 31.7728 185.66 32.1195C186.353 32.4661 186.886 32.9395 187.26 33.5395C187.633 34.1261 187.82 34.7861 187.82 35.5195V41.9995H185.2L185 41.1195H184.9C184.673 41.3995 184.306 41.6528 183.8 41.8795C183.306 42.0928 182.74 42.1995 182.1 42.1995ZM182.76 39.8595C183.4 39.8595 183.9 39.6861 184.26 39.3395C184.62 38.9928 184.8 38.5261 184.8 37.9395V37.6995H182.96C182.44 37.6995 182.046 37.7995 181.78 37.9995C181.526 38.1861 181.4 38.4461 181.4 38.7795C181.4 39.1128 181.513 39.3795 181.74 39.5795C181.98 39.7661 182.32 39.8595 182.76 39.8595ZM193.669 42.1995C192.563 42.1995 191.663 42.0128 190.969 41.6395C190.276 41.2528 189.776 40.7995 189.469 40.2795C189.176 39.7595 189.029 39.2728 189.029 38.8195H191.969C191.969 39.0995 192.109 39.3528 192.389 39.5795C192.683 39.7928 193.109 39.8995 193.669 39.8995C194.216 39.8995 194.616 39.8195 194.869 39.6595C195.136 39.4861 195.269 39.2795 195.269 39.0395C195.269 38.7861 195.183 38.5861 195.009 38.4395C194.836 38.2928 194.529 38.1861 194.089 38.1195L192.569 37.8795C190.236 37.5195 189.069 36.5061 189.069 34.8395C189.069 34.2528 189.243 33.7128 189.589 33.2195C189.936 32.7261 190.449 32.3328 191.129 32.0395C191.809 31.7461 192.623 31.5994 193.569 31.5994C194.529 31.5994 195.349 31.7728 196.029 32.1195C196.709 32.4528 197.223 32.8795 197.569 33.3995C197.916 33.9061 198.089 34.4061 198.089 34.8995H195.169C195.169 34.6328 195.023 34.3995 194.729 34.1995C194.449 33.9995 194.063 33.8995 193.569 33.8995C193.089 33.8995 192.716 33.9928 192.449 34.1795C192.196 34.3528 192.069 34.5595 192.069 34.7995C192.069 35.1861 192.456 35.4395 193.229 35.5595L194.829 35.7995C197.109 36.1328 198.249 37.1995 198.249 38.9995C198.249 39.5861 198.076 40.1261 197.729 40.6195C197.396 41.0995 196.883 41.4861 196.189 41.7795C195.509 42.0595 194.669 42.1995 193.669 42.1995Z" fill="white"/>
<ellipse cx="137.5" cy="123.499" rx="35.5" ry="34.5" fill="white" fill-opacity="0.04"/>
<path d="M133.633 135.926C136.267 137.309 137.584 137.999 139 137.999V122.999L124.957 115.609C124.937 115.642 124.917 115.676 124.897 115.709C124 117.23 124 119.125 124 122.912V123.088C124 126.874 124 128.768 124.895 130.289C125.792 131.812 127.406 132.659 130.633 134.353L133.633 135.926Z" fill="white" fill-opacity="0.44"/>
<path opacity="0.7" d="M147.365 111.647L144.365 110.072C141.733 108.691 140.416 107.999 139 107.999C137.583 107.999 136.267 108.689 133.633 110.072L130.633 111.647C127.477 113.303 125.863 114.149 124.957 115.607L139 122.999L153.043 115.609C152.134 114.149 150.523 113.303 147.365 111.647Z" fill="white" fill-opacity="0.44"/>
<path opacity="0.5" d="M153.104 115.709C153.084 115.676 153.064 115.642 153.043 115.609L139 122.999V137.999C140.416 137.999 141.733 137.309 144.367 135.926L147.367 134.351C150.593 132.658 152.207 131.812 153.104 130.289C154 128.768 154 126.874 154 123.089V122.914C154 119.126 154 117.23 153.104 115.709Z" fill="white" fill-opacity="0.44"/>
<path fill-rule="evenodd" clip-rule="evenodd" d="M6.10352e-05 0L138 0L276 0L138 238L69.4418 119.283L6.10352e-05 0Z" fill="white" fill-opacity="0.04"/>
<path d="M0.869696 0.5L138 0.5L275.132 0.5L138.001 237.002L69.8747 119.033L69.8739 119.032L0.869696 0.5Z" stroke="#DFEFF7" stroke-opacity="0.2"/>
</svg>
