<svg width="276" height="238" viewBox="0 0 276 238" fill="none" xmlns="http://www.w3.org/2000/svg">
<ellipse cx="138.5" cy="127.5" rx="35.5" ry="34.5" fill="white" fill-opacity="0.04"/>
<path opacity="0.5" d="M139 113C146.069 113 149.605 113 151.802 115.196C152.938 116.333 153.487 117.827 153.752 119.984V125H124.246V119.984C124.51 117.827 125.057 116.333 126.194 115.196C128.392 113 131.927 113 138.998 113" fill="white" fill-opacity="0.44"/>
<path fill-rule="evenodd" clip-rule="evenodd" d="M124 131C124 126.8 124 124.7 124.817 123.095C125.536 121.683 126.684 120.536 128.095 119.817C129.7 119 131.8 119 136 119H142C146.2 119 148.3 119 149.905 119.817C151.316 120.536 152.463 121.683 153.182 123.095C154 124.7 154 126.8 154 131C154 135.2 154 137.3 153.182 138.905C152.463 140.316 151.316 141.463 149.905 142.182C148.3 143 146.2 143 142 143H136C131.8 143 129.7 143 128.095 142.182C126.684 141.463 125.536 140.316 124.817 138.905C124 137.3 124 135.2 124 131ZM140.125 126.5C140.125 126.201 140.006 125.915 139.795 125.704C139.584 125.493 139.298 125.375 139 125.375C138.702 125.375 138.415 125.493 138.204 125.704C137.993 125.915 137.875 126.201 137.875 126.5V132.785L136.045 130.955C135.942 130.844 135.818 130.755 135.68 130.694C135.542 130.632 135.393 130.599 135.242 130.597C135.091 130.594 134.941 130.622 134.8 130.678C134.66 130.735 134.533 130.819 134.426 130.926C134.319 131.033 134.235 131.16 134.179 131.3C134.122 131.44 134.094 131.59 134.097 131.741C134.1 131.892 134.133 132.041 134.194 132.179C134.256 132.317 134.344 132.442 134.455 132.545L138.205 136.295C138.416 136.505 138.702 136.624 139 136.624C139.298 136.624 139.584 136.505 139.795 136.295L143.545 132.545C143.655 132.442 143.744 132.317 143.806 132.179C143.867 132.041 143.9 131.892 143.903 131.741C143.905 131.59 143.878 131.44 143.821 131.3C143.764 131.16 143.68 131.033 143.573 130.926C143.467 130.819 143.339 130.735 143.199 130.678C143.059 130.622 142.909 130.594 142.758 130.597C142.607 130.599 142.458 130.632 142.32 130.694C142.182 130.755 142.058 130.844 141.955 130.955L140.125 132.785V126.5Z" fill="white" fill-opacity="0.44"/>
<path d="M103.631 44.9995H100.431V34.0995H96.5306V30.9995H107.531V34.0995H103.631V44.9995ZM107.536 44.9995V34.7995H110.136L110.336 35.5995H110.436C110.583 35.3862 110.816 35.1995 111.136 35.0395C111.456 34.8795 111.823 34.7995 112.236 34.7995H114.176V37.6595H112.376C111.163 37.6595 110.556 38.2795 110.556 39.5195V44.9995H107.536ZM119.926 45.1995C118.912 45.1995 117.999 44.9728 117.186 44.5195C116.372 44.0528 115.732 43.4195 115.266 42.6195C114.799 41.8062 114.566 40.8995 114.566 39.8995C114.566 38.8995 114.799 37.9995 115.266 37.1995C115.732 36.3862 116.372 35.7528 117.186 35.2995C117.999 34.8328 118.912 34.5995 119.926 34.5995C120.886 34.5995 121.759 34.8262 122.546 35.2795C123.346 35.7328 123.972 36.3595 124.426 37.1595C124.879 37.9462 125.106 38.8195 125.106 39.7795C125.106 40.1395 125.072 40.4728 125.006 40.7795H117.566C117.646 41.3395 117.906 41.8128 118.346 42.1995C118.786 42.5728 119.312 42.7595 119.926 42.7595C120.379 42.7595 120.766 42.6728 121.086 42.4995C121.406 42.3262 121.646 42.1462 121.806 41.9595H124.846C124.712 42.4128 124.446 42.8862 124.046 43.3795C123.646 43.8728 123.092 44.2995 122.386 44.6595C121.692 45.0195 120.872 45.1995 119.926 45.1995ZM122.126 38.9595C122.046 38.3995 121.806 37.9328 121.406 37.5595C121.006 37.1862 120.512 36.9995 119.926 36.9995C119.299 36.9995 118.779 37.1862 118.366 37.5595C117.952 37.9328 117.686 38.3995 117.566 38.9595H122.126ZM129.619 44.9995H126.599V34.7995H129.619V44.9995ZM129.699 33.3195H126.539V30.6995H129.699V33.3195ZM131.629 44.9995V34.7995H134.229L134.429 35.6995H134.529C134.769 35.4195 135.129 35.1662 135.609 34.9395C136.102 34.7128 136.696 34.5995 137.389 34.5995C138.162 34.5995 138.849 34.7795 139.449 35.1395C140.062 35.4862 140.536 35.9862 140.869 36.6395C141.216 37.2795 141.389 38.0262 141.389 38.8795V44.9995H138.369V39.3795C138.369 38.8195 138.196 38.3662 137.849 38.0195C137.516 37.6595 137.069 37.4795 136.509 37.4795C135.949 37.4795 135.496 37.6595 135.149 38.0195C134.816 38.3662 134.649 38.8195 134.649 39.3795V44.9995H131.629ZM148.12 45.1995C147.106 45.1995 146.193 44.9728 145.38 44.5195C144.566 44.0528 143.926 43.4195 143.46 42.6195C143.006 41.8062 142.78 40.8995 142.78 39.8995C142.78 38.8995 143.006 37.9995 143.46 37.1995C143.926 36.3862 144.566 35.7528 145.38 35.2995C146.193 34.8328 147.106 34.5995 148.12 34.5995C149.133 34.5995 150.046 34.8328 150.86 35.2995C151.673 35.7528 152.306 36.3862 152.76 37.1995C153.226 37.9995 153.46 38.8995 153.46 39.8995C153.46 40.8995 153.226 41.8062 152.76 42.6195C152.306 43.4195 151.673 44.0528 150.86 44.5195C150.046 44.9728 149.133 45.1995 148.12 45.1995ZM148.12 42.3995C148.773 42.3995 149.32 42.1662 149.76 41.6995C150.213 41.2328 150.44 40.6328 150.44 39.8995C150.44 39.1662 150.213 38.5662 149.76 38.0995C149.32 37.6328 148.773 37.3995 148.12 37.3995C147.466 37.3995 146.913 37.6328 146.46 38.0995C146.02 38.5662 145.8 39.1662 145.8 39.8995C145.8 40.6328 146.02 41.2328 146.46 41.6995C146.913 42.1662 147.466 42.3995 148.12 42.3995ZM47.3643 69.1995C46.4977 69.1995 45.7043 68.9795 44.9843 68.5395C44.2643 68.0862 43.691 67.4595 43.2643 66.6595C42.8376 65.8462 42.6243 64.9262 42.6243 63.8995C42.6243 62.8728 42.8376 61.9595 43.2643 61.1595C43.691 60.3462 44.2643 59.7195 44.9843 59.2795C45.7043 58.8262 46.4977 58.5995 47.3643 58.5995C47.991 58.5995 48.5443 58.7128 49.0243 58.9395C49.5177 59.1662 49.871 59.4128 50.0843 59.6795H50.1843V54.9995H53.2043V68.9995H50.6043L50.4043 67.9995H50.3043C50.0377 68.3462 49.651 68.6328 49.1443 68.8595C48.651 69.0862 48.0576 69.1995 47.3643 69.1995ZM47.9243 66.4195C48.5776 66.4195 49.1176 66.1928 49.5443 65.7395C49.971 65.2728 50.1843 64.6595 50.1843 63.8995C50.1843 63.1395 49.971 62.5328 49.5443 62.0795C49.1176 61.6262 48.5776 61.3995 47.9243 61.3995C47.271 61.3995 46.731 61.6262 46.3043 62.0795C45.8776 62.5328 45.6643 63.1395 45.6643 63.8995C45.6643 64.6595 45.8776 65.2728 46.3043 65.7395C46.731 66.1928 47.271 66.4195 47.9243 66.4195ZM60.1624 69.1995C59.1491 69.1995 58.2358 68.9728 57.4224 68.5195C56.6091 68.0528 55.9691 67.4195 55.5024 66.6195C55.0358 65.8062 54.8024 64.8995 54.8024 63.8995C54.8024 62.8995 55.0358 61.9995 55.5024 61.1995C55.9691 60.3862 56.6091 59.7528 57.4224 59.2995C58.2358 58.8328 59.1491 58.5995 60.1624 58.5995C61.1224 58.5995 61.9958 58.8262 62.7824 59.2795C63.5824 59.7328 64.2091 60.3595 64.6624 61.1595C65.1158 61.9462 65.3424 62.8195 65.3424 63.7795C65.3424 64.1395 65.3091 64.4728 65.2424 64.7795H57.8024C57.8824 65.3395 58.1424 65.8128 58.5824 66.1995C59.0224 66.5728 59.5491 66.7595 60.1624 66.7595C60.6158 66.7595 61.0024 66.6728 61.3224 66.4995C61.6424 66.3262 61.8824 66.1462 62.0424 65.9595H65.0824C64.9491 66.4128 64.6824 66.8862 64.2824 67.3795C63.8824 67.8728 63.3291 68.2995 62.6224 68.6595C61.9291 69.0195 61.1091 69.1995 60.1624 69.1995ZM62.3624 62.9595C62.2824 62.3995 62.0424 61.9328 61.6424 61.5595C61.2424 61.1862 60.7491 60.9995 60.1624 60.9995C59.5358 60.9995 59.0158 61.1862 58.6024 61.5595C58.1891 61.9328 57.9224 62.3995 57.8024 62.9595H62.3624ZM75.0667 69.1995C74.3067 69.1995 73.64 69.0595 73.0667 68.7795C72.5067 68.4995 72.0733 68.1262 71.7667 67.6595C71.4733 67.1795 71.3267 66.6462 71.3267 66.0595C71.3267 65.0462 71.6867 64.2328 72.4067 63.6195C73.1267 63.0062 74.1667 62.6995 75.5267 62.6995H77.7667V62.5195C77.7667 62.0795 77.62 61.7195 77.3267 61.4395C77.0467 61.1462 76.68 60.9995 76.2267 60.9995C75.8133 60.9995 75.4867 61.0928 75.2467 61.2795C75.0067 61.4528 74.8333 61.6595 74.7267 61.8995H71.7667C71.8333 61.3395 72.0467 60.8062 72.4067 60.2995C72.78 59.7928 73.2867 59.3862 73.9267 59.0795C74.58 58.7595 75.3467 58.5995 76.2267 58.5995C77.1467 58.5995 77.9467 58.7728 78.6267 59.1195C79.32 59.4662 79.8533 59.9395 80.2267 60.5395C80.6 61.1262 80.7867 61.7862 80.7867 62.5195V68.9995H78.1667L77.9667 68.1195H77.8667C77.64 68.3995 77.2733 68.6528 76.7667 68.8795C76.2733 69.0928 75.7067 69.1995 75.0667 69.1995ZM75.7267 66.8595C76.3667 66.8595 76.8667 66.6862 77.2267 66.3395C77.5867 65.9928 77.7667 65.5262 77.7667 64.9395V64.6995H75.9267C75.4067 64.6995 75.0133 64.7995 74.7467 64.9995C74.4933 65.1862 74.3667 65.4462 74.3667 65.7795C74.3667 66.1128 74.48 66.3795 74.7067 66.5795C74.9467 66.7662 75.2867 66.8595 75.7267 66.8595ZM82.6962 72.9995V58.7995H85.2962L85.4962 59.7995H85.5962C85.8495 59.4528 86.2295 59.1662 86.7362 58.9395C87.2562 58.7128 87.8495 58.5995 88.5162 58.5995C89.3829 58.5995 90.1762 58.8262 90.8962 59.2795C91.6162 59.7195 92.1895 60.3462 92.6162 61.1595C93.0429 61.9595 93.2562 62.8728 93.2562 63.8995C93.2562 64.9262 93.0429 65.8462 92.6162 66.6595C92.1895 67.4595 91.6162 68.0862 90.8962 68.5395C90.1762 68.9795 89.3829 69.1995 88.5162 69.1995C87.8895 69.1995 87.3295 69.0928 86.8362 68.8795C86.3562 68.6662 86.0162 68.4328 85.8162 68.1795H85.7162V72.9995H82.6962ZM87.9762 66.4195C88.6295 66.4195 89.1695 66.1928 89.5962 65.7395C90.0229 65.2728 90.2362 64.6595 90.2362 63.8995C90.2362 63.1395 90.0229 62.5328 89.5962 62.0795C89.1695 61.6262 88.6295 61.3995 87.9762 61.3995C87.3229 61.3995 86.7829 61.6262 86.3562 62.0795C85.9295 62.5328 85.7162 63.1395 85.7162 63.8995C85.7162 64.6595 85.9295 65.2728 86.3562 65.7395C86.7829 66.1928 87.3229 66.4195 87.9762 66.4195ZM94.7571 68.9995V58.7995H97.3571L97.5571 59.5995H97.6571C97.8038 59.3862 98.0371 59.1995 98.3571 59.0395C98.6771 58.8795 99.0438 58.7995 99.4571 58.7995H101.397V61.6595H99.5971C98.3838 61.6595 97.7771 62.2795 97.7771 63.5195V68.9995H94.7571ZM107.147 69.1995C106.133 69.1995 105.22 68.9728 104.407 68.5195C103.593 68.0528 102.953 67.4195 102.487 66.6195C102.02 65.8062 101.787 64.8995 101.787 63.8995C101.787 62.8995 102.02 61.9995 102.487 61.1995C102.953 60.3862 103.593 59.7528 104.407 59.2995C105.22 58.8328 106.133 58.5995 107.147 58.5995C108.107 58.5995 108.98 58.8262 109.767 59.2795C110.567 59.7328 111.193 60.3595 111.647 61.1595C112.1 61.9462 112.327 62.8195 112.327 63.7795C112.327 64.1395 112.293 64.4728 112.227 64.7795H104.787C104.867 65.3395 105.127 65.8128 105.567 66.1995C106.007 66.5728 106.533 66.7595 107.147 66.7595C107.6 66.7595 107.987 66.6728 108.307 66.4995C108.627 66.3262 108.867 66.1462 109.027 65.9595H112.067C111.933 66.4128 111.667 66.8862 111.267 67.3795C110.867 67.8728 110.313 68.2995 109.607 68.6595C108.913 69.0195 108.093 69.1995 107.147 69.1995ZM109.347 62.9595C109.267 62.3995 109.027 61.9328 108.627 61.5595C108.227 61.1862 107.733 60.9995 107.147 60.9995C106.52 60.9995 106 61.1862 105.587 61.5595C105.173 61.9328 104.907 62.3995 104.787 62.9595H109.347ZM117.76 69.1995C116.654 69.1995 115.754 69.0128 115.06 68.6395C114.367 68.2528 113.867 67.7995 113.56 67.2795C113.267 66.7595 113.12 66.2728 113.12 65.8195H116.06C116.06 66.0995 116.2 66.3528 116.48 66.5795C116.774 66.7928 117.2 66.8995 117.76 66.8995C118.307 66.8995 118.707 66.8195 118.96 66.6595C119.227 66.4862 119.36 66.2795 119.36 66.0395C119.36 65.7862 119.274 65.5862 119.1 65.4395C118.927 65.2928 118.62 65.1862 118.18 65.1195L116.66 64.8795C114.327 64.5195 113.16 63.5062 113.16 61.8395C113.16 61.2528 113.334 60.7128 113.68 60.2195C114.027 59.7262 114.54 59.3328 115.22 59.0395C115.9 58.7462 116.714 58.5995 117.66 58.5995C118.62 58.5995 119.44 58.7728 120.12 59.1195C120.8 59.4528 121.314 59.8795 121.66 60.3995C122.007 60.9062 122.18 61.4062 122.18 61.8995H119.26C119.26 61.6328 119.114 61.3995 118.82 61.1995C118.54 60.9995 118.154 60.8995 117.66 60.8995C117.18 60.8995 116.807 60.9928 116.54 61.1795C116.287 61.3528 116.16 61.5595 116.16 61.7995C116.16 62.1862 116.547 62.4395 117.32 62.5595L118.92 62.7995C121.2 63.1328 122.34 64.1995 122.34 65.9995C122.34 66.5862 122.167 67.1262 121.82 67.6195C121.487 68.0995 120.974 68.4862 120.28 68.7795C119.6 69.0595 118.76 69.1995 117.76 69.1995ZM128.593 69.1995C127.58 69.1995 126.666 68.9728 125.853 68.5195C125.04 68.0528 124.4 67.4195 123.933 66.6195C123.466 65.8062 123.233 64.8995 123.233 63.8995C123.233 62.8995 123.466 61.9995 123.933 61.1995C124.4 60.3862 125.04 59.7528 125.853 59.2995C126.666 58.8328 127.58 58.5995 128.593 58.5995C129.553 58.5995 130.426 58.8262 131.213 59.2795C132.013 59.7328 132.64 60.3595 133.093 61.1595C133.546 61.9462 133.773 62.8195 133.773 63.7795C133.773 64.1395 133.74 64.4728 133.673 64.7795H126.233C126.313 65.3395 126.573 65.8128 127.013 66.1995C127.453 66.5728 127.98 66.7595 128.593 66.7595C129.046 66.7595 129.433 66.6728 129.753 66.4995C130.073 66.3262 130.313 66.1462 130.473 65.9595H133.513C133.38 66.4128 133.113 66.8862 132.713 67.3795C132.313 67.8728 131.76 68.2995 131.053 68.6595C130.36 69.0195 129.54 69.1995 128.593 69.1995ZM130.793 62.9595C130.713 62.3995 130.473 61.9328 130.073 61.5595C129.673 61.1862 129.18 60.9995 128.593 60.9995C127.966 60.9995 127.446 61.1862 127.033 61.5595C126.62 61.9328 126.353 62.3995 126.233 62.9595H130.793ZM135.267 68.9995V58.7995H137.867L138.067 59.6995H138.167C138.407 59.4195 138.767 59.1662 139.247 58.9395C139.74 58.7128 140.333 58.5995 141.027 58.5995C141.8 58.5995 142.487 58.7795 143.087 59.1395C143.7 59.4862 144.173 59.9862 144.507 60.6395C144.853 61.2795 145.027 62.0262 145.027 62.8795V68.9995H142.007V63.3795C142.007 62.8195 141.833 62.3662 141.487 62.0195C141.153 61.6595 140.707 61.4795 140.147 61.4795C139.587 61.4795 139.133 61.6595 138.787 62.0195C138.453 62.3662 138.287 62.8195 138.287 63.3795V68.9995H135.267ZM150.602 68.9995C149.629 68.9995 148.889 68.7595 148.382 68.2795C147.875 67.7995 147.622 67.1128 147.622 66.2195V61.6595H146.022V58.7995H147.622V55.6395H150.642V58.7995H152.942V61.6595H150.642V65.5795C150.642 65.8328 150.695 66.0128 150.802 66.1195C150.909 66.2262 151.089 66.2795 151.342 66.2795H152.942V68.9995H150.602ZM157.492 69.1995C156.732 69.1995 156.065 69.0595 155.492 68.7795C154.932 68.4995 154.498 68.1262 154.192 67.6595C153.898 67.1795 153.752 66.6462 153.752 66.0595C153.752 65.0462 154.112 64.2328 154.832 63.6195C155.552 63.0062 156.592 62.6995 157.952 62.6995H160.192V62.5195C160.192 62.0795 160.045 61.7195 159.752 61.4395C159.472 61.1462 159.105 60.9995 158.652 60.9995C158.238 60.9995 157.912 61.0928 157.672 61.2795C157.432 61.4528 157.258 61.6595 157.152 61.8995H154.192C154.258 61.3395 154.472 60.8062 154.832 60.2995C155.205 59.7928 155.712 59.3862 156.352 59.0795C157.005 58.7595 157.772 58.5995 158.652 58.5995C159.572 58.5995 160.372 58.7728 161.052 59.1195C161.745 59.4662 162.278 59.9395 162.652 60.5395C163.025 61.1262 163.212 61.7862 163.212 62.5195V68.9995H160.592L160.392 68.1195H160.292C160.065 68.3995 159.698 68.6528 159.192 68.8795C158.698 69.0928 158.132 69.1995 157.492 69.1995ZM158.152 66.8595C158.792 66.8595 159.292 66.6862 159.652 66.3395C160.012 65.9928 160.192 65.5262 160.192 64.9395V64.6995H158.352C157.832 64.6995 157.438 64.7995 157.172 64.9995C156.918 65.1862 156.792 65.4462 156.792 65.7795C156.792 66.1128 156.905 66.3795 157.132 66.5795C157.372 66.7662 157.712 66.8595 158.152 66.8595ZM169.981 66.4195C170.555 66.4195 171.001 66.2795 171.321 65.9995C171.641 65.7195 171.861 65.3795 171.981 64.9795H175.041C174.868 65.9795 174.421 66.8862 173.701 67.6995C172.981 68.4995 172.015 68.9795 170.801 69.1395L170.441 69.9595C170.828 70.1195 171.168 70.3328 171.461 70.5995C171.755 70.8662 171.901 71.2462 171.901 71.7395C171.901 72.3262 171.681 72.7995 171.241 73.1595C170.801 73.5328 170.195 73.7195 169.421 73.7195H168.101V71.9995H169.001C169.268 71.9995 169.468 71.9462 169.601 71.8395C169.735 71.7328 169.801 71.5862 169.801 71.3995C169.801 71.2128 169.735 71.0662 169.601 70.9595C169.468 70.8528 169.268 70.7995 169.001 70.7995H168.401V69.9595L168.761 69.0795C167.948 68.9062 167.228 68.5795 166.601 68.0995C165.975 67.6062 165.488 66.9995 165.141 66.2795C164.795 65.5462 164.621 64.7528 164.621 63.8995C164.621 62.8995 164.855 61.9995 165.321 61.1995C165.788 60.3862 166.428 59.7528 167.241 59.2995C168.055 58.8328 168.968 58.5995 169.981 58.5995C170.968 58.5995 171.821 58.8062 172.541 59.2195C173.261 59.6328 173.828 60.1595 174.241 60.7995C174.655 61.4262 174.921 62.0862 175.041 62.7795H171.981C171.861 62.4062 171.641 62.0862 171.321 61.8195C171.001 61.5395 170.555 61.3995 169.981 61.3995C169.328 61.3995 168.775 61.6328 168.321 62.0995C167.881 62.5662 167.661 63.1662 167.661 63.8995C167.661 64.6328 167.881 65.2395 168.321 65.7195C168.775 66.1862 169.328 66.4195 169.981 66.4195ZM181.28 69.1995C180.267 69.1995 179.353 68.9728 178.54 68.5195C177.727 68.0528 177.087 67.4195 176.62 66.6195C176.167 65.8062 175.94 64.8995 175.94 63.8995C175.94 62.8995 176.167 61.9995 176.62 61.1995C177.087 60.3862 177.727 59.7528 178.54 59.2995C179.353 58.8328 180.267 58.5995 181.28 58.5995C182.293 58.5995 183.207 58.8328 184.02 59.2995C184.833 59.7528 185.467 60.3862 185.92 61.1995C186.387 61.9995 186.62 62.8995 186.62 63.8995C186.62 64.8995 186.387 65.8062 185.92 66.6195C185.467 67.4195 184.833 68.0528 184.02 68.5195C183.207 68.9728 182.293 69.1995 181.28 69.1995ZM181.28 66.3995C181.933 66.3995 182.48 66.1662 182.92 65.6995C183.373 65.2328 183.6 64.6328 183.6 63.8995C183.6 63.1662 183.373 62.5662 182.92 62.0995C182.48 61.6328 181.933 61.3995 181.28 61.3995C180.627 61.3995 180.073 61.6328 179.62 62.0995C179.18 62.5662 178.96 63.1662 178.96 63.8995C178.96 64.6328 179.18 65.2328 179.62 65.6995C180.073 66.1662 180.627 66.3995 181.28 66.3995ZM177.82 57.3195C177.82 56.4395 178.027 55.7728 178.44 55.3195C178.867 54.8662 179.407 54.6395 180.06 54.6395C180.313 54.6395 180.527 54.6795 180.7 54.7595C180.887 54.8262 181.1 54.9262 181.34 55.0595C181.513 55.1662 181.653 55.2462 181.76 55.2995C181.867 55.3395 181.987 55.3595 182.12 55.3595C182.307 55.3595 182.46 55.2995 182.58 55.1795C182.713 55.0462 182.78 54.8662 182.78 54.6395H184.7C184.7 55.5195 184.493 56.1862 184.08 56.6395C183.667 57.0928 183.133 57.3195 182.48 57.3195C182.227 57.3195 182.007 57.2862 181.82 57.2195C181.647 57.1395 181.44 57.0328 181.2 56.8995C181.04 56.7928 180.9 56.7195 180.78 56.6795C180.66 56.6262 180.533 56.5995 180.4 56.5995C180.213 56.5995 180.053 56.6662 179.92 56.7995C179.8 56.9195 179.74 57.0928 179.74 57.3195H177.82ZM192.97 69.1995C191.957 69.1995 191.044 68.9728 190.23 68.5195C189.417 68.0528 188.777 67.4195 188.31 66.6195C187.844 65.8062 187.61 64.8995 187.61 63.8995C187.61 62.8995 187.844 61.9995 188.31 61.1995C188.777 60.3862 189.417 59.7528 190.23 59.2995C191.044 58.8328 191.957 58.5995 192.97 58.5995C193.93 58.5995 194.804 58.8262 195.59 59.2795C196.39 59.7328 197.017 60.3595 197.47 61.1595C197.924 61.9462 198.15 62.8195 198.15 63.7795C198.15 64.1395 198.117 64.4728 198.05 64.7795H190.61C190.69 65.3395 190.95 65.8128 191.39 66.1995C191.83 66.5728 192.357 66.7595 192.97 66.7595C193.424 66.7595 193.81 66.6728 194.13 66.4995C194.45 66.3262 194.69 66.1462 194.85 65.9595H197.89C197.757 66.4128 197.49 66.8862 197.09 67.3795C196.69 67.8728 196.137 68.2995 195.43 68.6595C194.737 69.0195 193.917 69.1995 192.97 69.1995ZM195.17 62.9595C195.09 62.3995 194.85 61.9328 194.45 61.5595C194.05 61.1862 193.557 60.9995 192.97 60.9995C192.344 60.9995 191.824 61.1862 191.41 61.5595C190.997 61.9328 190.73 62.3995 190.61 62.9595H195.17ZM203.584 69.1995C202.477 69.1995 201.577 69.0128 200.884 68.6395C200.191 68.2528 199.691 67.7995 199.384 67.2795C199.091 66.7595 198.944 66.2728 198.944 65.8195H201.884C201.884 66.0995 202.024 66.3528 202.304 66.5795C202.597 66.7928 203.024 66.8995 203.584 66.8995C204.131 66.8995 204.531 66.8195 204.784 66.6595C205.051 66.4862 205.184 66.2795 205.184 66.0395C205.184 65.7862 205.097 65.5862 204.924 65.4395C204.751 65.2928 204.444 65.1862 204.004 65.1195L202.484 64.8795C200.151 64.5195 198.984 63.5062 198.984 61.8395C198.984 61.2528 199.157 60.7128 199.504 60.2195C199.851 59.7262 200.364 59.3328 201.044 59.0395C201.724 58.7462 202.537 58.5995 203.484 58.5995C204.444 58.5995 205.264 58.7728 205.944 59.1195C206.624 59.4528 207.137 59.8795 207.484 60.3995C207.831 60.9062 208.004 61.4062 208.004 61.8995H205.084C205.084 61.6328 204.937 61.3995 204.644 61.1995C204.364 60.9995 203.977 60.8995 203.484 60.8995C203.004 60.8995 202.631 60.9928 202.364 61.1795C202.111 61.3528 201.984 61.5595 201.984 61.7995C201.984 62.1862 202.371 62.4395 203.144 62.5595L204.744 62.7995C207.024 63.1328 208.164 64.1995 208.164 65.9995C208.164 66.5862 207.991 67.1262 207.644 67.6195C207.311 68.0995 206.797 68.4862 206.104 68.7795C205.424 69.0595 204.584 69.1995 203.584 69.1995ZM108.474 93.1995C107.461 93.1995 106.548 92.9728 105.734 92.5195C104.921 92.0528 104.281 91.4195 103.814 90.6195C103.361 89.8062 103.134 88.8995 103.134 87.8995C103.134 86.8995 103.361 85.9995 103.814 85.1995C104.281 84.3862 104.921 83.7528 105.734 83.2995C106.548 82.8328 107.461 82.5995 108.474 82.5995C109.488 82.5995 110.401 82.8328 111.214 83.2995C112.028 83.7528 112.661 84.3862 113.114 85.1995C113.581 85.9995 113.814 86.8995 113.814 87.8995C113.814 88.8995 113.581 89.8062 113.114 90.6195C112.661 91.4195 112.028 92.0528 111.214 92.5195C110.401 92.9728 109.488 93.1995 108.474 93.1995ZM108.474 90.3995C109.128 90.3995 109.674 90.1662 110.114 89.6995C110.568 89.2328 110.794 88.6328 110.794 87.8995C110.794 87.1662 110.568 86.5662 110.114 86.0995C109.674 85.6328 109.128 85.3995 108.474 85.3995C107.821 85.3995 107.268 85.6328 106.814 86.0995C106.374 86.5662 106.154 87.1662 106.154 87.8995C106.154 88.6328 106.374 89.2328 106.814 89.6995C107.268 90.1662 107.821 90.3995 108.474 90.3995ZM115.305 92.9995V82.7995H117.905L118.105 83.5995H118.205C118.351 83.3862 118.585 83.1995 118.905 83.0395C119.225 82.8795 119.591 82.7995 120.005 82.7995H121.945V85.6595H120.145C118.931 85.6595 118.325 86.2795 118.325 87.5195V92.9995H115.305ZM126.074 93.1995C125.314 93.1995 124.648 93.0595 124.074 92.7795C123.514 92.4995 123.081 92.1262 122.774 91.6595C122.481 91.1795 122.334 90.6462 122.334 90.0595C122.334 89.0462 122.694 88.2328 123.414 87.6195C124.134 87.0062 125.174 86.6995 126.534 86.6995H128.774V86.5195C128.774 86.0795 128.628 85.7195 128.334 85.4395C128.054 85.1462 127.688 84.9995 127.234 84.9995C126.821 84.9995 126.494 85.0928 126.254 85.2795C126.014 85.4528 125.841 85.6595 125.734 85.8995H122.774C122.841 85.3395 123.054 84.8062 123.414 84.2995C123.788 83.7928 124.294 83.3862 124.934 83.0795C125.588 82.7595 126.354 82.5995 127.234 82.5995C128.154 82.5995 128.954 82.7728 129.634 83.1195C130.328 83.4662 130.861 83.9395 131.234 84.5395C131.608 85.1262 131.794 85.7862 131.794 86.5195V92.9995H129.174L128.974 92.1195H128.874C128.648 92.3995 128.281 92.6528 127.774 92.8795C127.281 93.0928 126.714 93.1995 126.074 93.1995ZM126.734 90.8595C127.374 90.8595 127.874 90.6862 128.234 90.3395C128.594 89.9928 128.774 89.5262 128.774 88.9395V88.6995H126.934C126.414 88.6995 126.021 88.7995 125.754 88.9995C125.501 89.1862 125.374 89.4462 125.374 89.7795C125.374 90.1128 125.488 90.3795 125.714 90.5795C125.954 90.7662 126.294 90.8595 126.734 90.8595ZM136.724 92.9995H133.704V82.7995H136.724V92.9995ZM136.804 81.3195H133.644V78.6995H136.804V81.3195ZM142.674 93.1995C141.567 93.1995 140.667 93.0128 139.974 92.6395C139.28 92.2528 138.78 91.7995 138.474 91.2795C138.18 90.7595 138.034 90.2728 138.034 89.8195H140.974C140.974 90.0995 141.114 90.3528 141.394 90.5795C141.687 90.7928 142.114 90.8995 142.674 90.8995C143.22 90.8995 143.62 90.8195 143.874 90.6595C144.14 90.4862 144.274 90.2795 144.274 90.0395C144.274 89.7862 144.187 89.5862 144.014 89.4395C143.84 89.2928 143.534 89.1862 143.094 89.1195L141.574 88.8795C139.24 88.5195 138.074 87.5062 138.074 85.8395C138.074 85.2528 138.247 84.7128 138.594 84.2195C138.94 83.7262 139.454 83.3328 140.134 83.0395C140.814 82.7462 141.627 82.5995 142.574 82.5995C143.534 82.5995 144.354 82.7728 145.034 83.1195C145.714 83.4528 146.227 83.8795 146.574 84.3995C146.92 84.9062 147.094 85.4062 147.094 85.8995H144.174C144.174 85.6328 144.027 85.3995 143.734 85.1995C143.454 84.9995 143.067 84.8995 142.574 84.8995C142.094 84.8995 141.72 84.9928 141.454 85.1795C141.2 85.3528 141.074 85.5595 141.074 85.7995C141.074 86.1862 141.46 86.4395 142.234 86.5595L143.834 86.7995C146.114 87.1328 147.254 88.1995 147.254 89.9995C147.254 90.5862 147.08 91.1262 146.734 91.6195C146.4 92.0995 145.887 92.4862 145.194 92.7795C144.514 93.0595 143.674 93.1995 142.674 93.1995Z" fill="#EFF7FB"/>
<path fill-rule="evenodd" clip-rule="evenodd" d="M0 0L138 0L276 0L138 238L69.4417 119.283L0 0Z" fill="white" fill-opacity="0.04"/>
<path d="M0.869635 0.5L138 0.5L275.132 0.5L138.001 237.002L69.8747 119.033L69.8738 119.032L0.869635 0.5Z" stroke="#DFEFF7" stroke-opacity="0.2"/>
</svg>
