<svg width="276" height="238" viewBox="0 0 276 238" fill="none" xmlns="http://www.w3.org/2000/svg">
<ellipse cx="139.5" cy="124.5" rx="35.5" ry="34.5" fill="white" fill-opacity="0.04"/>
<path d="M94.6971 46.9995H91.4971V36.0995H87.5971V32.9995H98.5971V36.0995H94.6971V46.9995ZM98.6026 46.9995V36.7995H101.203L101.403 37.5995H101.503C101.649 37.3862 101.883 37.1995 102.203 37.0395C102.523 36.8795 102.889 36.7995 103.303 36.7995H105.243V39.6595H103.443C102.229 39.6595 101.623 40.2795 101.623 41.5195V46.9995H98.6026ZM109.372 47.1995C108.612 47.1995 107.946 47.0595 107.372 46.7795C106.812 46.4995 106.379 46.1262 106.072 45.6595C105.779 45.1795 105.632 44.6462 105.632 44.0595C105.632 43.0462 105.992 42.2328 106.712 41.6195C107.432 41.0062 108.472 40.6995 109.832 40.6995H112.072V40.5195C112.072 40.0795 111.926 39.7195 111.632 39.4395C111.352 39.1462 110.986 38.9995 110.532 38.9995C110.119 38.9995 109.792 39.0928 109.552 39.2795C109.312 39.4528 109.139 39.6595 109.032 39.8995H106.072C106.139 39.3395 106.352 38.8062 106.712 38.2995C107.086 37.7928 107.592 37.3862 108.232 37.0795C108.886 36.7595 109.652 36.5995 110.532 36.5995C111.452 36.5995 112.252 36.7728 112.932 37.1195C113.626 37.4662 114.159 37.9395 114.532 38.5395C114.906 39.1262 115.092 39.7862 115.092 40.5195V46.9995H112.472L112.272 46.1195H112.172C111.946 46.3995 111.579 46.6528 111.072 46.8795C110.579 47.0928 110.012 47.1995 109.372 47.1995ZM110.032 44.8595C110.672 44.8595 111.172 44.6862 111.532 44.3395C111.892 43.9928 112.072 43.5262 112.072 42.9395V42.6995H110.232C109.712 42.6995 109.319 42.7995 109.052 42.9995C108.799 43.1862 108.672 43.4462 108.672 43.7795C108.672 44.1128 108.786 44.3795 109.012 44.5795C109.252 44.7662 109.592 44.8595 110.032 44.8595ZM117.002 46.9995V36.7995H119.602L119.802 37.6995H119.902C120.142 37.4195 120.502 37.1662 120.982 36.9395C121.475 36.7128 122.068 36.5995 122.762 36.5995C123.535 36.5995 124.222 36.7795 124.822 37.1395C125.435 37.4862 125.908 37.9862 126.242 38.6395C126.588 39.2795 126.762 40.0262 126.762 40.8795V46.9995H123.742V41.3795C123.742 40.8195 123.568 40.3662 123.222 40.0195C122.888 39.6595 122.442 39.4795 121.882 39.4795C121.322 39.4795 120.868 39.6595 120.522 40.0195C120.188 40.3662 120.022 40.8195 120.022 41.3795V46.9995H117.002ZM132.593 47.1995C131.486 47.1995 130.586 47.0128 129.893 46.6395C129.199 46.2528 128.699 45.7995 128.393 45.2795C128.099 44.7595 127.953 44.2728 127.953 43.8195H130.893C130.893 44.0995 131.033 44.3528 131.313 44.5795C131.606 44.7928 132.033 44.8995 132.593 44.8995C133.139 44.8995 133.539 44.8195 133.793 44.6595C134.059 44.4862 134.193 44.2795 134.193 44.0395C134.193 43.7862 134.106 43.5862 133.933 43.4395C133.759 43.2928 133.453 43.1862 133.013 43.1195L131.493 42.8795C129.159 42.5195 127.993 41.5062 127.993 39.8395C127.993 39.2528 128.166 38.7128 128.513 38.2195C128.859 37.7262 129.373 37.3328 130.053 37.0395C130.733 36.7462 131.546 36.5995 132.493 36.5995C133.453 36.5995 134.273 36.7728 134.953 37.1195C135.633 37.4528 136.146 37.8795 136.493 38.3995C136.839 38.9062 137.013 39.4062 137.013 39.8995H134.093C134.093 39.6328 133.946 39.3995 133.653 39.1995C133.373 38.9995 132.986 38.8995 132.493 38.8995C132.013 38.8995 131.639 38.9928 131.373 39.1795C131.119 39.3528 130.993 39.5595 130.993 39.7995C130.993 40.1862 131.379 40.4395 132.153 40.5595L133.753 40.7995C136.033 41.1328 137.173 42.1995 137.173 43.9995C137.173 44.5862 136.999 45.1262 136.653 45.6195C136.319 46.0995 135.806 46.4862 135.113 46.7795C134.433 47.0595 133.593 47.1995 132.593 47.1995ZM138.565 50.9995V36.7995H141.165L141.365 37.7995H141.465C141.718 37.4528 142.098 37.1662 142.605 36.9395C143.125 36.7128 143.718 36.5995 144.385 36.5995C145.252 36.5995 146.045 36.8262 146.765 37.2795C147.485 37.7195 148.058 38.3462 148.485 39.1595C148.912 39.9595 149.125 40.8728 149.125 41.8995C149.125 42.9262 148.912 43.8462 148.485 44.6595C148.058 45.4595 147.485 46.0862 146.765 46.5395C146.045 46.9795 145.252 47.1995 144.385 47.1995C143.758 47.1995 143.198 47.0928 142.705 46.8795C142.225 46.6662 141.885 46.4328 141.685 46.1795H141.585V50.9995H138.565ZM143.845 44.4195C144.498 44.4195 145.038 44.1928 145.465 43.7395C145.892 43.2728 146.105 42.6595 146.105 41.8995C146.105 41.1395 145.892 40.5328 145.465 40.0795C145.038 39.6262 144.498 39.3995 143.845 39.3995C143.192 39.3995 142.652 39.6262 142.225 40.0795C141.798 40.5328 141.585 41.1395 141.585 41.8995C141.585 42.6595 141.798 43.2728 142.225 43.7395C142.652 44.1928 143.192 44.4195 143.845 44.4195ZM155.466 47.1995C154.453 47.1995 153.539 46.9728 152.726 46.5195C151.913 46.0528 151.273 45.4195 150.806 44.6195C150.353 43.8062 150.126 42.8995 150.126 41.8995C150.126 40.8995 150.353 39.9995 150.806 39.1995C151.273 38.3862 151.913 37.7528 152.726 37.2995C153.539 36.8328 154.453 36.5995 155.466 36.5995C156.479 36.5995 157.393 36.8328 158.206 37.2995C159.019 37.7528 159.653 38.3862 160.106 39.1995C160.573 39.9995 160.806 40.8995 160.806 41.8995C160.806 42.8995 160.573 43.8062 160.106 44.6195C159.653 45.4195 159.019 46.0528 158.206 46.5195C157.393 46.9728 156.479 47.1995 155.466 47.1995ZM155.466 44.3995C156.119 44.3995 156.666 44.1662 157.106 43.6995C157.559 43.2328 157.786 42.6328 157.786 41.8995C157.786 41.1662 157.559 40.5662 157.106 40.0995C156.666 39.6328 156.119 39.3995 155.466 39.3995C154.813 39.3995 154.259 39.6328 153.806 40.0995C153.366 40.5662 153.146 41.1662 153.146 41.8995C153.146 42.6328 153.366 43.2328 153.806 43.6995C154.259 44.1662 154.813 44.3995 155.466 44.3995ZM162.296 46.9995V36.7995H164.896L165.096 37.5995H165.196C165.343 37.3862 165.576 37.1995 165.896 37.0395C166.216 36.8795 166.583 36.7995 166.996 36.7995H168.936V39.6595H167.136C165.923 39.6595 165.316 40.2795 165.316 41.5195V46.9995H162.296ZM173.901 46.9995C172.928 46.9995 172.188 46.7595 171.681 46.2795C171.175 45.7995 170.921 45.1128 170.921 44.2195V39.6595H169.321V36.7995H170.921V33.6395H173.941V36.7995H176.241V39.6595H173.941V43.5795C173.941 43.8328 173.995 44.0128 174.101 44.1195C174.208 44.2262 174.388 44.2795 174.641 44.2795H176.241V46.9995H173.901ZM182.411 47.1995C181.398 47.1995 180.484 46.9728 179.671 46.5195C178.858 46.0528 178.218 45.4195 177.751 44.6195C177.284 43.8062 177.051 42.8995 177.051 41.8995C177.051 40.8995 177.284 39.9995 177.751 39.1995C178.218 38.3862 178.858 37.7528 179.671 37.2995C180.484 36.8328 181.398 36.5995 182.411 36.5995C183.371 36.5995 184.244 36.8262 185.031 37.2795C185.831 37.7328 186.458 38.3595 186.911 39.1595C187.364 39.9462 187.591 40.8195 187.591 41.7795C187.591 42.1395 187.558 42.4728 187.491 42.7795H180.051C180.131 43.3395 180.391 43.8128 180.831 44.1995C181.271 44.5728 181.798 44.7595 182.411 44.7595C182.864 44.7595 183.251 44.6728 183.571 44.4995C183.891 44.3262 184.131 44.1462 184.291 43.9595H187.331C187.198 44.4128 186.931 44.8862 186.531 45.3795C186.131 45.8728 185.578 46.2995 184.871 46.6595C184.178 47.0195 183.358 47.1995 182.411 47.1995ZM184.611 40.9595C184.531 40.3995 184.291 39.9328 183.891 39.5595C183.491 39.1862 182.998 38.9995 182.411 38.9995C181.784 38.9995 181.264 39.1862 180.851 39.5595C180.438 39.9328 180.171 40.3995 180.051 40.9595H184.611Z" fill="white"/>
<path d="M144.771 135.973C147.131 135.913 148.787 135.722 150.021 135.122V137.5C150.021 137.897 149.863 138.279 149.582 138.56C149.301 138.841 148.919 139 148.521 139H146.271C145.874 139 145.492 138.841 145.211 138.56C144.93 138.279 144.771 137.897 144.771 137.5V135.973ZM132.021 135.122C133.256 135.722 134.912 135.913 137.271 135.973V137.5C137.271 137.897 137.113 138.279 136.832 138.56C136.551 138.841 136.169 139 135.771 139H133.521C133.124 139 132.742 138.841 132.461 138.56C132.18 138.279 132.021 137.897 132.021 137.5V135.122Z" fill="white" fill-opacity="0.44"/>
<path opacity="0.5" fill-rule="evenodd" clip-rule="evenodd" d="M130.779 110.758C132.536 109 135.365 109 141.021 109C146.678 109 149.507 109 151.263 110.758C152.859 112.352 153.006 114.829 153.021 119.5V125.5C153.006 130.171 152.859 132.647 151.263 134.242C150.902 134.603 150.482 134.901 150.021 135.122C148.787 135.722 147.131 135.913 144.771 135.973C143.681 136 142.44 136 141.021 136C139.602 136 138.362 136 137.271 135.973C134.912 135.913 133.256 135.722 132.021 135.122C131.561 134.901 131.141 134.603 130.779 134.242C129.183 132.647 129.035 130.171 129.021 125.5V119.5C129.036 114.829 129.183 112.352 130.779 110.758Z" fill="white" fill-opacity="0.44"/>
<path d="M149.646 130C149.646 129.701 149.528 129.415 149.317 129.204C149.106 128.993 148.82 128.875 148.521 128.875H146.271C145.973 128.875 145.687 128.993 145.476 129.204C145.265 129.415 145.146 129.701 145.146 130C145.146 130.298 145.265 130.584 145.476 130.795C145.687 131.006 145.973 131.125 146.271 131.125H148.521C148.82 131.125 149.106 131.006 149.317 130.795C149.528 130.584 149.646 130.298 149.646 130ZM132.396 130C132.396 129.701 132.515 129.415 132.726 129.204C132.937 128.993 133.223 128.875 133.521 128.875H135.771C136.07 128.875 136.356 128.993 136.567 129.204C136.778 129.415 136.896 129.701 136.896 130C136.896 130.298 136.778 130.584 136.567 130.795C136.356 131.006 136.07 131.125 135.771 131.125H133.521C133.223 131.125 132.937 131.006 132.726 130.795C132.515 130.584 132.396 130.298 132.396 130ZM131.271 120.25C131.271 122.371 131.271 123.431 131.931 124.09C132.59 124.75 133.65 124.75 135.771 124.75H146.271C148.392 124.75 149.453 124.75 150.111 124.09C150.771 123.431 150.771 122.371 150.771 120.25V116.5C150.771 114.379 150.771 113.318 150.111 112.66C149.454 112 148.394 112 146.271 112H135.771C133.65 112 132.59 112 131.931 112.66C131.271 113.317 131.271 114.377 131.271 116.5V120.25ZM126.621 123.7L129.021 125.5V119.5H127.521C127.124 119.5 126.742 119.658 126.461 119.939C126.18 120.22 126.021 120.602 126.021 121V122.5C126.021 122.732 126.076 122.962 126.18 123.17C126.284 123.379 126.435 123.56 126.621 123.7ZM154.521 119.5H153.02L153.021 125.5L155.421 123.7C155.608 123.56 155.759 123.379 155.863 123.17C155.967 122.962 156.021 122.732 156.021 122.5V121C156.021 120.602 155.863 120.22 155.582 119.939C155.301 119.658 154.919 119.5 154.521 119.5Z" fill="white" fill-opacity="0.44"/>
<path fill-rule="evenodd" clip-rule="evenodd" d="M6.10352e-05 0L138 0L276 0L138 238L69.4418 119.283L6.10352e-05 0Z" fill="white" fill-opacity="0.04"/>
<path d="M0.869696 0.5L138 0.5L275.132 0.5L138.001 237.002L69.8747 119.033L69.8739 119.032L0.869696 0.5Z" stroke="#DFEFF7" stroke-opacity="0.2"/>
</svg>
