<svg width="276" height="238" viewBox="0 0 276 238" fill="none" xmlns="http://www.w3.org/2000/svg">
<ellipse cx="140.5" cy="123.499" rx="35.5" ry="34.5" fill="white" fill-opacity="0.04"/>
<path d="M73.7477 32.9995H70.2477L69.3477 30.1995H63.9477L63.0477 32.9995H59.5477L64.3477 18.9994H68.9477L73.7477 32.9995ZM66.4477 22.3995L64.8477 27.3995H68.4477L66.8477 22.3995H66.4477ZM79.3116 33.1995C78.2982 33.1995 77.3849 32.9728 76.5716 32.5195C75.7582 32.0528 75.1182 31.4195 74.6516 30.6195C74.1849 29.8061 73.9516 28.8995 73.9516 27.8995C73.9516 26.8995 74.1849 25.9995 74.6516 25.1995C75.1182 24.3861 75.7582 23.7528 76.5716 23.2995C77.3849 22.8328 78.2982 22.5994 79.3116 22.5994C80.2982 22.5994 81.1516 22.8061 81.8716 23.2195C82.5916 23.6328 83.1582 24.1595 83.5716 24.7995C83.9849 25.4261 84.2516 26.0861 84.3716 26.7795H81.3116C81.1916 26.4061 80.9716 26.0861 80.6516 25.8195C80.3316 25.5395 79.8849 25.3995 79.3116 25.3995C78.6582 25.3995 78.1049 25.6328 77.6516 26.0995C77.2116 26.5661 76.9916 27.1661 76.9916 27.8995C76.9916 28.6328 77.2116 29.2395 77.6516 29.7195C78.1049 30.1861 78.6582 30.4195 79.3116 30.4195C79.8849 30.4195 80.3316 30.2795 80.6516 29.9995C80.9716 29.7195 81.1916 29.3795 81.3116 28.9795H84.3716C84.2516 29.6861 83.9849 30.3595 83.5716 30.9995C83.1582 31.6395 82.5916 32.1661 81.8716 32.5795C81.1649 32.9928 80.3116 33.1995 79.3116 33.1995ZM90.6103 33.1995C89.597 33.1995 88.6836 32.9728 87.8703 32.5195C87.057 32.0528 86.417 31.4195 85.9503 30.6195C85.497 29.8061 85.2703 28.8995 85.2703 27.8995C85.2703 26.8995 85.497 25.9995 85.9503 25.1995C86.417 24.3861 87.057 23.7528 87.8703 23.2995C88.6836 22.8328 89.597 22.5994 90.6103 22.5994C91.6236 22.5994 92.537 22.8328 93.3503 23.2995C94.1636 23.7528 94.797 24.3861 95.2503 25.1995C95.717 25.9995 95.9503 26.8995 95.9503 27.8995C95.9503 28.8995 95.717 29.8061 95.2503 30.6195C94.797 31.4195 94.1636 32.0528 93.3503 32.5195C92.537 32.9728 91.6236 33.1995 90.6103 33.1995ZM90.6103 30.3995C91.2636 30.3995 91.8103 30.1661 92.2503 29.6995C92.7036 29.2328 92.9303 28.6328 92.9303 27.8995C92.9303 27.1661 92.7036 26.5661 92.2503 26.0995C91.8103 25.6328 91.2636 25.3995 90.6103 25.3995C89.957 25.3995 89.4036 25.6328 88.9503 26.0995C88.5103 26.5661 88.2903 27.1661 88.2903 27.8995C88.2903 28.6328 88.5103 29.2328 88.9503 29.6995C89.4036 30.1661 89.957 30.3995 90.6103 30.3995ZM97.4406 32.9995V22.7994H100.041L100.241 23.6995H100.341C100.581 23.4195 100.941 23.1661 101.421 22.9395C101.914 22.7128 102.507 22.5994 103.201 22.5994C103.974 22.5994 104.661 22.7794 105.261 23.1395C105.874 23.4861 106.347 23.9861 106.681 24.6395C107.027 25.2795 107.201 26.0261 107.201 26.8795V32.9995H104.181V27.3795C104.181 26.8195 104.007 26.3661 103.661 26.0195C103.327 25.6595 102.881 25.4795 102.321 25.4795C101.761 25.4795 101.307 25.6595 100.961 26.0195C100.627 26.3661 100.461 26.8195 100.461 27.3795V32.9995H97.4406ZM113.031 33.1995C111.925 33.1995 111.025 33.0128 110.331 32.6395C109.638 32.2528 109.138 31.7995 108.831 31.2795C108.538 30.7595 108.391 30.2728 108.391 29.8195H111.331C111.331 30.0995 111.471 30.3528 111.751 30.5795C112.045 30.7928 112.471 30.8995 113.031 30.8995C113.578 30.8995 113.978 30.8195 114.231 30.6595C114.498 30.4861 114.631 30.2795 114.631 30.0395C114.631 29.7861 114.545 29.5861 114.371 29.4395C114.198 29.2928 113.891 29.1861 113.451 29.1195L111.931 28.8795C109.598 28.5195 108.431 27.5061 108.431 25.8395C108.431 25.2528 108.605 24.7128 108.951 24.2195C109.298 23.7261 109.811 23.3328 110.491 23.0395C111.171 22.7461 111.985 22.5994 112.931 22.5994C113.891 22.5994 114.711 22.7728 115.391 23.1195C116.071 23.4528 116.585 23.8795 116.931 24.3995C117.278 24.9061 117.451 25.4061 117.451 25.8995H114.531C114.531 25.6328 114.385 25.3995 114.091 25.1995C113.811 24.9995 113.425 24.8995 112.931 24.8995C112.451 24.8995 112.078 24.9928 111.811 25.1795C111.558 25.3528 111.431 25.5595 111.431 25.7995C111.431 26.1861 111.818 26.4395 112.591 26.5595L114.191 26.7995C116.471 27.1328 117.611 28.1995 117.611 29.9995C117.611 30.5861 117.438 31.1261 117.091 31.6195C116.758 32.0995 116.245 32.4861 115.551 32.7795C114.871 33.0595 114.031 33.1995 113.031 33.1995ZM123.864 33.1995C122.851 33.1995 121.937 32.9728 121.124 32.5195C120.311 32.0528 119.671 31.4195 119.204 30.6195C118.737 29.8061 118.504 28.8995 118.504 27.8995C118.504 26.8995 118.737 25.9995 119.204 25.1995C119.671 24.3861 120.311 23.7528 121.124 23.2995C121.937 22.8328 122.851 22.5994 123.864 22.5994C124.824 22.5994 125.697 22.8261 126.484 23.2795C127.284 23.7328 127.911 24.3595 128.364 25.1595C128.817 25.9461 129.044 26.8195 129.044 27.7795C129.044 28.1395 129.011 28.4728 128.944 28.7795H121.504C121.584 29.3395 121.844 29.8128 122.284 30.1995C122.724 30.5728 123.251 30.7595 123.864 30.7595C124.317 30.7595 124.704 30.6728 125.024 30.4995C125.344 30.3261 125.584 30.1461 125.744 29.9595H128.784C128.651 30.4128 128.384 30.8861 127.984 31.3795C127.584 31.8728 127.031 32.2995 126.324 32.6595C125.631 33.0195 124.811 33.1995 123.864 33.1995ZM126.064 26.9595C125.984 26.3995 125.744 25.9328 125.344 25.5595C124.944 25.1861 124.451 24.9995 123.864 24.9995C123.237 24.9995 122.717 25.1861 122.304 25.5595C121.891 25.9328 121.624 26.3995 121.504 26.9595H126.064ZM133.658 32.9995H130.638V18.9994H133.658V32.9995ZM135.863 32.9995V18.9994H138.883V23.6995H138.983C139.183 23.4195 139.523 23.1661 140.003 22.9395C140.483 22.7128 141.023 22.5994 141.623 22.5994C142.396 22.5994 143.083 22.7794 143.683 23.1395C144.296 23.4861 144.769 23.9861 145.103 24.6395C145.449 25.2795 145.623 26.0261 145.623 26.8795V32.9995H142.603V27.3795C142.603 26.8195 142.429 26.3661 142.083 26.0195C141.749 25.6595 141.303 25.4795 140.743 25.4795C140.183 25.4795 139.729 25.6595 139.383 26.0195C139.049 26.3661 138.883 26.8195 138.883 27.3795V32.9995H135.863ZM150.77 33.1995C150.01 33.1995 149.344 33.0595 148.77 32.7795C148.21 32.4995 147.777 32.1261 147.47 31.6595C147.177 31.1795 147.03 30.6461 147.03 30.0595C147.03 29.0461 147.39 28.2328 148.11 27.6195C148.83 27.0061 149.87 26.6995 151.23 26.6995H153.47V26.5195C153.47 26.0795 153.324 25.7195 153.03 25.4395C152.75 25.1461 152.384 24.9995 151.93 24.9995C151.517 24.9995 151.19 25.0928 150.95 25.2795C150.71 25.4528 150.537 25.6595 150.43 25.8995H147.47C147.537 25.3395 147.75 24.8061 148.11 24.2995C148.484 23.7928 148.99 23.3861 149.63 23.0795C150.284 22.7594 151.05 22.5994 151.93 22.5994C152.85 22.5994 153.65 22.7728 154.33 23.1195C155.024 23.4661 155.557 23.9395 155.93 24.5395C156.304 25.1261 156.49 25.7861 156.49 26.5195V32.9995H153.87L153.67 32.1195H153.57C153.344 32.3995 152.977 32.6528 152.47 32.8795C151.977 33.0928 151.41 33.1995 150.77 33.1995ZM151.43 30.8595C152.07 30.8595 152.57 30.6861 152.93 30.3395C153.29 29.9928 153.47 29.5261 153.47 28.9395V28.6995H151.63C151.11 28.6995 150.717 28.7995 150.45 28.9995C150.197 29.1861 150.07 29.4461 150.07 29.7795C150.07 30.1128 150.184 30.3795 150.41 30.5795C150.65 30.7661 150.99 30.8595 151.43 30.8595ZM158.4 32.9995V22.7994H161L161.2 23.6995H161.3C161.5 23.4195 161.82 23.1661 162.26 22.9395C162.7 22.7128 163.187 22.5994 163.72 22.5994C164.387 22.5994 164.96 22.7461 165.44 23.0395C165.933 23.3328 166.287 23.6528 166.5 23.9995H166.6C166.853 23.6261 167.247 23.2995 167.78 23.0195C168.327 22.7395 168.953 22.5994 169.66 22.5994C170.367 22.5994 171.007 22.7794 171.58 23.1395C172.167 23.4995 172.627 23.9928 172.96 24.6195C173.293 25.2461 173.46 25.9528 173.46 26.7395V32.9995H170.44V27.1795C170.44 26.6328 170.307 26.2128 170.04 25.9195C169.787 25.6261 169.44 25.4795 169 25.4795C168.547 25.4795 168.173 25.6395 167.88 25.9595C167.587 26.2795 167.44 26.6861 167.44 27.1795V32.9995H164.42V27.1795C164.42 26.6328 164.287 26.2128 164.02 25.9195C163.767 25.6261 163.42 25.4795 162.98 25.4795C162.527 25.4795 162.153 25.6395 161.86 25.9595C161.567 26.2661 161.42 26.6728 161.42 27.1795V32.9995H158.4ZM180.223 33.1995C179.21 33.1995 178.297 32.9728 177.483 32.5195C176.67 32.0528 176.03 31.4195 175.563 30.6195C175.097 29.8061 174.863 28.8995 174.863 27.8995C174.863 26.8995 175.097 25.9995 175.563 25.1995C176.03 24.3861 176.67 23.7528 177.483 23.2995C178.297 22.8328 179.21 22.5994 180.223 22.5994C181.183 22.5994 182.057 22.8261 182.843 23.2795C183.643 23.7328 184.27 24.3595 184.723 25.1595C185.177 25.9461 185.403 26.8195 185.403 27.7795C185.403 28.1395 185.37 28.4728 185.303 28.7795H177.863C177.943 29.3395 178.203 29.8128 178.643 30.1995C179.083 30.5728 179.61 30.7595 180.223 30.7595C180.677 30.7595 181.063 30.6728 181.383 30.4995C181.703 30.3261 181.943 30.1461 182.103 29.9595H185.143C185.01 30.4128 184.743 30.8861 184.343 31.3795C183.943 31.8728 183.39 32.2995 182.683 32.6595C181.99 33.0195 181.17 33.1995 180.223 33.1995ZM182.423 26.9595C182.343 26.3995 182.103 25.9328 181.703 25.5595C181.303 25.1861 180.81 24.9995 180.223 24.9995C179.597 24.9995 179.077 25.1861 178.663 25.5595C178.25 25.9328 177.983 26.3995 177.863 26.9595H182.423ZM186.897 32.9995V22.7994H189.497L189.697 23.6995H189.797C190.037 23.4195 190.397 23.1661 190.877 22.9395C191.37 22.7128 191.964 22.5994 192.657 22.5994C193.43 22.5994 194.117 22.7794 194.717 23.1395C195.33 23.4861 195.804 23.9861 196.137 24.6395C196.484 25.2795 196.657 26.0261 196.657 26.8795V32.9995H193.637V27.3795C193.637 26.8195 193.464 26.3661 193.117 26.0195C192.784 25.6595 192.337 25.4795 191.777 25.4795C191.217 25.4795 190.764 25.6595 190.417 26.0195C190.084 26.3661 189.917 26.8195 189.917 27.3795V32.9995H186.897ZM202.232 32.9995C201.259 32.9995 200.519 32.7595 200.012 32.2795C199.506 31.7995 199.252 31.1128 199.252 30.2195V25.6595H197.652V22.7994H199.252V19.6394H202.272V22.7994H204.572V25.6595H202.272V29.5795C202.272 29.8328 202.326 30.0128 202.432 30.1195C202.539 30.2261 202.719 30.2795 202.972 30.2795H204.572V32.9995H202.232ZM210.722 33.1995C209.709 33.1995 208.795 32.9728 207.982 32.5195C207.169 32.0528 206.529 31.4195 206.062 30.6195C205.609 29.8061 205.382 28.8995 205.382 27.8995C205.382 26.8995 205.609 25.9995 206.062 25.1995C206.529 24.3861 207.169 23.7528 207.982 23.2995C208.795 22.8328 209.709 22.5994 210.722 22.5994C211.735 22.5994 212.649 22.8328 213.462 23.2995C214.275 23.7528 214.909 24.3861 215.362 25.1995C215.829 25.9995 216.062 26.8995 216.062 27.8995C216.062 28.8995 215.829 29.8061 215.362 30.6195C214.909 31.4195 214.275 32.0528 213.462 32.5195C212.649 32.9728 211.735 33.1995 210.722 33.1995ZM210.722 30.3995C211.375 30.3995 211.922 30.1661 212.362 29.6995C212.815 29.2328 213.042 28.6328 213.042 27.8995C213.042 27.1661 212.815 26.5661 212.362 26.0995C211.922 25.6328 211.375 25.3995 210.722 25.3995C210.069 25.3995 209.515 25.6328 209.062 26.0995C208.622 26.5661 208.402 27.1661 208.402 27.8995C208.402 28.6328 208.622 29.2328 209.062 29.6995C209.515 30.1661 210.069 30.3995 210.722 30.3995ZM85.6434 60.9995V46.7994H88.2434L88.4434 47.7995H88.5434C88.7967 47.4528 89.1767 47.1661 89.6834 46.9395C90.2034 46.7128 90.7967 46.5994 91.4634 46.5994C92.33 46.5994 93.1234 46.8261 93.8434 47.2795C94.5634 47.7195 95.1367 48.3461 95.5634 49.1595C95.99 49.9595 96.2034 50.8728 96.2034 51.8995C96.2034 52.9261 95.99 53.8461 95.5634 54.6595C95.1367 55.4595 94.5634 56.0861 93.8434 56.5395C93.1234 56.9795 92.33 57.1995 91.4634 57.1995C90.8367 57.1995 90.2767 57.0928 89.7834 56.8795C89.3034 56.6661 88.9634 56.4328 88.7634 56.1795H88.6634V60.9995H85.6434ZM90.9234 54.4195C91.5767 54.4195 92.1167 54.1928 92.5434 53.7395C92.97 53.2728 93.1834 52.6595 93.1834 51.8995C93.1834 51.1395 92.97 50.5328 92.5434 50.0795C92.1167 49.6261 91.5767 49.3995 90.9234 49.3995C90.27 49.3995 89.73 49.6261 89.3034 50.0795C88.8767 50.5328 88.6634 51.1395 88.6634 51.8995C88.6634 52.6595 88.8767 53.2728 89.3034 53.7395C89.73 54.1928 90.27 54.4195 90.9234 54.4195ZM101.644 57.1995C100.538 57.1995 99.6376 57.0128 98.9443 56.6395C98.251 56.2528 97.751 55.7995 97.4443 55.2795C97.151 54.7595 97.0043 54.2728 97.0043 53.8195H99.9443C99.9443 54.0995 100.084 54.3528 100.364 54.5795C100.658 54.7928 101.084 54.8995 101.644 54.8995C102.191 54.8995 102.591 54.8195 102.844 54.6595C103.111 54.4861 103.244 54.2795 103.244 54.0395C103.244 53.7861 103.158 53.5861 102.984 53.4395C102.811 53.2928 102.504 53.1861 102.064 53.1195L100.544 52.8795C98.211 52.5195 97.0443 51.5061 97.0443 49.8395C97.0443 49.2528 97.2176 48.7128 97.5643 48.2195C97.911 47.7261 98.4243 47.3328 99.1043 47.0395C99.7843 46.7461 100.598 46.5994 101.544 46.5994C102.504 46.5994 103.324 46.7728 104.004 47.1195C104.684 47.4528 105.198 47.8795 105.544 48.3995C105.891 48.9061 106.064 49.4061 106.064 49.8995H103.144C103.144 49.6328 102.998 49.3995 102.704 49.1995C102.424 48.9995 102.038 48.8995 101.544 48.8995C101.064 48.8995 100.691 48.9928 100.424 49.1795C100.171 49.3528 100.044 49.5595 100.044 49.7995C100.044 50.1861 100.431 50.4395 101.204 50.5595L102.804 50.7995C105.084 51.1328 106.224 52.1995 106.224 53.9995C106.224 54.5861 106.051 55.1261 105.704 55.6195C105.371 56.0995 104.858 56.4861 104.164 56.7795C103.484 57.0595 102.644 57.1995 101.644 57.1995ZM110.637 56.9995H107.617V46.7994H110.637V56.9995ZM110.717 45.3194H107.557V42.6995H110.717V45.3194ZM117.506 57.1995C116.493 57.1995 115.58 56.9728 114.766 56.5195C113.953 56.0528 113.313 55.4195 112.846 54.6195C112.38 53.8061 112.146 52.8995 112.146 51.8995C112.146 50.8995 112.38 49.9995 112.846 49.1995C113.313 48.3861 113.953 47.7528 114.766 47.2995C115.58 46.8328 116.493 46.5994 117.506 46.5994C118.493 46.5994 119.346 46.8061 120.066 47.2195C120.786 47.6328 121.353 48.1595 121.766 48.7995C122.18 49.4261 122.446 50.0861 122.566 50.7795H119.506C119.386 50.4061 119.166 50.0861 118.846 49.8195C118.526 49.5395 118.08 49.3995 117.506 49.3995C116.853 49.3995 116.3 49.6328 115.846 50.0995C115.406 50.5661 115.186 51.1661 115.186 51.8995C115.186 52.6328 115.406 53.2395 115.846 53.7195C116.3 54.1861 116.853 54.4195 117.506 54.4195C118.08 54.4195 118.526 54.2795 118.846 53.9995C119.166 53.7195 119.386 53.3795 119.506 52.9795H122.566C122.446 53.6861 122.18 54.3595 121.766 54.9995C121.353 55.6395 120.786 56.1661 120.066 56.5795C119.36 56.9928 118.506 57.1995 117.506 57.1995ZM128.805 57.1995C127.792 57.1995 126.879 56.9728 126.065 56.5195C125.252 56.0528 124.612 55.4195 124.145 54.6195C123.692 53.8061 123.465 52.8995 123.465 51.8995C123.465 50.8995 123.692 49.9995 124.145 49.1995C124.612 48.3861 125.252 47.7528 126.065 47.2995C126.879 46.8328 127.792 46.5994 128.805 46.5994C129.819 46.5994 130.732 46.8328 131.545 47.2995C132.359 47.7528 132.992 48.3861 133.445 49.1995C133.912 49.9995 134.145 50.8995 134.145 51.8995C134.145 52.8995 133.912 53.8061 133.445 54.6195C132.992 55.4195 132.359 56.0528 131.545 56.5195C130.732 56.9728 129.819 57.1995 128.805 57.1995ZM128.805 54.3995C129.459 54.3995 130.005 54.1661 130.445 53.6995C130.899 53.2328 131.125 52.6328 131.125 51.8995C131.125 51.1661 130.899 50.5661 130.445 50.0995C130.005 49.6328 129.459 49.3995 128.805 49.3995C128.152 49.3995 127.599 49.6328 127.145 50.0995C126.705 50.5661 126.485 51.1661 126.485 51.8995C126.485 52.6328 126.705 53.2328 127.145 53.6995C127.599 54.1661 128.152 54.3995 128.805 54.3995ZM138.756 56.9995H135.736V42.9994H138.756V56.9995ZM145.701 57.1995C144.687 57.1995 143.774 56.9728 142.961 56.5195C142.147 56.0528 141.507 55.4195 141.041 54.6195C140.587 53.8061 140.361 52.8995 140.361 51.8995C140.361 50.8995 140.587 49.9995 141.041 49.1995C141.507 48.3861 142.147 47.7528 142.961 47.2995C143.774 46.8328 144.687 46.5994 145.701 46.5994C146.714 46.5994 147.627 46.8328 148.441 47.2995C149.254 47.7528 149.887 48.3861 150.341 49.1995C150.807 49.9995 151.041 50.8995 151.041 51.8995C151.041 52.8995 150.807 53.8061 150.341 54.6195C149.887 55.4195 149.254 56.0528 148.441 56.5195C147.627 56.9728 146.714 57.1995 145.701 57.1995ZM145.701 54.3995C146.354 54.3995 146.901 54.1661 147.341 53.6995C147.794 53.2328 148.021 52.6328 148.021 51.8995C148.021 51.1661 147.794 50.5661 147.341 50.0995C146.901 49.6328 146.354 49.3995 145.701 49.3995C145.047 49.3995 144.494 49.6328 144.041 50.0995C143.601 50.5661 143.381 51.1661 143.381 51.8995C143.381 52.6328 143.601 53.2328 144.041 53.6995C144.494 54.1661 145.047 54.3995 145.701 54.3995ZM147.041 45.4395H144.521L146.461 42.4995H149.481L147.041 45.4395ZM157.251 61.1995C156.091 61.1995 155.138 60.9795 154.391 60.5395C153.658 60.1128 153.124 59.5995 152.791 58.9995C152.458 58.3995 152.284 57.8395 152.271 57.3195H155.351C155.418 57.6395 155.604 57.9328 155.911 58.1995C156.218 58.4661 156.664 58.5995 157.251 58.5995C157.878 58.5995 158.378 58.4128 158.751 58.0395C159.124 57.6795 159.311 57.1928 159.311 56.5795V55.3795H159.211C158.998 55.6195 158.658 55.8395 158.191 56.0395C157.724 56.2261 157.204 56.3195 156.631 56.3195C155.764 56.3195 154.978 56.1128 154.271 55.6995C153.578 55.2861 153.031 54.7128 152.631 53.9795C152.231 53.2328 152.031 52.3928 152.031 51.4595C152.031 50.5261 152.231 49.6928 152.631 48.9595C153.031 48.2128 153.578 47.6328 154.271 47.2195C154.978 46.8061 155.764 46.5994 156.631 46.5994C157.831 46.5994 158.764 46.9995 159.431 47.7995H159.531L159.731 46.7994H162.331V56.5995C162.331 57.9995 161.878 59.1128 160.971 59.9395C160.078 60.7795 158.838 61.1995 157.251 61.1995ZM157.191 53.6795C157.791 53.6795 158.291 53.4728 158.691 53.0595C159.104 52.6328 159.311 52.0995 159.311 51.4595C159.311 50.8195 159.104 50.2928 158.691 49.8795C158.291 49.4661 157.791 49.2595 157.191 49.2595C156.591 49.2595 156.084 49.4661 155.671 49.8795C155.271 50.2928 155.071 50.8195 155.071 51.4595C155.071 52.0995 155.271 52.6328 155.671 53.0595C156.084 53.4728 156.591 53.6795 157.191 53.6795ZM167.358 56.9995H164.338V46.7994H167.358V56.9995ZM167.438 45.3194H164.278V42.6995H167.438V45.3194ZM174.228 57.1995C173.214 57.1995 172.301 56.9728 171.488 56.5195C170.674 56.0528 170.034 55.4195 169.568 54.6195C169.101 53.8061 168.868 52.8995 168.868 51.8995C168.868 50.8995 169.101 49.9995 169.568 49.1995C170.034 48.3861 170.674 47.7528 171.488 47.2995C172.301 46.8328 173.214 46.5994 174.228 46.5994C175.214 46.5994 176.068 46.8061 176.788 47.2195C177.508 47.6328 178.074 48.1595 178.488 48.7995C178.901 49.4261 179.168 50.0861 179.288 50.7795H176.228C176.108 50.4061 175.888 50.0861 175.568 49.8195C175.248 49.5395 174.801 49.3995 174.228 49.3995C173.574 49.3995 173.021 49.6328 172.568 50.0995C172.128 50.5661 171.908 51.1661 171.908 51.8995C171.908 52.6328 172.128 53.2395 172.568 53.7195C173.021 54.1861 173.574 54.4195 174.228 54.4195C174.801 54.4195 175.248 54.2795 175.568 53.9995C175.888 53.7195 176.108 53.3795 176.228 52.9795H179.288C179.168 53.6861 178.901 54.3595 178.488 54.9995C178.074 55.6395 177.508 56.1661 176.788 56.5795C176.081 56.9928 175.228 57.1995 174.228 57.1995ZM185.526 57.1995C184.513 57.1995 183.6 56.9728 182.786 56.5195C181.973 56.0528 181.333 55.4195 180.866 54.6195C180.413 53.8061 180.186 52.8995 180.186 51.8995C180.186 50.8995 180.413 49.9995 180.866 49.1995C181.333 48.3861 181.973 47.7528 182.786 47.2995C183.6 46.8328 184.513 46.5994 185.526 46.5994C186.54 46.5994 187.453 46.8328 188.266 47.2995C189.08 47.7528 189.713 48.3861 190.166 49.1995C190.633 49.9995 190.866 50.8995 190.866 51.8995C190.866 52.8995 190.633 53.8061 190.166 54.6195C189.713 55.4195 189.08 56.0528 188.266 56.5195C187.453 56.9728 186.54 57.1995 185.526 57.1995ZM185.526 54.3995C186.18 54.3995 186.726 54.1661 187.166 53.6995C187.62 53.2328 187.846 52.6328 187.846 51.8995C187.846 51.1661 187.62 50.5661 187.166 50.0995C186.726 49.6328 186.18 49.3995 185.526 49.3995C184.873 49.3995 184.32 49.6328 183.866 50.0995C183.426 50.5661 183.206 51.1661 183.206 51.8995C183.206 52.6328 183.426 53.2328 183.866 53.6995C184.32 54.1661 184.873 54.3995 185.526 54.3995Z" fill="white"/>
<path opacity="0.5" d="M138.25 137.999C139.727 137.999 141.19 137.708 142.555 137.143C143.92 136.578 145.16 135.749 146.205 134.704C147.25 133.66 148.078 132.42 148.644 131.055C149.209 129.69 149.5 128.227 149.5 126.749C149.5 125.272 149.209 123.809 148.644 122.444C148.078 121.079 147.25 119.839 146.205 118.794C145.16 117.75 143.92 116.921 142.555 116.356C141.19 115.79 139.727 115.499 138.25 115.499C135.266 115.499 132.405 116.685 130.295 118.794C128.185 120.904 127 123.766 127 126.749C127 129.733 128.185 132.595 130.295 134.704C132.405 136.814 135.266 137.999 138.25 137.999Z" fill="white" fill-opacity="0.44"/>
<path d="M150.972 108.529C151.033 108.373 151.14 108.239 151.279 108.144C151.418 108.05 151.582 107.999 151.75 107.999C151.918 107.999 152.082 108.05 152.221 108.144C152.36 108.239 152.467 108.373 152.528 108.529L153.51 111.019C153.595 111.233 153.765 111.404 153.982 111.49L156.47 112.471C157.175 112.75 157.175 113.749 156.47 114.028L153.98 115.009C153.874 115.051 153.777 115.115 153.696 115.196C153.615 115.278 153.551 115.375 153.51 115.481L152.528 117.97C152.467 118.126 152.36 118.26 152.221 118.355C152.082 118.449 151.918 118.5 151.75 118.5C151.582 118.5 151.418 118.449 151.279 118.355C151.14 118.26 151.033 118.126 150.972 117.97L149.99 115.48C149.948 115.373 149.884 115.276 149.803 115.195C149.722 115.114 149.625 115.051 149.518 115.009L147.029 114.028C146.873 113.966 146.739 113.859 146.645 113.72C146.55 113.581 146.5 113.417 146.5 113.249C146.5 113.082 146.55 112.917 146.645 112.779C146.739 112.64 146.873 112.533 147.029 112.471L149.52 111.49C149.626 111.448 149.723 111.384 149.804 111.303C149.885 111.221 149.949 111.124 149.99 111.017L150.972 108.529Z" fill="white" fill-opacity="0.44"/>
<path opacity="0.7" d="M148.715 114.692L145.37 118.039C145.951 118.516 146.484 119.048 146.96 119.629L150.306 116.284L149.99 115.481C149.948 115.374 149.885 115.277 149.803 115.196C149.722 115.115 149.625 115.051 149.518 115.009L148.715 114.692Z" fill="white" fill-opacity="0.44"/>
<path d="M142 130.124C142.298 130.124 142.585 130.006 142.795 129.795C143.006 129.584 143.125 129.298 143.125 128.999C143.125 128.701 143.006 128.415 142.795 128.204C142.585 127.993 142.298 127.874 142 127.874H139C138.702 127.874 138.415 127.993 138.205 128.204C137.994 128.415 137.875 128.701 137.875 128.999C137.875 129.298 137.994 129.584 138.205 129.795C138.415 130.006 138.702 130.124 139 130.124H142ZM145 123.749C145 124.991 144.328 125.999 143.5 125.999C142.672 125.999 142 124.991 142 123.749C142 122.507 142.672 121.499 143.5 121.499C144.328 121.499 145 122.507 145 123.749ZM137.5 125.999C138.328 125.999 139 124.991 139 123.749C139 122.507 138.328 121.499 137.5 121.499C136.672 121.499 136 122.507 136 123.749C136 124.991 136.672 125.999 137.5 125.999Z" fill="white" fill-opacity="0.44"/>
<path fill-rule="evenodd" clip-rule="evenodd" d="M6.10352e-05 0L138 0L276 0L138 238L69.4418 119.283L6.10352e-05 0Z" fill="white" fill-opacity="0.04"/>
<path d="M0.869696 0.5L138 0.5L275.132 0.5L138.001 237.002L69.8747 119.033L69.8739 119.032L0.869696 0.5Z" stroke="#DFEFF7" stroke-opacity="0.2"/>
</svg>
