<svg width="276" height="238" viewBox="0 0 276 238" fill="none" xmlns="http://www.w3.org/2000/svg">
<ellipse cx="138.5" cy="122.499" rx="35.5" ry="34.5" fill="white" fill-opacity="0.04"/>
<path d="M69.6433 32.9995H66.1433L65.2433 30.1995H59.8433L58.9433 32.9995H55.4433L60.2433 18.9994H64.8433L69.6433 32.9995ZM62.3433 22.3995L60.7433 27.3995H64.3433L62.7433 22.3995H62.3433ZM74.3472 33.1995C73.5739 33.1995 72.8806 33.0261 72.2672 32.6795C71.6672 32.3328 71.1939 31.8395 70.8472 31.1995C70.5139 30.5461 70.3472 29.7928 70.3472 28.9395V22.7994H73.3672V28.4395C73.3672 28.9995 73.5339 29.4595 73.8672 29.8195C74.2139 30.1661 74.6672 30.3395 75.2272 30.3395C75.7872 30.3395 76.2339 30.1661 76.5672 29.8195C76.9139 29.4595 77.0872 28.9995 77.0872 28.4395V22.7994H80.1072V32.9995H77.5072L77.3072 32.0995H77.2072C76.9406 32.4061 76.5539 32.6661 76.0472 32.8795C75.5406 33.0928 74.9739 33.1995 74.3472 33.1995ZM85.2352 32.9995H82.2152V18.9994H85.2352V32.9995ZM90.5802 33.1995C89.8202 33.1995 89.1535 33.0595 88.5802 32.7795C88.0202 32.4995 87.5869 32.1261 87.2802 31.6595C86.9869 31.1795 86.8402 30.6461 86.8402 30.0595C86.8402 29.0461 87.2002 28.2328 87.9202 27.6195C88.6402 27.0061 89.6802 26.6995 91.0402 26.6995H93.2802V26.5195C93.2802 26.0795 93.1335 25.7195 92.8402 25.4395C92.5602 25.1461 92.1935 24.9995 91.7402 24.9995C91.3269 24.9995 91.0002 25.0928 90.7602 25.2795C90.5202 25.4528 90.3469 25.6595 90.2402 25.8995H87.2802C87.3469 25.3395 87.5602 24.8061 87.9202 24.2995C88.2935 23.7928 88.8002 23.3861 89.4402 23.0795C90.0935 22.7594 90.8602 22.5994 91.7402 22.5994C92.6602 22.5994 93.4602 22.7728 94.1402 23.1195C94.8335 23.4661 95.3669 23.9395 95.7402 24.5395C96.1135 25.1261 96.3002 25.7861 96.3002 26.5195V32.9995H93.6802L93.4802 32.1195H93.3802C93.1535 32.3995 92.7869 32.6528 92.2802 32.8795C91.7869 33.0928 91.2202 33.1995 90.5802 33.1995ZM91.2402 30.8595C91.8802 30.8595 92.3802 30.6861 92.7402 30.3395C93.1002 29.9928 93.2802 29.5261 93.2802 28.9395V28.6995H91.4402C90.9202 28.6995 90.5269 28.7995 90.2602 28.9995C90.0069 29.1861 89.8802 29.4461 89.8802 29.7795C89.8802 30.1128 89.9935 30.3795 90.2202 30.5795C90.4602 30.7661 90.8002 30.8595 91.2402 30.8595ZM102.15 33.1995C101.043 33.1995 100.143 33.0128 99.4498 32.6395C98.7564 32.2528 98.2564 31.7995 97.9498 31.2795C97.6564 30.7595 97.5098 30.2728 97.5098 29.8195H100.45C100.45 30.0995 100.59 30.3528 100.87 30.5795C101.163 30.7928 101.59 30.8995 102.15 30.8995C102.696 30.8995 103.096 30.8195 103.35 30.6595C103.616 30.4861 103.75 30.2795 103.75 30.0395C103.75 29.7861 103.663 29.5861 103.49 29.4395C103.316 29.2928 103.01 29.1861 102.57 29.1195L101.05 28.8795C98.7164 28.5195 97.5498 27.5061 97.5498 25.8395C97.5498 25.2528 97.7231 24.7128 98.0698 24.2195C98.4164 23.7261 98.9298 23.3328 99.6098 23.0395C100.29 22.7461 101.103 22.5994 102.05 22.5994C103.01 22.5994 103.83 22.7728 104.51 23.1195C105.19 23.4528 105.703 23.8795 106.05 24.3995C106.396 24.9061 106.57 25.4061 106.57 25.8995H103.65C103.65 25.6328 103.503 25.3995 103.21 25.1995C102.93 24.9995 102.543 24.8995 102.05 24.8995C101.57 24.8995 101.196 24.9928 100.93 25.1795C100.676 25.3528 100.55 25.5595 100.55 25.7995C100.55 26.1861 100.936 26.4395 101.71 26.5595L103.31 26.7995C105.59 27.1328 106.73 28.1995 106.73 29.9995C106.73 30.5861 106.556 31.1261 106.21 31.6195C105.876 32.0995 105.363 32.4861 104.67 32.7795C103.99 33.0595 103.15 33.1995 102.15 33.1995ZM117.353 33.1995C116.486 33.1995 115.693 32.9795 114.973 32.5395C114.253 32.0861 113.68 31.4595 113.253 30.6595C112.826 29.8461 112.613 28.9261 112.613 27.8995C112.613 26.8728 112.826 25.9595 113.253 25.1595C113.68 24.3461 114.253 23.7195 114.973 23.2795C115.693 22.8261 116.486 22.5994 117.353 22.5994C117.98 22.5994 118.533 22.7128 119.013 22.9395C119.506 23.1661 119.86 23.4128 120.073 23.6795H120.173V18.9994H123.193V32.9995H120.593L120.393 31.9995H120.293C120.026 32.3461 119.64 32.6328 119.133 32.8595C118.64 33.0861 118.046 33.1995 117.353 33.1995ZM117.913 30.4195C118.566 30.4195 119.106 30.1928 119.533 29.7395C119.96 29.2728 120.173 28.6595 120.173 27.8995C120.173 27.1395 119.96 26.5328 119.533 26.0795C119.106 25.6261 118.566 25.3995 117.913 25.3995C117.26 25.3995 116.72 25.6261 116.293 26.0795C115.866 26.5328 115.653 27.1395 115.653 27.8995C115.653 28.6595 115.866 29.2728 116.293 29.7395C116.72 30.1928 117.26 30.4195 117.913 30.4195ZM130.151 33.1995C129.138 33.1995 128.224 32.9728 127.411 32.5195C126.598 32.0528 125.958 31.4195 125.491 30.6195C125.024 29.8061 124.791 28.8995 124.791 27.8995C124.791 26.8995 125.024 25.9995 125.491 25.1995C125.958 24.3861 126.598 23.7528 127.411 23.2995C128.224 22.8328 129.138 22.5994 130.151 22.5994C131.111 22.5994 131.984 22.8261 132.771 23.2795C133.571 23.7328 134.198 24.3595 134.651 25.1595C135.104 25.9461 135.331 26.8195 135.331 27.7795C135.331 28.1395 135.298 28.4728 135.231 28.7795H127.791C127.871 29.3395 128.131 29.8128 128.571 30.1995C129.011 30.5728 129.538 30.7595 130.151 30.7595C130.604 30.7595 130.991 30.6728 131.311 30.4995C131.631 30.3261 131.871 30.1461 132.031 29.9595H135.071C134.938 30.4128 134.671 30.8861 134.271 31.3795C133.871 31.8728 133.318 32.2995 132.611 32.6595C131.918 33.0195 131.098 33.1995 130.151 33.1995ZM132.351 26.9595C132.271 26.3995 132.031 25.9328 131.631 25.5595C131.231 25.1861 130.738 24.9995 130.151 24.9995C129.524 24.9995 129.004 25.1861 128.591 25.5595C128.178 25.9328 127.911 26.3995 127.791 26.9595H132.351ZM144.835 32.9995H141.815V22.7994H144.835V32.9995ZM144.915 21.3194H141.755V18.6995H144.915V21.3194ZM151.085 33.1995C150.218 33.1995 149.425 32.9795 148.705 32.5395C147.985 32.0861 147.412 31.4595 146.985 30.6595C146.558 29.8461 146.345 28.9261 146.345 27.8995C146.345 26.8728 146.558 25.9595 146.985 25.1595C147.412 24.3461 147.985 23.7195 148.705 23.2795C149.425 22.8261 150.218 22.5994 151.085 22.5994C151.712 22.5994 152.265 22.7128 152.745 22.9395C153.238 23.1661 153.592 23.4128 153.805 23.6795H153.905V18.9994H156.925V32.9995H154.325L154.125 31.9995H154.025C153.758 32.3461 153.372 32.6328 152.865 32.8595C152.372 33.0861 151.778 33.1995 151.085 33.1995ZM151.645 30.4195C152.298 30.4195 152.838 30.1928 153.265 29.7395C153.692 29.2728 153.905 28.6595 153.905 27.8995C153.905 27.1395 153.692 26.5328 153.265 26.0795C152.838 25.6261 152.298 25.3995 151.645 25.3995C150.992 25.3995 150.452 25.6261 150.025 26.0795C149.598 26.5328 149.385 27.1395 149.385 27.8995C149.385 28.6595 149.598 29.2728 150.025 29.7395C150.452 30.1928 150.992 30.4195 151.645 30.4195ZM162.043 32.9995H159.023V22.7994H162.043V32.9995ZM162.123 21.3194H158.963V18.6995H162.123V21.3194ZM168.893 33.1995C167.879 33.1995 166.966 32.9728 166.153 32.5195C165.339 32.0528 164.699 31.4195 164.233 30.6195C163.779 29.8061 163.553 28.8995 163.553 27.8995C163.553 26.8995 163.779 25.9995 164.233 25.1995C164.699 24.3861 165.339 23.7528 166.153 23.2995C166.966 22.8328 167.879 22.5994 168.893 22.5994C169.906 22.5994 170.819 22.8328 171.633 23.2995C172.446 23.7528 173.079 24.3861 173.533 25.1995C173.999 25.9995 174.233 26.8995 174.233 27.8995C174.233 28.8995 173.999 29.8061 173.533 30.6195C173.079 31.4195 172.446 32.0528 171.633 32.5195C170.819 32.9728 169.906 33.1995 168.893 33.1995ZM168.893 30.3995C169.546 30.3995 170.093 30.1661 170.533 29.6995C170.986 29.2328 171.213 28.6328 171.213 27.8995C171.213 27.1661 170.986 26.5661 170.533 26.0995C170.093 25.6328 169.546 25.3995 168.893 25.3995C168.239 25.3995 167.686 25.6328 167.233 26.0995C166.793 26.5661 166.573 27.1661 166.573 27.8995C166.573 28.6328 166.793 29.2328 167.233 29.6995C167.686 30.1661 168.239 30.3995 168.893 30.3995ZM175.723 32.9995V22.7994H178.323L178.523 23.6995H178.623C178.823 23.4195 179.143 23.1661 179.583 22.9395C180.023 22.7128 180.51 22.5994 181.043 22.5994C181.71 22.5994 182.283 22.7461 182.763 23.0395C183.256 23.3328 183.61 23.6528 183.823 23.9995H183.923C184.176 23.6261 184.57 23.2995 185.103 23.0195C185.65 22.7395 186.276 22.5994 186.983 22.5994C187.69 22.5994 188.33 22.7794 188.903 23.1395C189.49 23.4995 189.95 23.9928 190.283 24.6195C190.616 25.2461 190.783 25.9528 190.783 26.7395V32.9995H187.763V27.1795C187.763 26.6328 187.63 26.2128 187.363 25.9195C187.11 25.6261 186.763 25.4795 186.323 25.4795C185.87 25.4795 185.496 25.6395 185.203 25.9595C184.91 26.2795 184.763 26.6861 184.763 27.1795V32.9995H181.743V27.1795C181.743 26.6328 181.61 26.2128 181.343 25.9195C181.09 25.6261 180.743 25.4795 180.303 25.4795C179.85 25.4795 179.476 25.6395 179.183 25.9595C178.89 26.2661 178.743 26.6728 178.743 27.1795V32.9995H175.723ZM195.926 33.1995C195.166 33.1995 194.5 33.0595 193.926 32.7795C193.366 32.4995 192.933 32.1261 192.626 31.6595C192.333 31.1795 192.186 30.6461 192.186 30.0595C192.186 29.0461 192.546 28.2328 193.266 27.6195C193.986 27.0061 195.026 26.6995 196.386 26.6995H198.626V26.5195C198.626 26.0795 198.48 25.7195 198.186 25.4395C197.906 25.1461 197.54 24.9995 197.086 24.9995C196.673 24.9995 196.346 25.0928 196.106 25.2795C195.866 25.4528 195.693 25.6595 195.586 25.8995H192.626C192.693 25.3395 192.906 24.8061 193.266 24.2995C193.64 23.7928 194.146 23.3861 194.786 23.0795C195.44 22.7594 196.206 22.5994 197.086 22.5994C198.006 22.5994 198.806 22.7728 199.486 23.1195C200.18 23.4661 200.713 23.9395 201.086 24.5395C201.46 25.1261 201.646 25.7861 201.646 26.5195V32.9995H199.026L198.826 32.1195H198.726C198.5 32.3995 198.133 32.6528 197.626 32.8795C197.133 33.0928 196.566 33.1995 195.926 33.1995ZM196.586 30.8595C197.226 30.8595 197.726 30.6861 198.086 30.3395C198.446 29.9928 198.626 29.5261 198.626 28.9395V28.6995H196.786C196.266 28.6995 195.873 28.7995 195.606 28.9995C195.353 29.1861 195.226 29.4461 195.226 29.7795C195.226 30.1128 195.34 30.3795 195.566 30.5795C195.806 30.7661 196.146 30.8595 196.586 30.8595ZM207.496 33.1995C206.389 33.1995 205.489 33.0128 204.796 32.6395C204.103 32.2528 203.603 31.7995 203.296 31.2795C203.003 30.7595 202.856 30.2728 202.856 29.8195H205.796C205.796 30.0995 205.936 30.3528 206.216 30.5795C206.509 30.7928 206.936 30.8995 207.496 30.8995C208.043 30.8995 208.443 30.8195 208.696 30.6595C208.963 30.4861 209.096 30.2795 209.096 30.0395C209.096 29.7861 209.009 29.5861 208.836 29.4395C208.663 29.2928 208.356 29.1861 207.916 29.1195L206.396 28.8795C204.063 28.5195 202.896 27.5061 202.896 25.8395C202.896 25.2528 203.069 24.7128 203.416 24.2195C203.763 23.7261 204.276 23.3328 204.956 23.0395C205.636 22.7461 206.449 22.5994 207.396 22.5994C208.356 22.5994 209.176 22.7728 209.856 23.1195C210.536 23.4528 211.049 23.8795 211.396 24.3995C211.743 24.9061 211.916 25.4061 211.916 25.8995H208.996C208.996 25.6328 208.849 25.3995 208.556 25.1995C208.276 24.9995 207.889 24.8995 207.396 24.8995C206.916 24.8995 206.543 24.9928 206.276 25.1795C206.023 25.3528 205.896 25.5595 205.896 25.7995C205.896 26.1861 206.283 26.4395 207.056 26.5595L208.656 26.7995C210.936 27.1328 212.076 28.1995 212.076 29.9995C212.076 30.5861 211.903 31.1261 211.556 31.6195C211.223 32.0995 210.709 32.4861 210.016 32.7795C209.336 33.0595 208.496 33.1995 207.496 33.1995ZM71.8334 57.1995C70.8201 57.1995 69.9068 56.9728 69.0934 56.5195C68.2801 56.0528 67.6401 55.4195 67.1734 54.6195C66.7068 53.8061 66.4734 52.8995 66.4734 51.8995C66.4734 50.8995 66.7068 49.9995 67.1734 49.1995C67.6401 48.3861 68.2801 47.7528 69.0934 47.2995C69.9068 46.8328 70.8201 46.5994 71.8334 46.5994C72.7934 46.5994 73.6668 46.8261 74.4534 47.2795C75.2534 47.7328 75.8801 48.3595 76.3334 49.1595C76.7868 49.9461 77.0134 50.8195 77.0134 51.7795C77.0134 52.1395 76.9801 52.4728 76.9134 52.7795H69.4734C69.5534 53.3395 69.8134 53.8128 70.2534 54.1995C70.6934 54.5728 71.2201 54.7595 71.8334 54.7595C72.2868 54.7595 72.6734 54.6728 72.9934 54.4995C73.3134 54.3261 73.5534 54.1461 73.7134 53.9595H76.7534C76.6201 54.4128 76.3534 54.8861 75.9534 55.3795C75.5534 55.8728 75.0001 56.2995 74.2934 56.6595C73.6001 57.0195 72.7801 57.1995 71.8334 57.1995ZM74.0334 50.9595C73.9534 50.3995 73.7134 49.9328 73.3134 49.5595C72.9134 49.1861 72.4201 48.9995 71.8334 48.9995C71.2068 48.9995 70.6868 49.1861 70.2734 49.5595C69.8601 49.9328 69.5934 50.3995 69.4734 50.9595H74.0334ZM82.447 57.1995C81.3403 57.1995 80.4403 57.0128 79.747 56.6395C79.0537 56.2528 78.5537 55.7995 78.247 55.2795C77.9537 54.7595 77.807 54.2728 77.807 53.8195H80.747C80.747 54.0995 80.887 54.3528 81.167 54.5795C81.4603 54.7928 81.887 54.8995 82.447 54.8995C82.9937 54.8995 83.3937 54.8195 83.647 54.6595C83.9137 54.4861 84.047 54.2795 84.047 54.0395C84.047 53.7861 83.9603 53.5861 83.787 53.4395C83.6137 53.2928 83.307 53.1861 82.867 53.1195L81.347 52.8795C79.0137 52.5195 77.847 51.5061 77.847 49.8395C77.847 49.2528 78.0203 48.7128 78.367 48.2195C78.7137 47.7261 79.227 47.3328 79.907 47.0395C80.587 46.7461 81.4003 46.5994 82.347 46.5994C83.307 46.5994 84.127 46.7728 84.807 47.1195C85.487 47.4528 86.0003 47.8795 86.347 48.3995C86.6937 48.9061 86.867 49.4061 86.867 49.8995H83.947C83.947 49.6328 83.8003 49.3995 83.507 49.1995C83.227 48.9995 82.8403 48.8995 82.347 48.8995C81.867 48.8995 81.4937 48.9928 81.227 49.1795C80.9737 49.3528 80.847 49.5595 80.847 49.7995C80.847 50.1861 81.2337 50.4395 82.007 50.5595L83.607 50.7995C85.887 51.1328 87.027 52.1995 87.027 53.9995C87.027 54.5861 86.8537 55.1261 86.507 55.6195C86.1737 56.0995 85.6603 56.4861 84.967 56.7795C84.287 57.0595 83.447 57.1995 82.447 57.1995ZM88.4195 60.9995V46.7994H91.0195L91.2195 47.7995H91.3195C91.5728 47.4528 91.9528 47.1661 92.4595 46.9395C92.9795 46.7128 93.5728 46.5994 94.2395 46.5994C95.1062 46.5994 95.8995 46.8261 96.6195 47.2795C97.3395 47.7195 97.9128 48.3461 98.3395 49.1595C98.7662 49.9595 98.9795 50.8728 98.9795 51.8995C98.9795 52.9261 98.7662 53.8461 98.3395 54.6595C97.9128 55.4595 97.3395 56.0861 96.6195 56.5395C95.8995 56.9795 95.1062 57.1995 94.2395 57.1995C93.6128 57.1995 93.0528 57.0928 92.5595 56.8795C92.0795 56.6661 91.7395 56.4328 91.5395 56.1795H91.4395V60.9995H88.4195ZM93.6995 54.4195C94.3528 54.4195 94.8928 54.1928 95.3195 53.7395C95.7462 53.2728 95.9595 52.6595 95.9595 51.8995C95.9595 51.1395 95.7462 50.5328 95.3195 50.0795C94.8928 49.6261 94.3528 49.3995 93.6995 49.3995C93.0462 49.3995 92.5062 49.6261 92.0795 50.0795C91.6528 50.5328 91.4395 51.1395 91.4395 51.8995C91.4395 52.6595 91.6528 53.2728 92.0795 53.7395C92.5062 54.1928 93.0462 54.4195 93.6995 54.4195ZM105.34 57.1995C104.327 57.1995 103.414 56.9728 102.6 56.5195C101.787 56.0528 101.147 55.4195 100.68 54.6195C100.214 53.8061 99.9805 52.8995 99.9805 51.8995C99.9805 50.8995 100.214 49.9995 100.68 49.1995C101.147 48.3861 101.787 47.7528 102.6 47.2995C103.414 46.8328 104.327 46.5994 105.34 46.5994C106.3 46.5994 107.174 46.8261 107.96 47.2795C108.76 47.7328 109.387 48.3595 109.84 49.1595C110.294 49.9461 110.52 50.8195 110.52 51.7795C110.52 52.1395 110.487 52.4728 110.42 52.7795H102.98C103.06 53.3395 103.32 53.8128 103.76 54.1995C104.2 54.5728 104.727 54.7595 105.34 54.7595C105.794 54.7595 106.18 54.6728 106.5 54.4995C106.82 54.3261 107.06 54.1461 107.22 53.9595H110.26C110.127 54.4128 109.86 54.8861 109.46 55.3795C109.06 55.8728 108.507 56.2995 107.8 56.6595C107.107 57.0195 106.287 57.1995 105.34 57.1995ZM107.54 50.9595C107.46 50.3995 107.22 49.9328 106.82 49.5595C106.42 49.1861 105.927 48.9995 105.34 48.9995C104.714 48.9995 104.194 49.1861 103.78 49.5595C103.367 49.9328 103.1 50.3995 102.98 50.9595H107.54ZM116.874 57.1995C115.861 57.1995 114.947 56.9728 114.134 56.5195C113.321 56.0528 112.681 55.4195 112.214 54.6195C111.747 53.8061 111.514 52.8995 111.514 51.8995C111.514 50.8995 111.747 49.9995 112.214 49.1995C112.681 48.3861 113.321 47.7528 114.134 47.2995C114.947 46.8328 115.861 46.5994 116.874 46.5994C117.861 46.5994 118.714 46.8061 119.434 47.2195C120.154 47.6328 120.721 48.1595 121.134 48.7995C121.547 49.4261 121.814 50.0861 121.934 50.7795H118.874C118.754 50.4061 118.534 50.0861 118.214 49.8195C117.894 49.5395 117.447 49.3995 116.874 49.3995C116.221 49.3995 115.667 49.6328 115.214 50.0995C114.774 50.5661 114.554 51.1661 114.554 51.8995C114.554 52.6328 114.774 53.2395 115.214 53.7195C115.667 54.1861 116.221 54.4195 116.874 54.4195C117.447 54.4195 117.894 54.2795 118.214 53.9995C118.534 53.7195 118.754 53.3795 118.874 52.9795H121.934C121.814 53.6861 121.547 54.3595 121.134 54.9995C120.721 55.6395 120.154 56.1661 119.434 56.5795C118.727 56.9928 117.874 57.1995 116.874 57.1995ZM126.353 56.9995H123.333V46.7994H126.353V56.9995ZM126.433 45.3194H123.273V42.6995H126.433V45.3194ZM131.602 57.1995C130.842 57.1995 130.176 57.0595 129.602 56.7795C129.042 56.4995 128.609 56.1261 128.302 55.6595C128.009 55.1795 127.862 54.6461 127.862 54.0595C127.862 53.0461 128.222 52.2328 128.942 51.6195C129.662 51.0061 130.702 50.6995 132.062 50.6995H134.302V50.5195C134.302 50.0795 134.156 49.7195 133.862 49.4395C133.582 49.1461 133.216 48.9995 132.762 48.9995C132.349 48.9995 132.022 49.0928 131.782 49.2795C131.542 49.4528 131.369 49.6595 131.262 49.8995H128.302C128.369 49.3395 128.582 48.8061 128.942 48.2995C129.316 47.7928 129.822 47.3861 130.462 47.0795C131.116 46.7594 131.882 46.5994 132.762 46.5994C133.682 46.5994 134.482 46.7728 135.162 47.1195C135.856 47.4661 136.389 47.9395 136.762 48.5395C137.136 49.1261 137.322 49.7861 137.322 50.5195V56.9995H134.702L134.502 56.1195H134.402C134.176 56.3995 133.809 56.6528 133.302 56.8795C132.809 57.0928 132.242 57.1995 131.602 57.1995ZM132.262 54.8595C132.902 54.8595 133.402 54.6861 133.762 54.3395C134.122 53.9928 134.302 53.5261 134.302 52.9395V52.6995H132.462C131.942 52.6995 131.549 52.7995 131.282 52.9995C131.029 53.1861 130.902 53.4461 130.902 53.7795C130.902 54.1128 131.016 54.3795 131.242 54.5795C131.482 54.7661 131.822 54.8595 132.262 54.8595ZM142.352 56.9995H139.332V42.9994H142.352V56.9995ZM147.477 56.9995H144.457V46.7994H147.477V56.9995ZM147.557 45.3194H144.397V42.6995H147.557V45.3194ZM157.607 56.9995H148.887V54.3795L153.547 49.5195H148.987V46.7994H157.507V49.4195L152.847 54.2795H157.607V56.9995ZM162.249 57.1995C161.489 57.1995 160.822 57.0595 160.249 56.7795C159.689 56.4995 159.255 56.1261 158.949 55.6595C158.655 55.1795 158.509 54.6461 158.509 54.0595C158.509 53.0461 158.869 52.2328 159.589 51.6195C160.309 51.0061 161.349 50.6995 162.709 50.6995H164.949V50.5195C164.949 50.0795 164.802 49.7195 164.509 49.4395C164.229 49.1461 163.862 48.9995 163.409 48.9995C162.995 48.9995 162.669 49.0928 162.429 49.2795C162.189 49.4528 162.015 49.6595 161.909 49.8995H158.949C159.015 49.3395 159.229 48.8061 159.589 48.2995C159.962 47.7928 160.469 47.3861 161.109 47.0795C161.762 46.7594 162.529 46.5994 163.409 46.5994C164.329 46.5994 165.129 46.7728 165.809 47.1195C166.502 47.4661 167.035 47.9395 167.409 48.5395C167.782 49.1261 167.969 49.7861 167.969 50.5195V56.9995H165.349L165.149 56.1195H165.049C164.822 56.3995 164.455 56.6528 163.949 56.8795C163.455 57.0928 162.889 57.1995 162.249 57.1995ZM162.909 54.8595C163.549 54.8595 164.049 54.6861 164.409 54.3395C164.769 53.9928 164.949 53.5261 164.949 52.9395V52.6995H163.109C162.589 52.6995 162.195 52.7995 161.929 52.9995C161.675 53.1861 161.549 53.4461 161.549 53.7795C161.549 54.1128 161.662 54.3795 161.889 54.5795C162.129 54.7661 162.469 54.8595 162.909 54.8595ZM174.118 57.1995C173.251 57.1995 172.458 56.9795 171.738 56.5395C171.018 56.0861 170.445 55.4595 170.018 54.6595C169.591 53.8461 169.378 52.9261 169.378 51.8995C169.378 50.8728 169.591 49.9595 170.018 49.1595C170.445 48.3461 171.018 47.7195 171.738 47.2795C172.458 46.8261 173.251 46.5994 174.118 46.5994C174.745 46.5994 175.298 46.7128 175.778 46.9395C176.271 47.1661 176.625 47.4128 176.838 47.6795H176.938V42.9994H179.958V56.9995H177.358L177.158 55.9995H177.058C176.791 56.3461 176.405 56.6328 175.898 56.8595C175.405 57.0861 174.811 57.1995 174.118 57.1995ZM174.678 54.4195C175.331 54.4195 175.871 54.1928 176.298 53.7395C176.725 53.2728 176.938 52.6595 176.938 51.8995C176.938 51.1395 176.725 50.5328 176.298 50.0795C175.871 49.6261 175.331 49.3995 174.678 49.3995C174.025 49.3995 173.485 49.6261 173.058 50.0795C172.631 50.5328 172.418 51.1395 172.418 51.8995C172.418 52.6595 172.631 53.2728 173.058 53.7395C173.485 54.1928 174.025 54.4195 174.678 54.4195ZM185.296 57.1995C184.536 57.1995 183.87 57.0595 183.296 56.7795C182.736 56.4995 182.303 56.1261 181.996 55.6595C181.703 55.1795 181.556 54.6461 181.556 54.0595C181.556 53.0461 181.916 52.2328 182.636 51.6195C183.356 51.0061 184.396 50.6995 185.756 50.6995H187.996V50.5195C187.996 50.0795 187.85 49.7195 187.556 49.4395C187.276 49.1461 186.91 48.9995 186.456 48.9995C186.043 48.9995 185.716 49.0928 185.476 49.2795C185.236 49.4528 185.063 49.6595 184.956 49.8995H181.996C182.063 49.3395 182.276 48.8061 182.636 48.2995C183.01 47.7928 183.516 47.3861 184.156 47.0795C184.81 46.7594 185.576 46.5994 186.456 46.5994C187.376 46.5994 188.176 46.7728 188.856 47.1195C189.55 47.4661 190.083 47.9395 190.456 48.5395C190.83 49.1261 191.016 49.7861 191.016 50.5195V56.9995H188.396L188.196 56.1195H188.096C187.87 56.3995 187.503 56.6528 186.996 56.8795C186.503 57.0928 185.936 57.1995 185.296 57.1995ZM185.956 54.8595C186.596 54.8595 187.096 54.6861 187.456 54.3395C187.816 53.9928 187.996 53.5261 187.996 52.9395V52.6995H186.156C185.636 52.6995 185.243 52.7995 184.976 52.9995C184.723 53.1861 184.596 53.4461 184.596 53.7795C184.596 54.1128 184.71 54.3795 184.936 54.5795C185.176 54.7661 185.516 54.8595 185.956 54.8595ZM196.866 57.1995C195.759 57.1995 194.859 57.0128 194.166 56.6395C193.472 56.2528 192.972 55.7995 192.666 55.2795C192.372 54.7595 192.226 54.2728 192.226 53.8195H195.166C195.166 54.0995 195.306 54.3528 195.586 54.5795C195.879 54.7928 196.306 54.8995 196.866 54.8995C197.412 54.8995 197.812 54.8195 198.066 54.6595C198.332 54.4861 198.466 54.2795 198.466 54.0395C198.466 53.7861 198.379 53.5861 198.206 53.4395C198.032 53.2928 197.726 53.1861 197.286 53.1195L195.766 52.8795C193.432 52.5195 192.266 51.5061 192.266 49.8395C192.266 49.2528 192.439 48.7128 192.786 48.2195C193.132 47.7261 193.646 47.3328 194.326 47.0395C195.006 46.7461 195.819 46.5994 196.766 46.5994C197.726 46.5994 198.546 46.7728 199.226 47.1195C199.906 47.4528 200.419 47.8795 200.766 48.3995C201.112 48.9061 201.286 49.4061 201.286 49.8995H198.366C198.366 49.6328 198.219 49.3995 197.926 49.1995C197.646 48.9995 197.259 48.8995 196.766 48.8995C196.286 48.8995 195.912 48.9928 195.646 49.1795C195.392 49.3528 195.266 49.5595 195.266 49.7995C195.266 50.1861 195.652 50.4395 196.426 50.5595L198.026 50.7995C200.306 51.1328 201.446 52.1995 201.446 53.9995C201.446 54.5861 201.272 55.1261 200.926 55.6195C200.592 56.0995 200.079 56.4861 199.386 56.7795C198.706 57.0595 197.866 57.1995 196.866 57.1995Z" fill="white"/>
<path opacity="0.3" d="M145.706 129.706C153.115 122.297 156.116 113.29 152.413 109.586C148.709 105.881 139.702 108.884 132.293 116.291C124.885 123.701 121.883 132.709 125.587 136.412C129.292 140.117 138.299 137.113 145.706 129.706Z" fill="white" fill-opacity="0.44"/>
<path opacity="0.3" d="M132.293 129.706C124.885 122.299 121.883 113.29 125.587 109.586C129.29 105.881 138.298 108.884 145.706 116.291C153.115 123.701 156.116 132.709 152.413 136.412C148.708 140.117 139.7 137.113 132.293 129.706Z" fill="white" fill-opacity="0.44"/>
<path d="M142.75 122.999C142.75 123.994 142.355 124.948 141.652 125.651C140.948 126.354 139.995 126.749 139 126.749C138.005 126.749 137.052 126.354 136.348 125.651C135.645 124.948 135.25 123.994 135.25 122.999C135.25 122.005 135.645 121.051 136.348 120.348C137.052 119.645 138.005 119.249 139 119.249C139.995 119.249 140.948 119.645 141.652 120.348C142.355 121.051 142.75 122.005 142.75 122.999Z" fill="white" fill-opacity="0.44"/>
<path fill-rule="evenodd" clip-rule="evenodd" d="M6.10352e-05 0L138 0L276 0L138 238L69.4418 119.283L6.10352e-05 0Z" fill="white" fill-opacity="0.04"/>
<path d="M0.869696 0.5L138 0.5L275.132 0.5L138.001 237.002L69.8747 119.033L69.8739 119.032L0.869696 0.5Z" stroke="#DFEFF7" stroke-opacity="0.2"/>
</svg>
