<svg width="276" height="238" viewBox="0 0 276 238" fill="none" xmlns="http://www.w3.org/2000/svg">
<ellipse cx="139.5" cy="120.5" rx="35.5" ry="34.5" fill="white" fill-opacity="0.04"/>
<path d="M96.2462 50.2C95.0462 50.2 94.0062 49.9933 93.1262 49.58C92.2595 49.1533 91.5929 48.58 91.1262 47.86C90.6729 47.1267 90.4462 46.3067 90.4462 45.4H93.6462C93.6462 45.9733 93.8729 46.4533 94.3262 46.84C94.7929 47.2133 95.4329 47.4 96.2462 47.4C97.0462 47.4 97.6462 47.26 98.0462 46.98C98.4462 46.7 98.6462 46.34 98.6462 45.9C98.6462 45.5267 98.4929 45.22 98.1862 44.98C97.8795 44.7267 97.3662 44.5333 96.6462 44.4L94.4462 44C93.1929 43.7733 92.2595 43.34 91.6462 42.7C91.0462 42.06 90.7462 41.1933 90.7462 40.1C90.7462 39.2867 90.9529 38.56 91.3662 37.92C91.7929 37.2667 92.3995 36.7533 93.1862 36.38C93.9862 35.9933 94.9395 35.8 96.0462 35.8C97.2462 35.8 98.2729 36.0067 99.1262 36.42C99.9929 36.82 100.646 37.38 101.086 38.1C101.526 38.82 101.746 39.6533 101.746 40.6H98.5462C98.5462 40.04 98.3195 39.5667 97.8662 39.18C97.4129 38.7933 96.8062 38.6 96.0462 38.6C95.3795 38.6 94.8595 38.7467 94.4862 39.04C94.1262 39.32 93.9462 39.6733 93.9462 40.1C93.9462 40.46 94.0662 40.74 94.3062 40.94C94.5595 41.1267 95.0062 41.28 95.6462 41.4L97.8462 41.8C99.2462 42.0533 100.26 42.5 100.886 43.14C101.526 43.78 101.846 44.7 101.846 45.9C101.846 46.7133 101.633 47.4467 101.206 48.1C100.78 48.7533 100.146 49.2667 99.3062 49.64C98.4662 50.0133 97.4462 50.2 96.2462 50.2ZM107.439 50.2C106.666 50.2 105.972 50.0267 105.359 49.68C104.759 49.3333 104.286 48.84 103.939 48.2C103.606 47.5467 103.439 46.7933 103.439 45.94V39.8H106.459V45.44C106.459 46 106.626 46.46 106.959 46.82C107.306 47.1667 107.759 47.34 108.319 47.34C108.879 47.34 109.326 47.1667 109.659 46.82C110.006 46.46 110.179 46 110.179 45.44V39.8H113.199V50H110.599L110.399 49.1H110.299C110.032 49.4067 109.646 49.6667 109.139 49.88C108.632 50.0933 108.066 50.2 107.439 50.2ZM115.207 54V39.8H117.807L118.007 40.8H118.107C118.36 40.4533 118.74 40.1667 119.247 39.94C119.767 39.7133 120.36 39.6 121.027 39.6C121.894 39.6 122.687 39.8267 123.407 40.28C124.127 40.72 124.7 41.3467 125.127 42.16C125.554 42.96 125.767 43.8733 125.767 44.9C125.767 45.9267 125.554 46.8467 125.127 47.66C124.7 48.46 124.127 49.0867 123.407 49.54C122.687 49.98 121.894 50.2 121.027 50.2C120.4 50.2 119.84 50.0933 119.347 49.88C118.867 49.6667 118.527 49.4333 118.327 49.18H118.227V54H115.207ZM120.487 47.42C121.14 47.42 121.68 47.1933 122.107 46.74C122.534 46.2733 122.747 45.66 122.747 44.9C122.747 44.14 122.534 43.5333 122.107 43.08C121.68 42.6267 121.14 42.4 120.487 42.4C119.834 42.4 119.294 42.6267 118.867 43.08C118.44 43.5333 118.227 44.14 118.227 44.9C118.227 45.66 118.44 46.2733 118.867 46.74C119.294 47.1933 119.834 47.42 120.487 47.42ZM132.108 50.2C131.095 50.2 130.181 49.9733 129.368 49.52C128.555 49.0533 127.915 48.42 127.448 47.62C126.995 46.8067 126.768 45.9 126.768 44.9C126.768 43.9 126.995 43 127.448 42.2C127.915 41.3867 128.555 40.7533 129.368 40.3C130.181 39.8333 131.095 39.6 132.108 39.6C133.121 39.6 134.035 39.8333 134.848 40.3C135.661 40.7533 136.295 41.3867 136.748 42.2C137.215 43 137.448 43.9 137.448 44.9C137.448 45.9 137.215 46.8067 136.748 47.62C136.295 48.42 135.661 49.0533 134.848 49.52C134.035 49.9733 133.121 50.2 132.108 50.2ZM132.108 47.4C132.761 47.4 133.308 47.1667 133.748 46.7C134.201 46.2333 134.428 45.6333 134.428 44.9C134.428 44.1667 134.201 43.5667 133.748 43.1C133.308 42.6333 132.761 42.4 132.108 42.4C131.455 42.4 130.901 42.6333 130.448 43.1C130.008 43.5667 129.788 44.1667 129.788 44.9C129.788 45.6333 130.008 46.2333 130.448 46.7C130.901 47.1667 131.455 47.4 132.108 47.4ZM138.938 50V39.8H141.538L141.738 40.6H141.838C141.985 40.3867 142.218 40.2 142.538 40.04C142.858 39.88 143.225 39.8 143.638 39.8H145.578V42.66H143.778C142.565 42.66 141.958 43.28 141.958 44.52V50H138.938ZM150.543 50C149.57 50 148.83 49.76 148.323 49.28C147.817 48.8 147.563 48.1133 147.563 47.22V42.66H145.963V39.8H147.563V36.64H150.583V39.8H152.883V42.66H150.583V46.58C150.583 46.8333 150.637 47.0133 150.743 47.12C150.85 47.2267 151.03 47.28 151.283 47.28H152.883V50H150.543ZM159.053 50.2C158.04 50.2 157.126 49.9733 156.313 49.52C155.5 49.0533 154.86 48.42 154.393 47.62C153.926 46.8067 153.693 45.9 153.693 44.9C153.693 43.9 153.926 43 154.393 42.2C154.86 41.3867 155.5 40.7533 156.313 40.3C157.126 39.8333 158.04 39.6 159.053 39.6C160.013 39.6 160.886 39.8267 161.673 40.28C162.473 40.7333 163.1 41.36 163.553 42.16C164.006 42.9467 164.233 43.82 164.233 44.78C164.233 45.14 164.2 45.4733 164.133 45.78H156.693C156.773 46.34 157.033 46.8133 157.473 47.2C157.913 47.5733 158.44 47.76 159.053 47.76C159.506 47.76 159.893 47.6733 160.213 47.5C160.533 47.3267 160.773 47.1467 160.933 46.96H163.973C163.84 47.4133 163.573 47.8867 163.173 48.38C162.773 48.8733 162.22 49.3 161.513 49.66C160.82 50.02 160 50.2 159.053 50.2ZM161.253 43.96C161.173 43.4 160.933 42.9333 160.533 42.56C160.133 42.1867 159.64 42 159.053 42C158.426 42 157.906 42.1867 157.493 42.56C157.08 42.9333 156.813 43.4 156.693 43.96H161.253ZM173.957 50.2C173.197 50.2 172.531 50.06 171.957 49.78C171.397 49.5 170.964 49.1267 170.657 48.66C170.364 48.18 170.217 47.6467 170.217 47.06C170.217 46.0467 170.577 45.2333 171.297 44.62C172.017 44.0067 173.057 43.7 174.417 43.7H176.657V43.52C176.657 43.08 176.511 42.72 176.217 42.44C175.937 42.1467 175.571 42 175.117 42C174.704 42 174.377 42.0933 174.137 42.28C173.897 42.4533 173.724 42.66 173.617 42.9H170.657C170.724 42.34 170.937 41.8067 171.297 41.3C171.671 40.7933 172.177 40.3867 172.817 40.08C173.471 39.76 174.237 39.6 175.117 39.6C176.037 39.6 176.837 39.7733 177.517 40.12C178.211 40.4667 178.744 40.94 179.117 41.54C179.491 42.1267 179.677 42.7867 179.677 43.52V50H177.057L176.857 49.12H176.757C176.531 49.4 176.164 49.6533 175.657 49.88C175.164 50.0933 174.597 50.2 173.957 50.2ZM174.617 47.86C175.257 47.86 175.757 47.6867 176.117 47.34C176.477 46.9933 176.657 46.5267 176.657 45.94V45.7H174.817C174.297 45.7 173.904 45.8 173.637 46C173.384 46.1867 173.257 46.4467 173.257 46.78C173.257 47.1133 173.371 47.38 173.597 47.58C173.837 47.7667 174.177 47.86 174.617 47.86ZM186.427 50.2C185.413 50.2 184.5 49.9733 183.687 49.52C182.873 49.0533 182.233 48.42 181.767 47.62C181.313 46.8067 181.087 45.9 181.087 44.9C181.087 43.9 181.313 43 181.767 42.2C182.233 41.3867 182.873 40.7533 183.687 40.3C184.5 39.8333 185.413 39.6 186.427 39.6C187.44 39.6 188.353 39.8333 189.167 40.3C189.98 40.7533 190.613 41.3867 191.067 42.2C191.533 43 191.767 43.9 191.767 44.9C191.767 45.9 191.533 46.8067 191.067 47.62C190.613 48.42 189.98 49.0533 189.167 49.52C188.353 49.9733 187.44 50.2 186.427 50.2ZM186.427 47.4C187.08 47.4 187.627 47.1667 188.067 46.7C188.52 46.2333 188.747 45.6333 188.747 44.9C188.747 44.1667 188.52 43.5667 188.067 43.1C187.627 42.6333 187.08 42.4 186.427 42.4C185.773 42.4 185.22 42.6333 184.767 43.1C184.327 43.5667 184.107 44.1667 184.107 44.9C184.107 45.6333 184.327 46.2333 184.767 46.7C185.22 47.1667 185.773 47.4 186.427 47.4ZM114.516 74.2C113.502 74.2 112.589 73.9733 111.776 73.52C110.962 73.0533 110.322 72.42 109.856 71.62C109.389 70.8067 109.156 69.9 109.156 68.9C109.156 67.9 109.389 67 109.856 66.2C110.322 65.3867 110.962 64.7533 111.776 64.3C112.589 63.8333 113.502 63.6 114.516 63.6C115.476 63.6 116.349 63.8267 117.136 64.28C117.936 64.7333 118.562 65.36 119.016 66.16C119.469 66.9467 119.696 67.82 119.696 68.78C119.696 69.14 119.662 69.4733 119.596 69.78H112.156C112.236 70.34 112.496 70.8133 112.936 71.2C113.376 71.5733 113.902 71.76 114.516 71.76C114.969 71.76 115.356 71.6733 115.676 71.5C115.996 71.3267 116.236 71.1467 116.396 70.96H119.436C119.302 71.4133 119.036 71.8867 118.636 72.38C118.236 72.8733 117.682 73.3 116.976 73.66C116.282 74.02 115.462 74.2 114.516 74.2ZM116.716 67.96C116.636 67.4 116.396 66.9333 115.996 66.56C115.596 66.1867 115.102 66 114.516 66C113.889 66 113.369 66.1867 112.956 66.56C112.542 66.9333 112.276 67.4 112.156 67.96H116.716ZM125.129 74.2C124.022 74.2 123.122 74.0133 122.429 73.64C121.736 73.2533 121.236 72.8 120.929 72.28C120.636 71.76 120.489 71.2733 120.489 70.82H123.429C123.429 71.1 123.569 71.3533 123.849 71.58C124.142 71.7933 124.569 71.9 125.129 71.9C125.676 71.9 126.076 71.82 126.329 71.66C126.596 71.4867 126.729 71.28 126.729 71.04C126.729 70.7867 126.642 70.5867 126.469 70.44C126.296 70.2933 125.989 70.1867 125.549 70.12L124.029 69.88C121.696 69.52 120.529 68.5067 120.529 66.84C120.529 66.2533 120.702 65.7133 121.049 65.22C121.396 64.7267 121.909 64.3333 122.589 64.04C123.269 63.7467 124.082 63.6 125.029 63.6C125.989 63.6 126.809 63.7733 127.489 64.12C128.169 64.4533 128.682 64.88 129.029 65.4C129.376 65.9067 129.549 66.4067 129.549 66.9H126.629C126.629 66.6333 126.482 66.4 126.189 66.2C125.909 66 125.522 65.9 125.029 65.9C124.549 65.9 124.176 65.9933 123.909 66.18C123.656 66.3533 123.529 66.56 123.529 66.8C123.529 67.1867 123.916 67.44 124.689 67.56L126.289 67.8C128.569 68.1333 129.709 69.2 129.709 71C129.709 71.5867 129.536 72.1267 129.189 72.62C128.856 73.1 128.342 73.4867 127.649 73.78C126.969 74.06 126.129 74.2 125.129 74.2ZM134.786 74C133.813 74 133.073 73.76 132.566 73.28C132.06 72.8 131.806 72.1133 131.806 71.22V66.66H130.206V63.8H131.806V60.64H134.826V63.8H137.126V66.66H134.826V70.58C134.826 70.8333 134.88 71.0133 134.986 71.12C135.093 71.2267 135.273 71.28 135.526 71.28H137.126V74H134.786ZM142.631 74.2C141.858 74.2 141.165 74.0267 140.551 73.68C139.951 73.3333 139.478 72.84 139.131 72.2C138.798 71.5467 138.631 70.7933 138.631 69.94V63.8H141.651V69.44C141.651 70 141.818 70.46 142.151 70.82C142.498 71.1667 142.951 71.34 143.511 71.34C144.071 71.34 144.518 71.1667 144.851 70.82C145.198 70.46 145.371 70 145.371 69.44V63.8H148.391V74H145.791L145.591 73.1H145.491C145.225 73.4067 144.838 73.6667 144.331 73.88C143.825 74.0933 143.258 74.2 142.631 74.2ZM154.639 74.2C153.773 74.2 152.979 73.98 152.259 73.54C151.539 73.0867 150.966 72.46 150.539 71.66C150.113 70.8467 149.899 69.9267 149.899 68.9C149.899 67.8733 150.113 66.96 150.539 66.16C150.966 65.3467 151.539 64.72 152.259 64.28C152.979 63.8267 153.773 63.6 154.639 63.6C155.266 63.6 155.819 63.7133 156.299 63.94C156.793 64.1667 157.146 64.4133 157.359 64.68H157.459V60H160.479V74H157.879L157.679 73H157.579C157.313 73.3467 156.926 73.6333 156.419 73.86C155.926 74.0867 155.333 74.2 154.639 74.2ZM155.199 71.42C155.853 71.42 156.393 71.1933 156.819 70.74C157.246 70.2733 157.459 69.66 157.459 68.9C157.459 68.14 157.246 67.5333 156.819 67.08C156.393 66.6267 155.853 66.4 155.199 66.4C154.546 66.4 154.006 66.6267 153.579 67.08C153.153 67.5333 152.939 68.14 152.939 68.9C152.939 69.66 153.153 70.2733 153.579 70.74C154.006 71.1933 154.546 71.42 155.199 71.42ZM167.417 74.2C166.404 74.2 165.491 73.9733 164.677 73.52C163.864 73.0533 163.224 72.42 162.757 71.62C162.304 70.8067 162.077 69.9 162.077 68.9C162.077 67.9 162.304 67 162.757 66.2C163.224 65.3867 163.864 64.7533 164.677 64.3C165.491 63.8333 166.404 63.6 167.417 63.6C168.431 63.6 169.344 63.8333 170.157 64.3C170.971 64.7533 171.604 65.3867 172.057 66.2C172.524 67 172.757 67.9 172.757 68.9C172.757 69.9 172.524 70.8067 172.057 71.62C171.604 72.42 170.971 73.0533 170.157 73.52C169.344 73.9733 168.431 74.2 167.417 74.2ZM167.417 71.4C168.071 71.4 168.617 71.1667 169.057 70.7C169.511 70.2333 169.737 69.6333 169.737 68.9C169.737 68.1667 169.511 67.5667 169.057 67.1C168.617 66.6333 168.071 66.4 167.417 66.4C166.764 66.4 166.211 66.6333 165.757 67.1C165.317 67.5667 165.097 68.1667 165.097 68.9C165.097 69.6333 165.317 70.2333 165.757 70.7C166.211 71.1667 166.764 71.4 167.417 71.4Z" fill="#EFF7FB"/>
<path opacity="0.5" d="M155 121C155 129.285 148.285 136 140 136C131.716 136 125 129.285 125 121C125 112.716 131.716 106 140 106C148.285 106 155 112.716 155 121Z" fill="white" fill-opacity="0.44"/>
<path d="M140 116.5C140.796 116.5 141.559 116.184 142.121 115.621C142.684 115.059 143 114.296 143 113.5C143 112.704 142.684 111.941 142.121 111.379C141.559 110.816 140.796 110.5 140 110.5C139.204 110.5 138.441 110.816 137.879 111.379C137.316 111.941 137 112.704 137 113.5C137 114.296 137.316 115.059 137.879 115.621C138.441 116.184 139.204 116.5 140 116.5ZM131.44 116.965C131.167 116.859 130.864 116.864 130.595 116.977C130.326 117.091 130.111 117.305 129.997 117.574C129.883 117.843 129.878 118.146 129.983 118.419C130.088 118.691 130.295 118.912 130.561 119.035L130.564 119.036L130.567 119.038L130.582 119.044L130.63 119.065C130.913 119.183 131.199 119.296 131.488 119.403C132.058 119.62 132.859 119.91 133.778 120.198C135.26 120.666 137.132 121.158 138.875 121.319V123.18C138.875 123.825 138.689 124.459 138.34 125.003L134.554 130.891C134.474 131.015 134.419 131.154 134.393 131.3C134.366 131.445 134.369 131.594 134.4 131.739C134.431 131.883 134.491 132.02 134.575 132.141C134.659 132.263 134.767 132.367 134.891 132.447C135.015 132.526 135.154 132.581 135.3 132.608C135.445 132.634 135.594 132.631 135.739 132.6C135.883 132.569 136.02 132.509 136.141 132.425C136.263 132.341 136.367 132.233 136.447 132.109L140.002 126.58L143.554 132.109C143.634 132.233 143.737 132.341 143.859 132.425C143.98 132.509 144.117 132.569 144.261 132.6C144.406 132.631 144.555 132.634 144.7 132.608C144.846 132.581 144.985 132.526 145.109 132.447C145.233 132.367 145.341 132.263 145.425 132.141C145.509 132.02 145.569 131.883 145.6 131.739C145.631 131.594 145.634 131.445 145.608 131.3C145.581 131.154 145.527 131.015 145.447 130.891L141.661 125.003C141.311 124.459 141.125 123.825 141.125 123.178V121.319C142.868 121.158 144.74 120.666 146.224 120.198C147.287 119.862 148.337 119.484 149.371 119.065L149.42 119.044L149.435 119.038L149.438 119.036C149.708 118.917 149.92 118.696 150.028 118.422C150.137 118.147 150.133 117.841 150.018 117.569C149.903 117.297 149.686 117.082 149.413 116.969C149.14 116.856 148.834 116.854 148.561 116.965L148.55 116.969L148.51 116.986L148.345 117.054C147.425 117.421 146.493 117.754 145.549 118.052C143.782 118.608 141.667 119.125 140 119.125C138.334 119.125 136.22 118.608 134.453 118.052C133.452 117.736 132.465 117.38 131.492 116.986L131.45 116.969L131.44 116.965Z" fill="white" fill-opacity="0.44"/>
<path fill-rule="evenodd" clip-rule="evenodd" d="M6.10352e-05 0L138 0L276 0L138 238L69.4418 119.283L6.10352e-05 0Z" fill="white" fill-opacity="0.04"/>
<path d="M0.869696 0.5L138 0.5L275.132 0.5L138.001 237.002L69.8747 119.033L69.8739 119.032L0.869696 0.5Z" stroke="#DFEFF7" stroke-opacity="0.2"/>
</svg>
